%
M48
M72
T01C0.0200
T02C0.0400
T03C0.0630
T04C0.1300
%
T01
X2848Y12622
X3298Y14872
X3298Y16372
X3848Y18372
X4158Y19242
X4818Y18442
X5318Y17642
X5638Y17242
X6198Y18202
X6848Y18222
X6988Y18692
X7498Y20022
X7078Y20522
X6678Y20842
X6198Y20842
X5098Y19672
X4948Y22622
X5198Y23372
X3518Y24122
X6798Y17222
X6438Y16522
X6998Y16442
X7798Y17172
X7878Y18362
X8518Y19242
X8838Y19642
X8838Y18522
X9318Y17562
X9698Y16922
X8998Y16072
X8548Y15522
X8748Y12022
X8548Y11272
X8398Y10322
X9548Y11872
X10898Y13672
X11878Y13002
X11878Y14492
X11878Y15542
X10998Y15672
X12038Y11482
X11878Y10842
X11558Y9322
X11718Y6602
X11318Y4522
X10038Y5002
X9998Y4022
X9148Y7422
X7078Y6682
X4918Y13322
X8198Y20742
X8838Y20842
X8148Y23022
X10748Y23572
X10998Y22522
X11598Y20072
T02
X13998Y20522
X13998Y21522
X13998Y22522
X13998Y23522
X13998Y24522
X13998Y25522
X13998Y26522
X13998Y19522
X13998Y18522
X13998Y17522
X13998Y16522
X13998Y15522
X13998Y14522
X13998Y13522
X13998Y12522
X13998Y11522
X13998Y10522
X13998Y9522
X13998Y8522
X13998Y7522
X13998Y6522
X13998Y5522
X13998Y4522
X13998Y3522
X12498Y1522
X11498Y1522
X10498Y1522
X9498Y1522
X8498Y1522
X8498Y2522
X7498Y2522
X7498Y1522
X6498Y1522
X6498Y2522
X4498Y1522
X3498Y1522
X1498Y9522
X1498Y10522
X1498Y11522
X1498Y12522
X1498Y13522
X1498Y14522
X1498Y15522
X1498Y16522
X1498Y17522
X1498Y18522
X1498Y19522
X1498Y20522
X1498Y21522
X1498Y22522
X1498Y23522
X1498Y24522
X1498Y25522
X1498Y26522
T03
X2498Y6022
X4298Y6022
T04
X1498Y2022
X13998Y2022
X13998Y28022
X1498Y28022
M30
