G75*
G70*
%OFA0B0*%
%FSLAX24Y24*%
%IPPOS*%
%LPD*%
%AMOC8*
5,1,8,0,0,1.08239X$1,22.5*
%
%ADD10C,0.0100*%
%ADD11R,0.0098X0.0236*%
%ADD12R,0.0236X0.0098*%
%ADD13C,0.0000*%
%ADD14R,0.1102X0.0945*%
%ADD15C,0.0740*%
%ADD16R,0.0551X0.0630*%
%ADD17R,0.0433X0.0394*%
%ADD18R,0.0472X0.0217*%
%ADD19R,0.0394X0.0433*%
%ADD20R,0.0472X0.0315*%
%ADD21R,0.0748X0.0433*%
%ADD22R,0.0394X0.0984*%
%ADD23R,0.0984X0.2362*%
%ADD24R,0.0106X0.0157*%
%ADD25R,0.1000X0.0400*%
%ADD26R,0.0300X0.0600*%
%ADD27OC8,0.0740*%
%ADD28R,0.0740X0.0740*%
%ADD29C,0.0394*%
%ADD30R,0.0315X0.0315*%
%ADD31C,0.0080*%
%ADD32C,0.0400*%
D10*
X000498Y001022D02*
X014998Y001022D01*
X014998Y029022D01*
X000498Y029022D01*
X000498Y001022D01*
X000718Y002551D02*
X000718Y025022D01*
X001294Y025022D01*
X001192Y024980D01*
X001040Y024828D01*
X000958Y024630D01*
X000958Y024415D01*
X001040Y024216D01*
X001192Y024064D01*
X001294Y024022D01*
X001192Y023980D01*
X001040Y023828D01*
X000958Y023630D01*
X000958Y023415D01*
X001040Y023216D01*
X001192Y023064D01*
X001294Y023022D01*
X001192Y022980D01*
X001040Y022828D01*
X000958Y022630D01*
X000958Y022415D01*
X001040Y022216D01*
X001192Y022064D01*
X001294Y022022D01*
X001192Y021980D01*
X001040Y021828D01*
X000958Y021630D01*
X000958Y021415D01*
X001040Y021216D01*
X001192Y021064D01*
X001294Y021022D01*
X001192Y020980D01*
X001040Y020828D01*
X000958Y020630D01*
X000958Y020415D01*
X001040Y020216D01*
X001192Y020064D01*
X001294Y020022D01*
X001192Y019980D01*
X001040Y019828D01*
X000958Y019630D01*
X000958Y019415D01*
X001040Y019216D01*
X001192Y019064D01*
X001294Y019022D01*
X001192Y018980D01*
X001040Y018828D01*
X000958Y018630D01*
X000958Y018415D01*
X001040Y018216D01*
X001192Y018064D01*
X001294Y018022D01*
X001192Y017980D01*
X001040Y017828D01*
X000958Y017630D01*
X000958Y017415D01*
X001040Y017216D01*
X001192Y017064D01*
X001294Y017022D01*
X001192Y016980D01*
X001040Y016828D01*
X000958Y016630D01*
X000958Y016415D01*
X001040Y016216D01*
X001192Y016064D01*
X001294Y016022D01*
X001192Y015980D01*
X001040Y015828D01*
X000958Y015630D01*
X000958Y015415D01*
X001040Y015216D01*
X001192Y015064D01*
X001294Y015022D01*
X001192Y014980D01*
X001040Y014828D01*
X000958Y014630D01*
X000958Y014415D01*
X001040Y014216D01*
X001192Y014064D01*
X001294Y014022D01*
X001192Y013980D01*
X001040Y013828D01*
X000958Y013630D01*
X000958Y013415D01*
X001040Y013216D01*
X001192Y013064D01*
X001294Y013022D01*
X001192Y012980D01*
X001040Y012828D01*
X000958Y012630D01*
X000958Y012415D01*
X001040Y012216D01*
X001192Y012064D01*
X001197Y012062D01*
X001057Y012062D01*
X000958Y011963D01*
X000958Y011082D01*
X001057Y010982D01*
X001250Y010982D01*
X001203Y010963D01*
X001057Y010817D01*
X000978Y010626D01*
X000978Y010572D01*
X001448Y010572D01*
X001448Y010472D01*
X000978Y010472D01*
X000978Y010419D01*
X001057Y010228D01*
X001203Y010081D01*
X001320Y010033D01*
X001192Y009980D01*
X001040Y009828D01*
X000958Y009630D01*
X000958Y009415D01*
X001040Y009216D01*
X001192Y009064D01*
X001390Y008982D01*
X001605Y008982D01*
X001804Y009064D01*
X001956Y009216D01*
X001995Y009312D01*
X005411Y009312D01*
X005828Y008895D01*
X005828Y007489D01*
X005828Y007315D01*
X006148Y006995D01*
X006271Y006872D01*
X006677Y006872D01*
X006679Y006870D01*
X006708Y006870D01*
X006733Y006856D01*
X006752Y006862D01*
X006708Y006756D01*
X006708Y006609D01*
X006764Y006473D01*
X006868Y006369D01*
X007004Y006312D01*
X007021Y006312D01*
X007021Y006072D01*
X007396Y006072D01*
X007396Y005972D01*
X007021Y005972D01*
X007021Y005645D01*
X007109Y005557D01*
X007397Y005557D01*
X007397Y005972D01*
X007496Y005972D01*
X007496Y005557D01*
X007784Y005557D01*
X007872Y005645D01*
X007872Y005972D01*
X007497Y005972D01*
X007497Y006072D01*
X007872Y006072D01*
X007872Y006399D01*
X007784Y006487D01*
X007496Y006487D01*
X007496Y006072D01*
X007397Y006072D01*
X007397Y006485D01*
X007448Y006609D01*
X007448Y006756D01*
X007391Y006892D01*
X007353Y006930D01*
X007392Y006969D01*
X007392Y007327D01*
X007293Y007426D01*
X006679Y007426D01*
X006580Y007327D01*
X006580Y007292D01*
X006445Y007292D01*
X006248Y007489D01*
X006248Y008835D01*
X006278Y008865D01*
X006278Y008865D01*
X006365Y008952D01*
X007748Y008952D01*
X007748Y008754D01*
X007739Y008743D01*
X007748Y008669D01*
X007748Y008595D01*
X007758Y008585D01*
X007760Y008570D01*
X007777Y008557D01*
X007777Y008255D01*
X007857Y008174D01*
X007703Y008174D01*
X007603Y008075D01*
X007603Y007718D01*
X007626Y007695D01*
X007623Y007693D01*
X007623Y007526D01*
X008005Y007526D01*
X008005Y007518D01*
X007623Y007518D01*
X007623Y007352D01*
X007626Y007349D01*
X007603Y007327D01*
X007603Y006969D01*
X007703Y006870D01*
X008169Y006870D01*
X008210Y006855D01*
X008241Y006870D01*
X008316Y006870D01*
X008319Y006872D01*
X008468Y006872D01*
X008468Y006507D01*
X008203Y006507D01*
X008103Y006408D01*
X008103Y005637D01*
X008203Y005537D01*
X008228Y005537D01*
X008228Y004769D01*
X008111Y004652D01*
X007528Y004652D01*
X007528Y004701D01*
X007554Y004675D01*
X007784Y004675D01*
X007784Y004974D01*
X007881Y004974D01*
X007881Y005071D01*
X007784Y005071D01*
X007784Y005369D01*
X007554Y005369D01*
X007512Y005327D01*
X007450Y005389D01*
X006876Y005389D01*
X006777Y005289D01*
X006777Y005242D01*
X006589Y005242D01*
X006218Y005613D01*
X006218Y006113D01*
X006089Y006242D01*
X005089Y007242D01*
X004907Y007242D01*
X003089Y007242D01*
X002718Y007613D01*
X002718Y007624D01*
X003119Y007624D01*
X003219Y007723D01*
X003219Y008809D01*
X003119Y008909D01*
X001876Y008909D01*
X001777Y008809D01*
X001777Y007723D01*
X001876Y007624D01*
X002278Y007624D01*
X002278Y007613D01*
X002278Y007431D01*
X002778Y006931D01*
X002907Y006802D01*
X004907Y006802D01*
X005778Y005931D01*
X005778Y005613D01*
X005778Y005431D01*
X006278Y004931D01*
X006407Y004802D01*
X006777Y004802D01*
X006777Y004755D01*
X006876Y004655D01*
X007108Y004655D01*
X007108Y004529D01*
X005231Y002652D01*
X005231Y002652D01*
X004630Y002052D01*
X004605Y002062D01*
X004390Y002062D01*
X004192Y001980D01*
X004040Y001828D01*
X003987Y001700D01*
X003939Y001817D01*
X003792Y001963D01*
X003601Y002042D01*
X003548Y002042D01*
X003548Y001572D01*
X003448Y001572D01*
X003448Y001472D01*
X002978Y001472D01*
X002978Y001419D01*
X003051Y001242D01*
X002030Y001242D01*
X002229Y001409D01*
X002395Y001696D01*
X002452Y002022D01*
X002395Y002349D01*
X002229Y002636D01*
X001975Y002849D01*
X001664Y002962D01*
X001585Y002962D01*
X001498Y002962D01*
X001482Y002962D01*
X001411Y002962D01*
X001332Y002962D01*
X001021Y002849D01*
X000767Y002636D01*
X000767Y002636D01*
X000718Y002551D01*
X000718Y002639D02*
X000770Y002639D01*
X000767Y002636D02*
X000767Y002636D01*
X000718Y002737D02*
X000888Y002737D01*
X001005Y002836D02*
X000718Y002836D01*
X000718Y002934D02*
X001256Y002934D01*
X001332Y002962D02*
X001332Y002962D01*
X001740Y002934D02*
X003137Y002934D01*
X003131Y002949D02*
X003187Y002814D01*
X003290Y002711D01*
X003425Y002655D01*
X003571Y002655D01*
X003706Y002711D01*
X003809Y002814D01*
X003865Y002949D01*
X003865Y003095D01*
X003809Y003230D01*
X004212Y003230D01*
X004198Y003244D02*
X004286Y003156D01*
X004849Y003156D01*
X004849Y003728D01*
X004198Y003728D01*
X004198Y003244D01*
X004198Y003329D02*
X003710Y003329D01*
X003706Y003333D02*
X003571Y003389D01*
X003425Y003389D01*
X003290Y003333D01*
X003187Y003230D01*
X003185Y003230D01*
X003187Y003230D02*
X003131Y003095D01*
X003131Y002949D01*
X003131Y003033D02*
X000718Y003033D01*
X000718Y003131D02*
X003146Y003131D01*
X003111Y003156D02*
X003199Y003244D01*
X003199Y003728D01*
X002548Y003728D01*
X002548Y003828D01*
X003199Y003828D01*
X003199Y004313D01*
X003111Y004401D01*
X002548Y004401D01*
X002548Y003828D01*
X002448Y003828D01*
X002448Y004401D01*
X001884Y004401D01*
X001797Y004313D01*
X001797Y003828D01*
X002448Y003828D01*
X002448Y003728D01*
X002548Y003728D01*
X002548Y003156D01*
X003111Y003156D01*
X003199Y003329D02*
X003285Y003329D01*
X003199Y003427D02*
X004198Y003427D01*
X004198Y003526D02*
X003199Y003526D01*
X003199Y003624D02*
X004198Y003624D01*
X004198Y003723D02*
X003199Y003723D01*
X003199Y003920D02*
X004198Y003920D01*
X004198Y003828D02*
X004849Y003828D01*
X004849Y003728D01*
X004949Y003728D01*
X004949Y003156D01*
X005513Y003156D01*
X005601Y003244D01*
X005601Y003728D01*
X004949Y003728D01*
X004949Y003828D01*
X004849Y003828D01*
X004849Y004401D01*
X004286Y004401D01*
X004198Y004313D01*
X004198Y003828D01*
X004198Y004018D02*
X003199Y004018D01*
X003199Y004117D02*
X004198Y004117D01*
X004198Y004215D02*
X003199Y004215D01*
X003198Y004314D02*
X004199Y004314D01*
X003706Y003333D02*
X003809Y003230D01*
X003850Y003131D02*
X005710Y003131D01*
X005612Y003033D02*
X003865Y003033D01*
X003858Y002934D02*
X005513Y002934D01*
X005414Y002836D02*
X003818Y002836D01*
X003732Y002737D02*
X005316Y002737D01*
X005217Y002639D02*
X002225Y002639D01*
X002284Y002540D02*
X005119Y002540D01*
X005020Y002442D02*
X002341Y002442D01*
X002395Y002349D02*
X002395Y002349D01*
X002396Y002343D02*
X004922Y002343D01*
X004823Y002245D02*
X002413Y002245D01*
X002430Y002146D02*
X004725Y002146D01*
X005023Y001850D02*
X006091Y001850D01*
X005992Y001752D02*
X004987Y001752D01*
X004969Y001796D02*
X005528Y002355D01*
X005528Y002355D01*
X007405Y004232D01*
X008111Y004232D01*
X008285Y004232D01*
X008525Y004472D01*
X008548Y004495D01*
X008548Y004369D01*
X007411Y003232D01*
X007288Y003109D01*
X007288Y003062D01*
X007274Y003062D01*
X006998Y002786D01*
X006721Y003062D01*
X006274Y003062D01*
X005958Y002746D01*
X005958Y002299D01*
X006248Y002008D01*
X005978Y001738D01*
X005978Y001572D01*
X006448Y001572D01*
X006448Y001472D01*
X005978Y001472D01*
X005978Y001307D01*
X006042Y001242D01*
X004966Y001242D01*
X005038Y001415D01*
X005038Y001630D01*
X004969Y001796D01*
X005028Y001653D02*
X005978Y001653D01*
X005978Y001456D02*
X005038Y001456D01*
X005038Y001555D02*
X006448Y001555D01*
X006189Y001949D02*
X005121Y001949D01*
X005220Y002047D02*
X006209Y002047D01*
X006110Y002146D02*
X005319Y002146D01*
X005417Y002245D02*
X006012Y002245D01*
X005958Y002343D02*
X005516Y002343D01*
X005614Y002442D02*
X005958Y002442D01*
X005958Y002540D02*
X005713Y002540D01*
X005811Y002639D02*
X005958Y002639D01*
X005958Y002737D02*
X005910Y002737D01*
X006008Y002836D02*
X006048Y002836D01*
X006107Y002934D02*
X006146Y002934D01*
X006205Y003033D02*
X006245Y003033D01*
X006304Y003131D02*
X007310Y003131D01*
X007245Y003033D02*
X006751Y003033D01*
X006849Y002934D02*
X007146Y002934D01*
X007048Y002836D02*
X006948Y002836D01*
X006600Y003427D02*
X007606Y003427D01*
X007704Y003526D02*
X006698Y003526D01*
X006797Y003624D02*
X007803Y003624D01*
X007901Y003723D02*
X006895Y003723D01*
X006994Y003821D02*
X008000Y003821D01*
X008098Y003920D02*
X007092Y003920D01*
X007191Y004018D02*
X008197Y004018D01*
X008296Y004117D02*
X007289Y004117D01*
X007388Y004215D02*
X008394Y004215D01*
X008367Y004314D02*
X008493Y004314D01*
X008465Y004413D02*
X008548Y004413D01*
X008228Y004807D02*
X008199Y004807D01*
X008199Y004763D02*
X008199Y004974D01*
X007881Y004974D01*
X007881Y004675D01*
X008111Y004675D01*
X008199Y004763D01*
X008167Y004708D02*
X008144Y004708D01*
X008199Y004905D02*
X008228Y004905D01*
X008228Y005004D02*
X007881Y005004D01*
X007881Y005071D02*
X008199Y005071D01*
X008199Y005281D01*
X008111Y005369D01*
X007881Y005369D01*
X007881Y005071D01*
X007881Y005102D02*
X007784Y005102D01*
X007784Y005201D02*
X007881Y005201D01*
X007881Y005299D02*
X007784Y005299D01*
X007822Y005595D02*
X008145Y005595D01*
X008103Y005694D02*
X007872Y005694D01*
X007872Y005792D02*
X008103Y005792D01*
X008103Y005891D02*
X007872Y005891D01*
X007872Y006088D02*
X008103Y006088D01*
X008103Y006186D02*
X007872Y006186D01*
X007872Y006285D02*
X008103Y006285D01*
X008103Y006383D02*
X007872Y006383D01*
X007790Y006482D02*
X008178Y006482D01*
X008468Y006580D02*
X007436Y006580D01*
X007448Y006679D02*
X008468Y006679D01*
X008468Y006778D02*
X007439Y006778D01*
X007398Y006876D02*
X007697Y006876D01*
X007603Y006975D02*
X007392Y006975D01*
X007392Y007073D02*
X007603Y007073D01*
X007603Y007172D02*
X007392Y007172D01*
X007392Y007270D02*
X007603Y007270D01*
X007623Y007369D02*
X007350Y007369D01*
X007293Y007618D02*
X007392Y007718D01*
X007392Y008075D01*
X007293Y008174D01*
X006969Y008174D01*
X007012Y008217D01*
X007054Y008175D01*
X007284Y008175D01*
X007284Y008474D01*
X007381Y008474D01*
X007381Y008571D01*
X007284Y008571D01*
X007284Y008869D01*
X007054Y008869D01*
X007012Y008827D01*
X006950Y008889D01*
X006376Y008889D01*
X006277Y008789D01*
X006277Y008255D01*
X006376Y008155D01*
X006548Y008155D01*
X006548Y007992D01*
X006532Y007937D01*
X006548Y007908D01*
X006548Y007875D01*
X006580Y007843D01*
X006580Y007718D01*
X006679Y007618D01*
X007293Y007618D01*
X007339Y007664D02*
X007623Y007664D01*
X007623Y007566D02*
X006248Y007566D01*
X006248Y007664D02*
X006633Y007664D01*
X006580Y007763D02*
X006248Y007763D01*
X006248Y007862D02*
X006561Y007862D01*
X006539Y007960D02*
X006248Y007960D01*
X006248Y008059D02*
X006548Y008059D01*
X006374Y008157D02*
X006248Y008157D01*
X006248Y008256D02*
X006277Y008256D01*
X006277Y008354D02*
X006248Y008354D01*
X006248Y008453D02*
X006277Y008453D01*
X006277Y008551D02*
X006248Y008551D01*
X006248Y008650D02*
X006277Y008650D01*
X006277Y008748D02*
X006248Y008748D01*
X006260Y008847D02*
X006334Y008847D01*
X006358Y008946D02*
X007748Y008946D01*
X007748Y008847D02*
X007633Y008847D01*
X007611Y008869D02*
X007699Y008781D01*
X007699Y008571D01*
X007381Y008571D01*
X007381Y008869D01*
X007611Y008869D01*
X007699Y008748D02*
X007743Y008748D01*
X007748Y008650D02*
X007699Y008650D01*
X007777Y008551D02*
X007381Y008551D01*
X007381Y008474D02*
X007699Y008474D01*
X007699Y008263D01*
X007611Y008175D01*
X007381Y008175D01*
X007381Y008474D01*
X007381Y008453D02*
X007284Y008453D01*
X007284Y008354D02*
X007381Y008354D01*
X007381Y008256D02*
X007284Y008256D01*
X007310Y008157D02*
X007686Y008157D01*
X007691Y008256D02*
X007777Y008256D01*
X007777Y008354D02*
X007699Y008354D01*
X007699Y008453D02*
X007777Y008453D01*
X007603Y008059D02*
X007392Y008059D01*
X007392Y007960D02*
X007603Y007960D01*
X007603Y007862D02*
X007392Y007862D01*
X007392Y007763D02*
X007603Y007763D01*
X007623Y007467D02*
X006270Y007467D01*
X006368Y007369D02*
X006622Y007369D01*
X006717Y006778D02*
X005554Y006778D01*
X005652Y006679D02*
X006708Y006679D01*
X006719Y006580D02*
X005751Y006580D01*
X005849Y006482D02*
X006760Y006482D01*
X006853Y006383D02*
X005948Y006383D01*
X006046Y006285D02*
X007021Y006285D01*
X007021Y006186D02*
X006145Y006186D01*
X006218Y006088D02*
X007021Y006088D01*
X007021Y005891D02*
X006218Y005891D01*
X006218Y005989D02*
X007396Y005989D01*
X007397Y005891D02*
X007496Y005891D01*
X007497Y005989D02*
X008103Y005989D01*
X008228Y005496D02*
X006335Y005496D01*
X006433Y005398D02*
X008228Y005398D01*
X008228Y005299D02*
X008181Y005299D01*
X008199Y005201D02*
X008228Y005201D01*
X008228Y005102D02*
X008199Y005102D01*
X007881Y004905D02*
X007784Y004905D01*
X007784Y004807D02*
X007881Y004807D01*
X007881Y004708D02*
X007784Y004708D01*
X007496Y005595D02*
X007397Y005595D01*
X007397Y005694D02*
X007496Y005694D01*
X007496Y005792D02*
X007397Y005792D01*
X007397Y006088D02*
X007496Y006088D01*
X007496Y006186D02*
X007397Y006186D01*
X007397Y006285D02*
X007496Y006285D01*
X007496Y006383D02*
X007397Y006383D01*
X007397Y006482D02*
X007496Y006482D01*
X007021Y005792D02*
X006218Y005792D01*
X006218Y005694D02*
X007021Y005694D01*
X007071Y005595D02*
X006236Y005595D01*
X005998Y005522D02*
X006498Y005022D01*
X007163Y005022D01*
X007108Y004610D02*
X000718Y004610D01*
X000718Y004708D02*
X006823Y004708D01*
X006991Y004413D02*
X000718Y004413D01*
X000718Y004511D02*
X007090Y004511D01*
X006893Y004314D02*
X005599Y004314D01*
X005601Y004313D02*
X005513Y004401D01*
X004949Y004401D01*
X004949Y003828D01*
X005601Y003828D01*
X005601Y004313D01*
X005601Y004215D02*
X006794Y004215D01*
X006696Y004117D02*
X005601Y004117D01*
X005601Y004018D02*
X006597Y004018D01*
X006498Y003920D02*
X005601Y003920D01*
X005601Y003723D02*
X006301Y003723D01*
X006203Y003624D02*
X005601Y003624D01*
X005601Y003526D02*
X006104Y003526D01*
X006006Y003427D02*
X005601Y003427D01*
X005601Y003329D02*
X005907Y003329D01*
X005809Y003230D02*
X005587Y003230D01*
X004949Y003230D02*
X004849Y003230D01*
X004849Y003329D02*
X004949Y003329D01*
X004949Y003427D02*
X004849Y003427D01*
X004849Y003526D02*
X004949Y003526D01*
X004949Y003624D02*
X004849Y003624D01*
X004849Y003723D02*
X004949Y003723D01*
X004949Y003821D02*
X006400Y003821D01*
X006501Y003329D02*
X007507Y003329D01*
X007409Y003230D02*
X006403Y003230D01*
X006402Y004807D02*
X000718Y004807D01*
X000718Y004905D02*
X006304Y004905D01*
X006205Y005004D02*
X000718Y005004D01*
X000718Y005102D02*
X006107Y005102D01*
X006008Y005201D02*
X000718Y005201D01*
X000718Y005299D02*
X005909Y005299D01*
X005811Y005398D02*
X000718Y005398D01*
X000718Y005496D02*
X005778Y005496D01*
X005778Y005595D02*
X004534Y005595D01*
X004572Y005611D02*
X004394Y005537D01*
X004201Y005537D01*
X004023Y005611D01*
X003887Y005747D01*
X003813Y005926D01*
X003813Y006119D01*
X003887Y006297D01*
X004023Y006433D01*
X004201Y006507D01*
X004394Y006507D01*
X004572Y006433D01*
X004709Y006297D01*
X004783Y006119D01*
X004783Y005926D01*
X004709Y005747D01*
X004572Y005611D01*
X004655Y005694D02*
X005778Y005694D01*
X005778Y005792D02*
X004727Y005792D01*
X004768Y005891D02*
X005778Y005891D01*
X005720Y005989D02*
X004783Y005989D01*
X004783Y006088D02*
X005621Y006088D01*
X005523Y006186D02*
X004755Y006186D01*
X004714Y006285D02*
X005424Y006285D01*
X005325Y006383D02*
X004622Y006383D01*
X004455Y006482D02*
X005227Y006482D01*
X005128Y006580D02*
X000718Y006580D01*
X000718Y006482D02*
X002340Y006482D01*
X002401Y006507D02*
X002223Y006433D01*
X002087Y006297D01*
X002013Y006119D01*
X002013Y005926D01*
X002087Y005747D01*
X002223Y005611D01*
X002401Y005537D01*
X002594Y005537D01*
X002772Y005611D01*
X002909Y005747D01*
X002983Y005926D01*
X002983Y006119D01*
X002909Y006297D01*
X002772Y006433D01*
X002594Y006507D01*
X002401Y006507D01*
X002173Y006383D02*
X000718Y006383D01*
X000718Y006285D02*
X002082Y006285D01*
X002041Y006186D02*
X000718Y006186D01*
X000718Y006088D02*
X002013Y006088D01*
X002013Y005989D02*
X000718Y005989D01*
X000718Y005891D02*
X002027Y005891D01*
X002068Y005792D02*
X000718Y005792D01*
X000718Y005694D02*
X002141Y005694D01*
X002262Y005595D02*
X000718Y005595D01*
X000718Y006679D02*
X005030Y006679D01*
X004931Y006778D02*
X000718Y006778D01*
X000718Y006876D02*
X002833Y006876D01*
X002734Y006975D02*
X000718Y006975D01*
X000718Y007073D02*
X002636Y007073D01*
X002537Y007172D02*
X000718Y007172D01*
X000718Y007270D02*
X002439Y007270D01*
X002340Y007369D02*
X000718Y007369D01*
X000718Y007467D02*
X002278Y007467D01*
X002278Y007566D02*
X000718Y007566D01*
X000718Y007664D02*
X001836Y007664D01*
X001777Y007763D02*
X000718Y007763D01*
X000718Y007862D02*
X001777Y007862D01*
X001777Y007960D02*
X000718Y007960D01*
X000718Y008059D02*
X001777Y008059D01*
X001777Y008157D02*
X000718Y008157D01*
X000718Y008256D02*
X001777Y008256D01*
X001777Y008354D02*
X000718Y008354D01*
X000718Y008453D02*
X001777Y008453D01*
X001777Y008551D02*
X000718Y008551D01*
X000718Y008650D02*
X001777Y008650D01*
X001777Y008748D02*
X000718Y008748D01*
X000718Y008847D02*
X001814Y008847D01*
X001754Y009044D02*
X005679Y009044D01*
X005777Y008946D02*
X000718Y008946D01*
X000718Y009044D02*
X001241Y009044D01*
X001114Y009143D02*
X000718Y009143D01*
X000718Y009241D02*
X001030Y009241D01*
X000989Y009340D02*
X000718Y009340D01*
X000718Y009438D02*
X000958Y009438D01*
X000958Y009537D02*
X000718Y009537D01*
X000718Y009635D02*
X000960Y009635D01*
X001001Y009734D02*
X000718Y009734D01*
X000718Y009832D02*
X001044Y009832D01*
X001143Y009931D02*
X000718Y009931D01*
X000718Y010029D02*
X001311Y010029D01*
X001157Y010128D02*
X000718Y010128D01*
X000718Y010227D02*
X001058Y010227D01*
X001017Y010325D02*
X000718Y010325D01*
X000718Y010424D02*
X000978Y010424D01*
X000978Y010621D02*
X000718Y010621D01*
X000718Y010719D02*
X001017Y010719D01*
X001058Y010818D02*
X000718Y010818D01*
X000718Y010916D02*
X001157Y010916D01*
X001025Y011015D02*
X000718Y011015D01*
X000718Y011113D02*
X000958Y011113D01*
X000958Y011212D02*
X000718Y011212D01*
X000718Y011311D02*
X000958Y011311D01*
X000958Y011409D02*
X000718Y011409D01*
X000718Y011508D02*
X000958Y011508D01*
X000958Y011606D02*
X000718Y011606D01*
X000718Y011705D02*
X000958Y011705D01*
X000958Y011803D02*
X000718Y011803D01*
X000718Y011902D02*
X000958Y011902D01*
X000996Y012000D02*
X000718Y012000D01*
X000718Y012099D02*
X001157Y012099D01*
X001059Y012197D02*
X000718Y012197D01*
X000718Y012296D02*
X001007Y012296D01*
X000966Y012395D02*
X000718Y012395D01*
X000718Y012493D02*
X000958Y012493D01*
X000958Y012592D02*
X000718Y012592D01*
X000718Y012690D02*
X000983Y012690D01*
X001024Y012789D02*
X000718Y012789D01*
X000718Y012887D02*
X001099Y012887D01*
X001206Y012986D02*
X000718Y012986D01*
X000718Y013084D02*
X001172Y013084D01*
X001073Y013183D02*
X000718Y013183D01*
X000718Y013281D02*
X001013Y013281D01*
X000972Y013380D02*
X000718Y013380D01*
X000718Y013479D02*
X000958Y013479D01*
X000958Y013577D02*
X000718Y013577D01*
X000718Y013676D02*
X000977Y013676D01*
X001018Y013774D02*
X000718Y013774D01*
X000718Y013873D02*
X001085Y013873D01*
X001183Y013971D02*
X000718Y013971D01*
X000718Y014070D02*
X001187Y014070D01*
X001088Y014168D02*
X000718Y014168D01*
X000718Y014267D02*
X001019Y014267D01*
X000978Y014365D02*
X000718Y014365D01*
X000718Y014464D02*
X000958Y014464D01*
X000958Y014562D02*
X000718Y014562D01*
X000718Y014661D02*
X000971Y014661D01*
X001012Y014760D02*
X000718Y014760D01*
X000718Y014858D02*
X001070Y014858D01*
X001169Y014957D02*
X000718Y014957D01*
X000718Y015055D02*
X001214Y015055D01*
X001103Y015154D02*
X000718Y015154D01*
X000718Y015252D02*
X001025Y015252D01*
X000984Y015351D02*
X000718Y015351D01*
X000718Y015449D02*
X000958Y015449D01*
X000958Y015548D02*
X000718Y015548D01*
X000718Y015646D02*
X000965Y015646D01*
X001006Y015745D02*
X000718Y015745D01*
X000718Y015844D02*
X001055Y015844D01*
X001154Y015942D02*
X000718Y015942D01*
X000718Y016041D02*
X001249Y016041D01*
X001117Y016139D02*
X000718Y016139D01*
X000718Y016238D02*
X001031Y016238D01*
X000990Y016336D02*
X000718Y016336D01*
X000718Y016435D02*
X000958Y016435D01*
X000958Y016533D02*
X000718Y016533D01*
X000718Y016632D02*
X000959Y016632D01*
X001000Y016730D02*
X000718Y016730D01*
X000718Y016829D02*
X001041Y016829D01*
X001139Y016928D02*
X000718Y016928D01*
X000718Y017026D02*
X001284Y017026D01*
X001132Y017125D02*
X000718Y017125D01*
X000718Y017223D02*
X001037Y017223D01*
X000996Y017322D02*
X000718Y017322D01*
X000718Y017420D02*
X000958Y017420D01*
X000958Y017519D02*
X000718Y017519D01*
X000718Y017617D02*
X000958Y017617D01*
X000994Y017716D02*
X000718Y017716D01*
X000718Y017814D02*
X001034Y017814D01*
X001125Y017913D02*
X000718Y017913D01*
X000718Y018011D02*
X001268Y018011D01*
X001146Y018110D02*
X000718Y018110D01*
X000718Y018209D02*
X001048Y018209D01*
X001002Y018307D02*
X000718Y018307D01*
X000718Y018406D02*
X000962Y018406D01*
X000958Y018504D02*
X000718Y018504D01*
X000718Y018603D02*
X000958Y018603D01*
X000988Y018701D02*
X000718Y018701D01*
X000718Y018800D02*
X001028Y018800D01*
X001110Y018898D02*
X000718Y018898D01*
X000718Y018997D02*
X001233Y018997D01*
X001161Y019095D02*
X000718Y019095D01*
X000718Y019194D02*
X001062Y019194D01*
X001008Y019293D02*
X000718Y019293D01*
X000718Y019391D02*
X000968Y019391D01*
X000958Y019490D02*
X000718Y019490D01*
X000718Y019588D02*
X000958Y019588D01*
X000981Y019687D02*
X000718Y019687D01*
X000718Y019785D02*
X001022Y019785D01*
X001096Y019884D02*
X000718Y019884D01*
X000718Y019982D02*
X001198Y019982D01*
X001175Y020081D02*
X000718Y020081D01*
X000718Y020179D02*
X001077Y020179D01*
X001014Y020278D02*
X000718Y020278D01*
X000718Y020377D02*
X000974Y020377D01*
X000958Y020475D02*
X000718Y020475D01*
X000718Y020574D02*
X000958Y020574D01*
X000975Y020672D02*
X000718Y020672D01*
X000718Y020771D02*
X001016Y020771D01*
X001081Y020869D02*
X000718Y020869D01*
X000718Y020968D02*
X001180Y020968D01*
X001190Y021066D02*
X000718Y021066D01*
X000718Y021165D02*
X001091Y021165D01*
X001020Y021263D02*
X000718Y021263D01*
X000718Y021362D02*
X000980Y021362D01*
X000958Y021461D02*
X000718Y021461D01*
X000718Y021559D02*
X000958Y021559D01*
X000969Y021658D02*
X000718Y021658D01*
X000718Y021756D02*
X001010Y021756D01*
X001067Y021855D02*
X000718Y021855D01*
X000718Y021953D02*
X001165Y021953D01*
X001222Y022052D02*
X000718Y022052D01*
X000718Y022150D02*
X001106Y022150D01*
X001026Y022249D02*
X000718Y022249D01*
X000718Y022347D02*
X000986Y022347D01*
X000958Y022446D02*
X000718Y022446D01*
X000718Y022544D02*
X000958Y022544D01*
X000963Y022643D02*
X000718Y022643D01*
X000718Y022742D02*
X001004Y022742D01*
X001052Y022840D02*
X000718Y022840D01*
X000718Y022939D02*
X001151Y022939D01*
X001258Y023037D02*
X000718Y023037D01*
X000718Y023136D02*
X001121Y023136D01*
X001033Y023234D02*
X000718Y023234D01*
X000718Y023333D02*
X000992Y023333D01*
X000958Y023431D02*
X000718Y023431D01*
X000718Y023530D02*
X000958Y023530D01*
X000958Y023628D02*
X000718Y023628D01*
X000718Y023727D02*
X000998Y023727D01*
X001039Y023826D02*
X000718Y023826D01*
X000718Y023924D02*
X001136Y023924D01*
X001293Y024023D02*
X000718Y024023D01*
X000718Y024121D02*
X001135Y024121D01*
X001039Y024220D02*
X000718Y024220D01*
X000718Y024318D02*
X000998Y024318D01*
X000958Y024417D02*
X000718Y024417D01*
X000718Y024515D02*
X000958Y024515D01*
X000958Y024614D02*
X000718Y024614D01*
X000718Y024712D02*
X000992Y024712D01*
X001033Y024811D02*
X000718Y024811D01*
X000718Y024910D02*
X001121Y024910D01*
X001260Y025008D02*
X000718Y025008D01*
X003565Y023752D02*
X003591Y023752D01*
X003727Y023809D01*
X003777Y023858D01*
X003777Y023755D01*
X003876Y023655D01*
X004450Y023655D01*
X004498Y023703D01*
X004545Y023655D01*
X004622Y023655D01*
X004622Y023651D01*
X004828Y023445D01*
X004828Y023299D01*
X004884Y023163D01*
X004988Y023059D01*
X005124Y023002D01*
X005271Y023002D01*
X005407Y023059D01*
X005484Y023135D01*
X005549Y023069D01*
X005819Y023069D01*
X005819Y023348D01*
X005877Y023348D01*
X005877Y023405D01*
X006234Y023405D01*
X006449Y023405D01*
X006449Y023308D01*
X006234Y023308D01*
X006234Y023348D01*
X005877Y023348D01*
X005877Y023069D01*
X006146Y023069D01*
X006153Y023076D01*
X006193Y023036D01*
X006152Y022995D01*
X005541Y022995D01*
X005442Y022896D01*
X005442Y022440D01*
X005541Y022340D01*
X005883Y022340D01*
X006461Y021762D01*
X006511Y021712D01*
X006599Y021624D01*
X006599Y021562D01*
X006555Y021562D01*
X006535Y021582D01*
X006428Y021582D01*
X006428Y021689D01*
X006308Y021809D01*
X006185Y021932D01*
X005385Y021932D01*
X005135Y022182D01*
X005085Y022232D01*
X003565Y023752D01*
X003590Y023727D02*
X003805Y023727D01*
X003777Y023826D02*
X003744Y023826D01*
X003688Y023628D02*
X004645Y023628D01*
X004743Y023530D02*
X003787Y023530D01*
X003886Y023431D02*
X004828Y023431D01*
X004828Y023333D02*
X003984Y023333D01*
X004083Y023234D02*
X004854Y023234D01*
X004911Y023136D02*
X004181Y023136D01*
X004280Y023037D02*
X005040Y023037D01*
X005356Y023037D02*
X006192Y023037D01*
X006234Y023333D02*
X006449Y023333D01*
X006449Y023406D02*
X006449Y023723D01*
X006239Y023723D01*
X006173Y023657D01*
X006146Y023684D01*
X005877Y023684D01*
X005877Y023406D01*
X005819Y023406D01*
X005819Y023684D01*
X005549Y023684D01*
X005479Y023614D01*
X005407Y023686D01*
X005271Y023742D01*
X005206Y023742D01*
X005219Y023755D01*
X005219Y023841D01*
X005239Y023821D01*
X005449Y023821D01*
X005449Y024139D01*
X005219Y024139D01*
X005219Y024236D01*
X005449Y024236D01*
X005449Y024139D01*
X005546Y024139D01*
X005546Y023821D01*
X005757Y023821D01*
X005845Y023909D01*
X005845Y024139D01*
X005546Y024139D01*
X005546Y024236D01*
X005845Y024236D01*
X005845Y024466D01*
X005803Y024508D01*
X005865Y024570D01*
X005865Y025022D01*
X012561Y025022D01*
X009951Y022412D01*
X009921Y022382D01*
X009861Y022382D01*
X009818Y022382D01*
X009845Y022409D01*
X009845Y022639D01*
X009546Y022639D01*
X009546Y022736D01*
X009845Y022736D01*
X009845Y022966D01*
X009803Y023008D01*
X009865Y023070D01*
X009865Y023644D01*
X009765Y023743D01*
X009270Y023743D01*
X009270Y023762D01*
X009171Y023861D01*
X008282Y023861D01*
X008182Y023762D01*
X008182Y023682D01*
X008035Y023682D01*
X007861Y023682D01*
X007813Y023635D01*
X007813Y023762D01*
X007714Y023861D01*
X006825Y023861D01*
X006725Y023762D01*
X006725Y023723D01*
X006546Y023723D01*
X006546Y023406D01*
X006449Y023406D01*
X006449Y023431D02*
X006546Y023431D01*
X006546Y023530D02*
X006449Y023530D01*
X006449Y023628D02*
X006546Y023628D01*
X006725Y023727D02*
X005308Y023727D01*
X005234Y023826D02*
X005219Y023826D01*
X005449Y023826D02*
X005546Y023826D01*
X005546Y023924D02*
X005449Y023924D01*
X005449Y024023D02*
X005546Y024023D01*
X005546Y024121D02*
X005449Y024121D01*
X005449Y024220D02*
X005219Y024220D01*
X005151Y024357D02*
X005119Y024389D01*
X004545Y024389D01*
X004498Y024341D01*
X004450Y024389D01*
X004448Y024389D01*
X004448Y024597D01*
X004517Y024597D01*
X004517Y024825D01*
X004518Y024825D01*
X004518Y024826D01*
X004517Y024826D01*
X004517Y025022D01*
X004518Y025022D01*
X004518Y024826D01*
X004550Y024826D01*
X004550Y024825D01*
X004518Y024825D01*
X004518Y024597D01*
X004630Y024597D01*
X004650Y024577D01*
X004897Y024577D01*
X004996Y024676D01*
X004996Y024974D01*
X004972Y024999D01*
X005131Y024999D01*
X005131Y024570D01*
X005193Y024508D01*
X005151Y024466D01*
X005151Y024357D01*
X005151Y024417D02*
X004448Y024417D01*
X004448Y024515D02*
X005185Y024515D01*
X005131Y024614D02*
X004934Y024614D01*
X004996Y024712D02*
X005131Y024712D01*
X005131Y024811D02*
X004996Y024811D01*
X004996Y024910D02*
X005131Y024910D01*
X005301Y025219D02*
X005498Y025022D01*
X006198Y025722D01*
X007498Y025722D01*
X007750Y023826D02*
X008246Y023826D01*
X008182Y023727D02*
X007813Y023727D01*
X008035Y023262D02*
X008182Y023262D01*
X008182Y023188D01*
X008282Y023088D01*
X009131Y023088D01*
X009131Y023070D01*
X009193Y023008D01*
X009151Y022966D01*
X009151Y022956D01*
X008282Y022956D01*
X008182Y022856D01*
X008182Y022282D01*
X008282Y022183D01*
X008512Y022183D01*
X008174Y021845D01*
X008174Y021671D01*
X008174Y021582D01*
X008110Y021582D01*
X007870Y021582D01*
X007850Y021562D01*
X007806Y021562D01*
X007806Y021634D01*
X007806Y021984D01*
X007835Y022012D01*
X007885Y022062D01*
X008008Y022185D01*
X008008Y023035D01*
X008008Y023235D01*
X008035Y023262D01*
X008008Y023234D02*
X008182Y023234D01*
X008234Y023136D02*
X008008Y023136D01*
X008008Y023037D02*
X009164Y023037D01*
X009546Y022643D02*
X010182Y022643D01*
X010280Y022742D02*
X009845Y022742D01*
X009845Y022840D02*
X010379Y022840D01*
X010477Y022939D02*
X009845Y022939D01*
X009832Y023037D02*
X010576Y023037D01*
X010674Y023136D02*
X009865Y023136D01*
X009865Y023234D02*
X010773Y023234D01*
X010871Y023333D02*
X009865Y023333D01*
X009865Y023431D02*
X010970Y023431D01*
X011069Y023530D02*
X009865Y023530D01*
X009865Y023628D02*
X011167Y023628D01*
X011266Y023727D02*
X009781Y023727D01*
X009206Y023826D02*
X011364Y023826D01*
X011463Y023924D02*
X005845Y023924D01*
X005845Y024023D02*
X011561Y024023D01*
X011660Y024121D02*
X005845Y024121D01*
X005845Y024318D02*
X011857Y024318D01*
X011758Y024220D02*
X005546Y024220D01*
X005761Y023826D02*
X006789Y023826D01*
X005974Y022249D02*
X005068Y022249D01*
X004970Y022347D02*
X005534Y022347D01*
X005442Y022446D02*
X004871Y022446D01*
X004772Y022544D02*
X005442Y022544D01*
X005442Y022643D02*
X004674Y022643D01*
X004575Y022742D02*
X005442Y022742D01*
X005442Y022840D02*
X004477Y022840D01*
X004378Y022939D02*
X005484Y022939D01*
X005819Y023136D02*
X005877Y023136D01*
X005877Y023234D02*
X005819Y023234D01*
X005819Y023333D02*
X005877Y023333D01*
X005877Y023431D02*
X005819Y023431D01*
X005819Y023530D02*
X005877Y023530D01*
X005877Y023628D02*
X005819Y023628D01*
X005494Y023628D02*
X005465Y023628D01*
X005845Y024417D02*
X011955Y024417D01*
X012054Y024515D02*
X005810Y024515D01*
X005865Y024614D02*
X012153Y024614D01*
X012251Y024712D02*
X005865Y024712D01*
X005865Y024811D02*
X012350Y024811D01*
X012448Y024910D02*
X005865Y024910D01*
X005865Y025008D02*
X012547Y025008D01*
X010083Y022544D02*
X009845Y022544D01*
X009845Y022446D02*
X009985Y022446D01*
X009775Y020392D02*
X011791Y020392D01*
X012548Y019635D01*
X012748Y019435D01*
X012871Y019312D01*
X013458Y019312D01*
X013458Y019082D01*
X013557Y018982D01*
X013697Y018982D01*
X013692Y018980D01*
X013540Y018828D01*
X013500Y018732D01*
X012185Y018732D01*
X011985Y018732D01*
X011185Y018732D01*
X010762Y019155D01*
X011000Y019155D01*
X011062Y019217D01*
X011104Y019175D01*
X011334Y019175D01*
X011334Y019474D01*
X011431Y019474D01*
X011431Y019571D01*
X011334Y019571D01*
X011334Y019869D01*
X011104Y019869D01*
X011062Y019827D01*
X011000Y019889D01*
X010426Y019889D01*
X010352Y019815D01*
X010335Y019832D01*
X009775Y020392D01*
X009790Y020377D02*
X011806Y020377D01*
X011905Y020278D02*
X009889Y020278D01*
X009987Y020179D02*
X012004Y020179D01*
X012102Y020081D02*
X010086Y020081D01*
X010185Y019982D02*
X012201Y019982D01*
X012299Y019884D02*
X011005Y019884D01*
X011334Y019785D02*
X011431Y019785D01*
X011431Y019869D02*
X011431Y019571D01*
X011749Y019571D01*
X011749Y019781D01*
X011661Y019869D01*
X011431Y019869D01*
X011431Y019687D02*
X011334Y019687D01*
X011334Y019588D02*
X011431Y019588D01*
X011431Y019490D02*
X012693Y019490D01*
X012595Y019588D02*
X011749Y019588D01*
X011749Y019687D02*
X012496Y019687D01*
X012398Y019785D02*
X011745Y019785D01*
X011749Y019474D02*
X011431Y019474D01*
X011431Y019175D01*
X011661Y019175D01*
X011749Y019263D01*
X011749Y019474D01*
X011749Y019391D02*
X012792Y019391D01*
X013458Y019293D02*
X011749Y019293D01*
X011680Y019194D02*
X013458Y019194D01*
X013458Y019095D02*
X010821Y019095D01*
X010920Y018997D02*
X013543Y018997D01*
X013610Y018898D02*
X011019Y018898D01*
X011117Y018800D02*
X013528Y018800D01*
X011934Y016139D02*
X009978Y016139D01*
X010076Y016041D02*
X012032Y016041D01*
X012131Y015942D02*
X010175Y015942D01*
X010273Y015844D02*
X011656Y015844D01*
X011668Y015856D02*
X011564Y015752D01*
X011508Y015616D01*
X011508Y015469D01*
X011564Y015333D01*
X011668Y015229D01*
X011668Y014805D01*
X011564Y014702D01*
X011521Y014596D01*
X009523Y016594D01*
X009624Y016552D01*
X009771Y016552D01*
X009907Y016609D01*
X010011Y016713D01*
X010068Y016849D01*
X010068Y016995D01*
X010108Y017035D01*
X010108Y017209D01*
X010108Y017965D01*
X010738Y017335D01*
X012238Y015835D01*
X012238Y015640D01*
X012191Y015752D01*
X012087Y015856D01*
X011951Y015912D01*
X011804Y015912D01*
X011668Y015856D01*
X011561Y015745D02*
X010372Y015745D01*
X010470Y015646D02*
X011521Y015646D01*
X011508Y015548D02*
X010569Y015548D01*
X010668Y015449D02*
X011516Y015449D01*
X011557Y015351D02*
X010766Y015351D01*
X010865Y015252D02*
X011644Y015252D01*
X011668Y015154D02*
X010963Y015154D01*
X011062Y015055D02*
X011668Y015055D01*
X011668Y014957D02*
X011160Y014957D01*
X011259Y014858D02*
X011668Y014858D01*
X011622Y014760D02*
X011357Y014760D01*
X011456Y014661D02*
X011547Y014661D01*
X011203Y014070D02*
X009288Y014070D01*
X009288Y014168D02*
X011105Y014168D01*
X011006Y014267D02*
X009288Y014267D01*
X009288Y014321D02*
X009449Y014321D01*
X009449Y014639D01*
X009546Y014639D01*
X009546Y014321D01*
X009757Y014321D01*
X009845Y014409D01*
X009845Y014639D01*
X009546Y014639D01*
X009546Y014736D01*
X009845Y014736D01*
X009845Y014966D01*
X009803Y015008D01*
X009865Y015070D01*
X009865Y015408D01*
X011901Y013372D01*
X011804Y013372D01*
X011668Y013316D01*
X011564Y013212D01*
X011508Y013076D01*
X011508Y012929D01*
X011564Y012793D01*
X011668Y012689D01*
X011668Y012209D01*
X011668Y012035D01*
X011884Y011819D01*
X011828Y011796D01*
X011724Y011692D01*
X011668Y011556D01*
X011668Y011409D01*
X009508Y009249D01*
X009508Y009075D01*
X009508Y006129D01*
X008648Y005269D01*
X008648Y005537D01*
X008895Y005537D01*
X008995Y005637D01*
X008995Y006408D01*
X008895Y006507D01*
X008888Y006507D01*
X008888Y006915D01*
X008888Y007809D01*
X008765Y007932D01*
X008685Y008012D01*
X008511Y008012D01*
X008416Y008012D01*
X008416Y008075D01*
X008335Y008155D01*
X008450Y008155D01*
X008512Y008217D01*
X008554Y008175D01*
X008784Y008175D01*
X008784Y008474D01*
X008881Y008474D01*
X008881Y008571D01*
X008784Y008571D01*
X008784Y008869D01*
X008554Y008869D01*
X008512Y008827D01*
X008450Y008889D01*
X008168Y008889D01*
X008168Y008995D01*
X008168Y009155D01*
X009165Y010152D01*
X009288Y010275D01*
X009288Y014321D01*
X009288Y013971D02*
X011302Y013971D01*
X011400Y013873D02*
X009288Y013873D01*
X009288Y013774D02*
X011499Y013774D01*
X011597Y013676D02*
X009288Y013676D01*
X009288Y013577D02*
X011696Y013577D01*
X011795Y013479D02*
X009288Y013479D01*
X009288Y013380D02*
X011893Y013380D01*
X011634Y013281D02*
X009288Y013281D01*
X009288Y013183D02*
X011552Y013183D01*
X011511Y013084D02*
X009288Y013084D01*
X009288Y012986D02*
X011508Y012986D01*
X011525Y012887D02*
X009288Y012887D01*
X009288Y012789D02*
X011568Y012789D01*
X011667Y012690D02*
X009288Y012690D01*
X009288Y012592D02*
X011668Y012592D01*
X011668Y012493D02*
X009288Y012493D01*
X009288Y012395D02*
X011668Y012395D01*
X011668Y012296D02*
X009288Y012296D01*
X009288Y012197D02*
X011668Y012197D01*
X011668Y012099D02*
X009288Y012099D01*
X009288Y012000D02*
X011703Y012000D01*
X011801Y011902D02*
X009288Y011902D01*
X009288Y011803D02*
X011846Y011803D01*
X011737Y011705D02*
X009288Y011705D01*
X009288Y011606D02*
X011689Y011606D01*
X011668Y011508D02*
X009288Y011508D01*
X009288Y011409D02*
X011668Y011409D01*
X011569Y011311D02*
X009288Y011311D01*
X009288Y011212D02*
X011471Y011212D01*
X011372Y011113D02*
X009288Y011113D01*
X009288Y011015D02*
X011274Y011015D01*
X011175Y010916D02*
X009288Y010916D01*
X009288Y010818D02*
X011076Y010818D01*
X010978Y010719D02*
X009288Y010719D01*
X009288Y010621D02*
X010879Y010621D01*
X010781Y010522D02*
X009288Y010522D01*
X009288Y010424D02*
X010682Y010424D01*
X010584Y010325D02*
X009288Y010325D01*
X009239Y010227D02*
X010485Y010227D01*
X010387Y010128D02*
X009141Y010128D01*
X009165Y010152D02*
X009165Y010152D01*
X009042Y010029D02*
X010288Y010029D01*
X010190Y009931D02*
X008943Y009931D01*
X008845Y009832D02*
X010091Y009832D01*
X009992Y009734D02*
X008746Y009734D01*
X008648Y009635D02*
X009894Y009635D01*
X009795Y009537D02*
X008549Y009537D01*
X008451Y009438D02*
X009697Y009438D01*
X009598Y009340D02*
X008352Y009340D01*
X008254Y009241D02*
X009508Y009241D01*
X009508Y009143D02*
X008168Y009143D01*
X008168Y009044D02*
X009508Y009044D01*
X009508Y008946D02*
X008168Y008946D01*
X008492Y008847D02*
X008532Y008847D01*
X008784Y008847D02*
X008881Y008847D01*
X008881Y008869D02*
X008881Y008571D01*
X009199Y008571D01*
X009199Y008781D01*
X009111Y008869D01*
X008881Y008869D01*
X008881Y008748D02*
X008784Y008748D01*
X008784Y008650D02*
X008881Y008650D01*
X008881Y008551D02*
X009508Y008551D01*
X009508Y008453D02*
X009199Y008453D01*
X009199Y008474D02*
X008881Y008474D01*
X008881Y008175D01*
X009111Y008175D01*
X009199Y008263D01*
X009199Y008474D01*
X009199Y008354D02*
X009508Y008354D01*
X009508Y008256D02*
X009191Y008256D01*
X009199Y008650D02*
X009508Y008650D01*
X009508Y008748D02*
X009199Y008748D01*
X009133Y008847D02*
X009508Y008847D01*
X009508Y008157D02*
X008452Y008157D01*
X008416Y008059D02*
X009508Y008059D01*
X009508Y007960D02*
X008737Y007960D01*
X008835Y007862D02*
X009508Y007862D01*
X009508Y007763D02*
X008888Y007763D01*
X008888Y007664D02*
X009508Y007664D01*
X009508Y007566D02*
X008888Y007566D01*
X008888Y007467D02*
X009508Y007467D01*
X009508Y007369D02*
X008888Y007369D01*
X008888Y007270D02*
X009508Y007270D01*
X009508Y007172D02*
X008888Y007172D01*
X008888Y007073D02*
X009508Y007073D01*
X009508Y006975D02*
X008888Y006975D01*
X008888Y006876D02*
X009508Y006876D01*
X009508Y006778D02*
X008888Y006778D01*
X008888Y006679D02*
X009508Y006679D01*
X009508Y006580D02*
X008888Y006580D01*
X008920Y006482D02*
X009508Y006482D01*
X009508Y006383D02*
X008995Y006383D01*
X008995Y006285D02*
X009508Y006285D01*
X009508Y006186D02*
X008995Y006186D01*
X008995Y006088D02*
X009466Y006088D01*
X009368Y005989D02*
X008995Y005989D01*
X008995Y005891D02*
X009269Y005891D01*
X009171Y005792D02*
X008995Y005792D01*
X008995Y005694D02*
X009072Y005694D01*
X008974Y005595D02*
X008953Y005595D01*
X008875Y005496D02*
X008648Y005496D01*
X008648Y005398D02*
X008777Y005398D01*
X008678Y005299D02*
X008648Y005299D01*
X009538Y004215D02*
X011101Y004215D01*
X011108Y004209D02*
X011244Y004152D01*
X011391Y004152D01*
X011527Y004209D01*
X011631Y004313D01*
X011688Y004449D01*
X011688Y004596D01*
X011650Y004686D01*
X011719Y004755D01*
X011719Y004946D01*
X011958Y005185D01*
X011958Y005359D01*
X011958Y005552D01*
X011968Y005552D01*
X012068Y005652D01*
X012068Y006393D01*
X012042Y006418D01*
X012088Y006529D01*
X012088Y006676D01*
X012031Y006812D01*
X011927Y006916D01*
X011791Y006972D01*
X011644Y006972D01*
X011508Y006916D01*
X011404Y006812D01*
X011348Y006676D01*
X011348Y006529D01*
X011404Y006393D01*
X011428Y006369D01*
X011428Y005652D01*
X011527Y005552D01*
X011538Y005552D01*
X011538Y005389D01*
X011045Y005389D01*
X010998Y005341D01*
X010950Y005389D01*
X010376Y005389D01*
X010277Y005289D01*
X010277Y005287D01*
X010247Y005316D01*
X010168Y005349D01*
X010168Y005572D01*
X010223Y005572D01*
X010223Y005997D01*
X010273Y005997D01*
X010273Y006047D01*
X010548Y006047D01*
X010548Y006384D01*
X010460Y006472D01*
X010273Y006472D01*
X010273Y006047D01*
X010223Y006047D01*
X010223Y006472D01*
X010168Y006472D01*
X010168Y006595D01*
X011245Y007672D01*
X011368Y007795D01*
X011368Y009000D01*
X011484Y008952D01*
X011631Y008952D01*
X012468Y008115D01*
X012468Y007009D01*
X012468Y006835D01*
X012628Y006675D01*
X012868Y006435D01*
X012991Y006312D01*
X013500Y006312D01*
X013540Y006216D01*
X013692Y006064D01*
X013794Y006022D01*
X013692Y005980D01*
X013540Y005828D01*
X013500Y005732D01*
X013411Y005732D01*
X013288Y005609D01*
X011288Y003609D01*
X011288Y003435D01*
X011288Y002020D01*
X011192Y001980D01*
X011040Y001828D01*
X010987Y001700D01*
X010939Y001817D01*
X010792Y001963D01*
X010601Y002042D01*
X010548Y002042D01*
X010548Y001572D01*
X010448Y001572D01*
X010448Y002042D01*
X010394Y002042D01*
X010203Y001963D01*
X010057Y001817D01*
X010038Y001770D01*
X010038Y001963D01*
X009938Y002062D01*
X009508Y002062D01*
X009508Y004185D01*
X009958Y004635D01*
X009964Y004632D01*
X010111Y004632D01*
X010247Y004689D01*
X010295Y004736D01*
X010376Y004655D01*
X010950Y004655D01*
X010988Y004694D01*
X010948Y004596D01*
X010948Y004449D01*
X011004Y004313D01*
X011108Y004209D01*
X011004Y004314D02*
X009636Y004314D01*
X009735Y004413D02*
X010963Y004413D01*
X010948Y004511D02*
X009834Y004511D01*
X009932Y004610D02*
X010954Y004610D01*
X011401Y003723D02*
X009508Y003723D01*
X009508Y003821D02*
X011500Y003821D01*
X011598Y003920D02*
X009508Y003920D01*
X009508Y004018D02*
X011697Y004018D01*
X011796Y004117D02*
X009508Y004117D01*
X009508Y003624D02*
X011303Y003624D01*
X011288Y003526D02*
X009508Y003526D01*
X009508Y003427D02*
X011288Y003427D01*
X011288Y003329D02*
X009508Y003329D01*
X009508Y003230D02*
X011288Y003230D01*
X011288Y003131D02*
X009508Y003131D01*
X009508Y003033D02*
X011288Y003033D01*
X011288Y002934D02*
X009508Y002934D01*
X009508Y002836D02*
X011288Y002836D01*
X011288Y002737D02*
X009508Y002737D01*
X009508Y002639D02*
X011288Y002639D01*
X011288Y002540D02*
X009508Y002540D01*
X009508Y002442D02*
X011288Y002442D01*
X011288Y002343D02*
X009508Y002343D01*
X009508Y002245D02*
X011288Y002245D01*
X011288Y002146D02*
X009508Y002146D01*
X009953Y002047D02*
X011288Y002047D01*
X011161Y001949D02*
X010806Y001949D01*
X010905Y001850D02*
X011062Y001850D01*
X011008Y001752D02*
X010965Y001752D01*
X010548Y001752D02*
X010448Y001752D01*
X010448Y001850D02*
X010548Y001850D01*
X010548Y001949D02*
X010448Y001949D01*
X010448Y001653D02*
X010548Y001653D01*
X010189Y001949D02*
X010038Y001949D01*
X010038Y001850D02*
X010091Y001850D01*
X011534Y004215D02*
X011894Y004215D01*
X011993Y004314D02*
X011632Y004314D01*
X011673Y004413D02*
X012091Y004413D01*
X012190Y004511D02*
X011688Y004511D01*
X011682Y004610D02*
X012288Y004610D01*
X012387Y004708D02*
X011672Y004708D01*
X011719Y004807D02*
X012485Y004807D01*
X012584Y004905D02*
X011719Y004905D01*
X011776Y005004D02*
X012682Y005004D01*
X012781Y005102D02*
X011875Y005102D01*
X011958Y005201D02*
X012879Y005201D01*
X012978Y005299D02*
X011958Y005299D01*
X011958Y005398D02*
X013077Y005398D01*
X013175Y005496D02*
X011958Y005496D01*
X012011Y005595D02*
X013274Y005595D01*
X013372Y005694D02*
X012068Y005694D01*
X012068Y005792D02*
X013525Y005792D01*
X013603Y005891D02*
X012068Y005891D01*
X012068Y005989D02*
X013714Y005989D01*
X013669Y006088D02*
X012068Y006088D01*
X012068Y006186D02*
X013570Y006186D01*
X013512Y006285D02*
X012068Y006285D01*
X012068Y006383D02*
X012920Y006383D01*
X012821Y006482D02*
X012068Y006482D01*
X012088Y006580D02*
X012723Y006580D01*
X012628Y006675D02*
X012628Y006675D01*
X012624Y006679D02*
X012086Y006679D01*
X012046Y006778D02*
X012525Y006778D01*
X012468Y006876D02*
X011967Y006876D01*
X011968Y007552D02*
X012068Y007652D01*
X012068Y008393D01*
X011968Y008492D01*
X011527Y008492D01*
X011428Y008393D01*
X011428Y007652D01*
X011527Y007552D01*
X011968Y007552D01*
X011982Y007566D02*
X012468Y007566D01*
X012468Y007664D02*
X012068Y007664D01*
X012068Y007763D02*
X012468Y007763D01*
X012468Y007862D02*
X012068Y007862D01*
X012068Y007960D02*
X012468Y007960D01*
X012468Y008059D02*
X012068Y008059D01*
X012068Y008157D02*
X012426Y008157D01*
X012327Y008256D02*
X012068Y008256D01*
X012068Y008354D02*
X012229Y008354D01*
X012130Y008453D02*
X012008Y008453D01*
X012032Y008551D02*
X011368Y008551D01*
X011368Y008453D02*
X011488Y008453D01*
X011428Y008354D02*
X011368Y008354D01*
X011368Y008256D02*
X011428Y008256D01*
X011428Y008157D02*
X011368Y008157D01*
X011368Y008059D02*
X011428Y008059D01*
X011428Y007960D02*
X011368Y007960D01*
X011368Y007862D02*
X011428Y007862D01*
X011428Y007763D02*
X011336Y007763D01*
X011428Y007664D02*
X011237Y007664D01*
X011138Y007566D02*
X011514Y007566D01*
X011468Y006876D02*
X010449Y006876D01*
X010547Y006975D02*
X012468Y006975D01*
X012468Y007073D02*
X010646Y007073D01*
X010744Y007172D02*
X012468Y007172D01*
X012468Y007270D02*
X010843Y007270D01*
X010941Y007369D02*
X012468Y007369D01*
X012468Y007467D02*
X011040Y007467D01*
X011390Y006778D02*
X010350Y006778D01*
X010252Y006679D02*
X011349Y006679D01*
X011348Y006580D02*
X010168Y006580D01*
X010168Y006482D02*
X011367Y006482D01*
X011413Y006383D02*
X010548Y006383D01*
X010548Y006285D02*
X011428Y006285D01*
X011428Y006186D02*
X010548Y006186D01*
X010548Y006088D02*
X011428Y006088D01*
X011428Y005989D02*
X010548Y005989D01*
X010548Y005997D02*
X010273Y005997D01*
X010273Y005572D01*
X010460Y005572D01*
X010548Y005660D01*
X010548Y005997D01*
X010548Y005891D02*
X011428Y005891D01*
X011428Y005792D02*
X010548Y005792D01*
X010548Y005694D02*
X011428Y005694D01*
X011485Y005595D02*
X010483Y005595D01*
X010273Y005595D02*
X010223Y005595D01*
X010223Y005694D02*
X010273Y005694D01*
X010273Y005792D02*
X010223Y005792D01*
X010223Y005891D02*
X010273Y005891D01*
X010273Y005989D02*
X010223Y005989D01*
X010223Y006088D02*
X010273Y006088D01*
X010273Y006186D02*
X010223Y006186D01*
X010223Y006285D02*
X010273Y006285D01*
X010273Y006383D02*
X010223Y006383D01*
X010168Y005496D02*
X011538Y005496D01*
X011538Y005398D02*
X010168Y005398D01*
X010264Y005299D02*
X010287Y005299D01*
X010267Y004708D02*
X010323Y004708D01*
X008468Y007292D02*
X008416Y007292D01*
X008416Y007327D01*
X008393Y007349D01*
X008396Y007352D01*
X008396Y007518D01*
X008014Y007518D01*
X008014Y007526D01*
X008396Y007526D01*
X008396Y007592D01*
X008468Y007592D01*
X008468Y007292D01*
X008468Y007369D02*
X008396Y007369D01*
X008396Y007467D02*
X008468Y007467D01*
X008468Y007566D02*
X008396Y007566D01*
X008784Y008256D02*
X008881Y008256D01*
X008881Y008354D02*
X008784Y008354D01*
X008784Y008453D02*
X008881Y008453D01*
X008153Y009734D02*
X007670Y009734D01*
X007651Y009716D02*
X007699Y009763D01*
X007699Y009974D01*
X007381Y009974D01*
X007381Y010071D01*
X007284Y010071D01*
X007284Y010369D01*
X007054Y010369D01*
X007012Y010327D01*
X006950Y010389D01*
X006376Y010389D01*
X006277Y010289D01*
X006277Y009755D01*
X006375Y009656D01*
X006375Y009372D01*
X006365Y009372D01*
X006191Y009372D01*
X006068Y009249D01*
X005585Y009732D01*
X005411Y009732D01*
X001995Y009732D01*
X001956Y009828D01*
X001804Y009980D01*
X001676Y010033D01*
X001792Y010081D01*
X001939Y010228D01*
X002018Y010419D01*
X002018Y010472D01*
X001548Y010472D01*
X001548Y010572D01*
X002018Y010572D01*
X002018Y010626D01*
X001939Y010817D01*
X001792Y010963D01*
X001746Y010982D01*
X001938Y010982D01*
X002038Y011082D01*
X002038Y011312D01*
X002085Y011312D01*
X002165Y011312D01*
X002288Y011435D01*
X002365Y011512D01*
X002365Y011512D01*
X002648Y011795D01*
X002648Y011969D01*
X002648Y012305D01*
X002774Y012252D01*
X002921Y012252D01*
X003057Y012309D01*
X003161Y012413D01*
X003218Y012549D01*
X003218Y012695D01*
X003508Y012985D01*
X003508Y013159D01*
X003508Y014559D01*
X003611Y014663D01*
X003668Y014799D01*
X003668Y014946D01*
X003611Y015082D01*
X003507Y015186D01*
X003430Y015218D01*
X004708Y016495D01*
X004708Y013635D01*
X004604Y013532D01*
X004548Y013396D01*
X004548Y013249D01*
X004604Y013113D01*
X004708Y013009D01*
X004844Y012952D01*
X004991Y012952D01*
X005127Y013009D01*
X005231Y013113D01*
X005288Y013249D01*
X005288Y013396D01*
X005231Y013532D01*
X005128Y013635D01*
X005128Y016675D01*
X005405Y016952D01*
X005428Y016929D01*
X005564Y016872D01*
X005711Y016872D01*
X005811Y016914D01*
X005811Y016633D01*
X005788Y016609D01*
X005788Y016184D01*
X005731Y016184D01*
X005631Y016085D01*
X005631Y015702D01*
X005538Y015609D01*
X005288Y015359D01*
X005288Y015243D01*
X005231Y015243D01*
X005131Y015144D01*
X005131Y014570D01*
X005193Y014508D01*
X005151Y014466D01*
X005151Y014236D01*
X005449Y014236D01*
X005449Y014139D01*
X005151Y014139D01*
X005151Y013909D01*
X005239Y013821D01*
X005449Y013821D01*
X005449Y014139D01*
X005546Y014139D01*
X005546Y013821D01*
X005757Y013821D01*
X005836Y013900D01*
X005836Y012271D01*
X005935Y012171D01*
X007060Y012171D01*
X007160Y012271D01*
X007160Y013900D01*
X007239Y013821D01*
X007449Y013821D01*
X007449Y014139D01*
X007546Y014139D01*
X007546Y013821D01*
X007757Y013821D01*
X007845Y013909D01*
X007845Y014139D01*
X007546Y014139D01*
X007546Y014236D01*
X007845Y014236D01*
X007845Y014466D01*
X007803Y014508D01*
X007865Y014570D01*
X007865Y015144D01*
X007765Y015243D01*
X007408Y015243D01*
X007365Y015287D01*
X007365Y015360D01*
X007569Y015360D01*
X007569Y015639D01*
X007627Y015639D01*
X007627Y015360D01*
X007788Y015360D01*
X007788Y015235D01*
X007988Y015035D01*
X007988Y010609D01*
X007988Y010435D01*
X008028Y010395D01*
X008028Y010249D01*
X008084Y010113D01*
X008188Y010009D01*
X008324Y009952D01*
X008371Y009952D01*
X007893Y009474D01*
X007651Y009716D01*
X007732Y009635D02*
X008054Y009635D01*
X007955Y009537D02*
X007830Y009537D01*
X007699Y009832D02*
X008251Y009832D01*
X008350Y009931D02*
X007699Y009931D01*
X007699Y010071D02*
X007699Y010281D01*
X007611Y010369D01*
X007381Y010369D01*
X007381Y010071D01*
X007699Y010071D01*
X007699Y010128D02*
X008078Y010128D01*
X008037Y010227D02*
X007699Y010227D01*
X007655Y010325D02*
X008028Y010325D01*
X007999Y010424D02*
X002018Y010424D01*
X001979Y010325D02*
X006312Y010325D01*
X006277Y010227D02*
X001938Y010227D01*
X001839Y010128D02*
X006277Y010128D01*
X006277Y010029D02*
X001684Y010029D01*
X001853Y009931D02*
X006277Y009931D01*
X006277Y009832D02*
X001951Y009832D01*
X001995Y009734D02*
X006298Y009734D01*
X006375Y009635D02*
X005682Y009635D01*
X005780Y009537D02*
X006375Y009537D01*
X006375Y009438D02*
X005879Y009438D01*
X005977Y009340D02*
X006158Y009340D01*
X005828Y008847D02*
X005583Y008847D01*
X005621Y008809D02*
X005521Y008909D01*
X004278Y008909D01*
X004178Y008809D01*
X004178Y007723D01*
X004278Y007624D01*
X005521Y007624D01*
X005621Y007723D01*
X005621Y008809D01*
X005621Y008748D02*
X005828Y008748D01*
X005828Y008650D02*
X005621Y008650D01*
X005621Y008551D02*
X005828Y008551D01*
X005828Y008453D02*
X005621Y008453D01*
X005621Y008354D02*
X005828Y008354D01*
X005828Y008256D02*
X005621Y008256D01*
X005621Y008157D02*
X005828Y008157D01*
X005828Y008059D02*
X005621Y008059D01*
X005621Y007960D02*
X005828Y007960D01*
X005828Y007862D02*
X005621Y007862D01*
X005621Y007763D02*
X005828Y007763D01*
X005828Y007664D02*
X005562Y007664D01*
X005828Y007566D02*
X002765Y007566D01*
X002864Y007467D02*
X005828Y007467D01*
X005828Y007369D02*
X002962Y007369D01*
X003061Y007270D02*
X005873Y007270D01*
X005971Y007172D02*
X005159Y007172D01*
X005258Y007073D02*
X006070Y007073D01*
X006168Y006975D02*
X005356Y006975D01*
X005455Y006876D02*
X006267Y006876D01*
X005998Y006022D02*
X005998Y005522D01*
X005998Y006022D02*
X004998Y007022D01*
X002998Y007022D01*
X002498Y007522D01*
X002498Y008266D01*
X003160Y007664D02*
X004237Y007664D01*
X004178Y007763D02*
X003219Y007763D01*
X003219Y007862D02*
X004178Y007862D01*
X004178Y007960D02*
X003219Y007960D01*
X003219Y008059D02*
X004178Y008059D01*
X004178Y008157D02*
X003219Y008157D01*
X003219Y008256D02*
X004178Y008256D01*
X004178Y008354D02*
X003219Y008354D01*
X003219Y008453D02*
X004178Y008453D01*
X004178Y008551D02*
X003219Y008551D01*
X003219Y008650D02*
X004178Y008650D01*
X004178Y008748D02*
X003219Y008748D01*
X003181Y008847D02*
X004216Y008847D01*
X005482Y009241D02*
X001966Y009241D01*
X001882Y009143D02*
X005580Y009143D01*
X006992Y008847D02*
X007032Y008847D01*
X007284Y008847D02*
X007381Y008847D01*
X007381Y008748D02*
X007284Y008748D01*
X007284Y008650D02*
X007381Y008650D01*
X007381Y010029D02*
X008167Y010029D01*
X007988Y010522D02*
X001548Y010522D01*
X001448Y010522D02*
X000718Y010522D01*
X001839Y010916D02*
X007988Y010916D01*
X007988Y010818D02*
X001937Y010818D01*
X001979Y010719D02*
X007988Y010719D01*
X007988Y010621D02*
X002018Y010621D01*
X001971Y011015D02*
X007988Y011015D01*
X007988Y011113D02*
X002038Y011113D01*
X002038Y011212D02*
X007988Y011212D01*
X007988Y011311D02*
X002038Y011311D01*
X002262Y011409D02*
X007988Y011409D01*
X007988Y011508D02*
X002360Y011508D01*
X002459Y011606D02*
X007988Y011606D01*
X007988Y011705D02*
X002557Y011705D01*
X002648Y011803D02*
X007988Y011803D01*
X007988Y011902D02*
X002648Y011902D01*
X002648Y012000D02*
X007988Y012000D01*
X007988Y012099D02*
X002648Y012099D01*
X002648Y012197D02*
X005909Y012197D01*
X005836Y012296D02*
X003027Y012296D01*
X003143Y012395D02*
X005836Y012395D01*
X005836Y012493D02*
X003195Y012493D01*
X003218Y012592D02*
X005836Y012592D01*
X005836Y012690D02*
X003218Y012690D01*
X003311Y012789D02*
X005836Y012789D01*
X005836Y012887D02*
X003410Y012887D01*
X003508Y012986D02*
X004763Y012986D01*
X004632Y013084D02*
X003508Y013084D01*
X003508Y013183D02*
X004575Y013183D01*
X004548Y013281D02*
X003508Y013281D01*
X003508Y013380D02*
X004548Y013380D01*
X004582Y013479D02*
X003508Y013479D01*
X003508Y013577D02*
X004649Y013577D01*
X004708Y013676D02*
X003508Y013676D01*
X003508Y013774D02*
X004708Y013774D01*
X004708Y013873D02*
X003508Y013873D01*
X003508Y013971D02*
X004708Y013971D01*
X004708Y014070D02*
X003508Y014070D01*
X003508Y014168D02*
X004708Y014168D01*
X004708Y014267D02*
X003508Y014267D01*
X003508Y014365D02*
X004708Y014365D01*
X004708Y014464D02*
X003508Y014464D01*
X003511Y014562D02*
X004708Y014562D01*
X004708Y014661D02*
X003610Y014661D01*
X003652Y014760D02*
X004708Y014760D01*
X004708Y014858D02*
X003668Y014858D01*
X003663Y014957D02*
X004708Y014957D01*
X004708Y015055D02*
X003622Y015055D01*
X003539Y015154D02*
X004708Y015154D01*
X004708Y015252D02*
X003465Y015252D01*
X003563Y015351D02*
X004708Y015351D01*
X004708Y015449D02*
X003662Y015449D01*
X003760Y015548D02*
X004708Y015548D01*
X004708Y015646D02*
X003859Y015646D01*
X003958Y015745D02*
X004708Y015745D01*
X004708Y015844D02*
X004056Y015844D01*
X004155Y015942D02*
X004708Y015942D01*
X004708Y016041D02*
X004253Y016041D01*
X004352Y016139D02*
X004708Y016139D01*
X004708Y016238D02*
X004450Y016238D01*
X004549Y016336D02*
X004708Y016336D01*
X004708Y016435D02*
X004647Y016435D01*
X005128Y016435D02*
X005788Y016435D01*
X005788Y016533D02*
X005128Y016533D01*
X005128Y016632D02*
X005811Y016632D01*
X005811Y016730D02*
X005183Y016730D01*
X005281Y016829D02*
X005811Y016829D01*
X005788Y016336D02*
X005128Y016336D01*
X005128Y016238D02*
X005788Y016238D01*
X005685Y016139D02*
X005128Y016139D01*
X005128Y016041D02*
X005631Y016041D01*
X005631Y015942D02*
X005128Y015942D01*
X005128Y015844D02*
X005631Y015844D01*
X005631Y015745D02*
X005128Y015745D01*
X005128Y015646D02*
X005575Y015646D01*
X005477Y015548D02*
X005128Y015548D01*
X005128Y015449D02*
X005378Y015449D01*
X005288Y015351D02*
X005128Y015351D01*
X005128Y015252D02*
X005288Y015252D01*
X005141Y015154D02*
X005128Y015154D01*
X005128Y015055D02*
X005131Y015055D01*
X005128Y014957D02*
X005131Y014957D01*
X005128Y014858D02*
X005131Y014858D01*
X005128Y014760D02*
X005131Y014760D01*
X005128Y014661D02*
X005131Y014661D01*
X005128Y014562D02*
X005138Y014562D01*
X005128Y014464D02*
X005151Y014464D01*
X005151Y014365D02*
X005128Y014365D01*
X005128Y014267D02*
X005151Y014267D01*
X005128Y014168D02*
X005449Y014168D01*
X005449Y014070D02*
X005546Y014070D01*
X005546Y013971D02*
X005449Y013971D01*
X005449Y013873D02*
X005546Y013873D01*
X005808Y013873D02*
X005836Y013873D01*
X005836Y013774D02*
X005128Y013774D01*
X005128Y013676D02*
X005836Y013676D01*
X005836Y013577D02*
X005186Y013577D01*
X005254Y013479D02*
X005836Y013479D01*
X005836Y013380D02*
X005288Y013380D01*
X005288Y013281D02*
X005836Y013281D01*
X005836Y013183D02*
X005261Y013183D01*
X005203Y013084D02*
X005836Y013084D01*
X005836Y012986D02*
X005072Y012986D01*
X005128Y013873D02*
X005187Y013873D01*
X005151Y013971D02*
X005128Y013971D01*
X005128Y014070D02*
X005151Y014070D01*
X005380Y016928D02*
X005431Y016928D01*
X006625Y016928D02*
X006988Y016928D01*
X006988Y017026D02*
X006625Y017026D01*
X006625Y017125D02*
X006988Y017125D01*
X006988Y017223D02*
X006625Y017223D01*
X006625Y017322D02*
X006951Y017322D01*
X006988Y017285D02*
X006988Y016812D01*
X006924Y016812D01*
X006788Y016756D01*
X006755Y016723D01*
X006751Y016732D01*
X006647Y016836D01*
X006625Y016845D01*
X006625Y017482D01*
X006669Y017482D01*
X006689Y017462D01*
X006811Y017462D01*
X006988Y017285D01*
X006853Y017420D02*
X006625Y017420D01*
X006654Y016829D02*
X006988Y016829D01*
X006763Y016730D02*
X006752Y016730D01*
X007365Y016049D02*
X007788Y016049D01*
X007788Y015975D01*
X007627Y015975D01*
X007627Y015697D01*
X007569Y015697D01*
X007569Y015975D01*
X007365Y015975D01*
X007365Y016049D01*
X007365Y016041D02*
X007788Y016041D01*
X007627Y015942D02*
X007569Y015942D01*
X007569Y015844D02*
X007627Y015844D01*
X007627Y015745D02*
X007569Y015745D01*
X007569Y015548D02*
X007627Y015548D01*
X007627Y015449D02*
X007569Y015449D01*
X007365Y015351D02*
X007788Y015351D01*
X007788Y015252D02*
X007399Y015252D01*
X007855Y015154D02*
X007869Y015154D01*
X007865Y015055D02*
X007968Y015055D01*
X007988Y014957D02*
X007865Y014957D01*
X007865Y014858D02*
X007988Y014858D01*
X007988Y014760D02*
X007865Y014760D01*
X007865Y014661D02*
X007988Y014661D01*
X007988Y014562D02*
X007857Y014562D01*
X007845Y014464D02*
X007988Y014464D01*
X007988Y014365D02*
X007845Y014365D01*
X007845Y014267D02*
X007988Y014267D01*
X007988Y014168D02*
X007546Y014168D01*
X007546Y014070D02*
X007449Y014070D01*
X007449Y013971D02*
X007546Y013971D01*
X007546Y013873D02*
X007449Y013873D01*
X007187Y013873D02*
X007160Y013873D01*
X007160Y013774D02*
X007988Y013774D01*
X007988Y013676D02*
X007160Y013676D01*
X007160Y013577D02*
X007988Y013577D01*
X007988Y013479D02*
X007160Y013479D01*
X007160Y013380D02*
X007988Y013380D01*
X007988Y013281D02*
X007160Y013281D01*
X007160Y013183D02*
X007988Y013183D01*
X007988Y013084D02*
X007160Y013084D01*
X007160Y012986D02*
X007988Y012986D01*
X007988Y012887D02*
X007160Y012887D01*
X007160Y012789D02*
X007988Y012789D01*
X007988Y012690D02*
X007160Y012690D01*
X007160Y012592D02*
X007988Y012592D01*
X007988Y012493D02*
X007160Y012493D01*
X007160Y012395D02*
X007988Y012395D01*
X007988Y012296D02*
X007160Y012296D01*
X007087Y012197D02*
X007988Y012197D01*
X007988Y013873D02*
X007808Y013873D01*
X007845Y013971D02*
X007988Y013971D01*
X007988Y014070D02*
X007845Y014070D01*
X009449Y014365D02*
X009546Y014365D01*
X009546Y014464D02*
X009449Y014464D01*
X009449Y014562D02*
X009546Y014562D01*
X009546Y014661D02*
X010612Y014661D01*
X010711Y014562D02*
X009845Y014562D01*
X009845Y014464D02*
X010809Y014464D01*
X010908Y014365D02*
X009801Y014365D01*
X009845Y014760D02*
X010513Y014760D01*
X010415Y014858D02*
X009845Y014858D01*
X009845Y014957D02*
X010316Y014957D01*
X010218Y015055D02*
X009850Y015055D01*
X009865Y015154D02*
X010119Y015154D01*
X010021Y015252D02*
X009865Y015252D01*
X009865Y015351D02*
X009922Y015351D01*
X009879Y016238D02*
X011835Y016238D01*
X011737Y016336D02*
X009781Y016336D01*
X009682Y016435D02*
X011638Y016435D01*
X011540Y016533D02*
X009584Y016533D01*
X009931Y016632D02*
X011441Y016632D01*
X011343Y016730D02*
X010019Y016730D01*
X010060Y016829D02*
X011244Y016829D01*
X011145Y016928D02*
X010068Y016928D01*
X010099Y017026D02*
X011047Y017026D01*
X010948Y017125D02*
X010108Y017125D01*
X010108Y017223D02*
X010850Y017223D01*
X010751Y017322D02*
X010108Y017322D01*
X010108Y017420D02*
X010653Y017420D01*
X010554Y017519D02*
X010108Y017519D01*
X010108Y017617D02*
X010456Y017617D01*
X010357Y017716D02*
X010108Y017716D01*
X010108Y017814D02*
X010259Y017814D01*
X010160Y017913D02*
X010108Y017913D01*
X011039Y019194D02*
X011085Y019194D01*
X011334Y019194D02*
X011431Y019194D01*
X011431Y019293D02*
X011334Y019293D01*
X011334Y019391D02*
X011431Y019391D01*
X010421Y019884D02*
X010283Y019884D01*
X008380Y022052D02*
X007874Y022052D01*
X007806Y021953D02*
X008282Y021953D01*
X008183Y021855D02*
X007806Y021855D01*
X007806Y021756D02*
X008174Y021756D01*
X008174Y021658D02*
X007806Y021658D01*
X007973Y022150D02*
X008479Y022150D01*
X008216Y022249D02*
X008008Y022249D01*
X008008Y022347D02*
X008182Y022347D01*
X008182Y022446D02*
X008008Y022446D01*
X008008Y022544D02*
X008182Y022544D01*
X008182Y022643D02*
X008008Y022643D01*
X008008Y022742D02*
X008182Y022742D01*
X008182Y022840D02*
X008008Y022840D01*
X008008Y022939D02*
X008264Y022939D01*
X007415Y020368D02*
X007416Y020367D01*
X007668Y020115D01*
X007668Y020085D01*
X007668Y018675D01*
X007564Y018572D01*
X007508Y018436D01*
X007508Y018289D01*
X007564Y018153D01*
X007668Y018049D01*
X007692Y018039D01*
X007477Y018039D01*
X007457Y018019D01*
X007412Y018019D01*
X007412Y018054D01*
X007218Y018249D01*
X007218Y018296D01*
X007185Y018374D01*
X007197Y018379D01*
X007301Y018483D01*
X007358Y018619D01*
X007358Y018766D01*
X007301Y018902D01*
X007197Y019006D01*
X007061Y019062D01*
X006914Y019062D01*
X006890Y019052D01*
X006741Y019052D01*
X006271Y019052D01*
X006014Y019052D01*
X006014Y019150D01*
X005994Y019170D01*
X005994Y019214D01*
X006086Y019214D01*
X007025Y020152D01*
X007151Y020152D01*
X007287Y020209D01*
X007391Y020313D01*
X007415Y020368D01*
X007357Y020278D02*
X007505Y020278D01*
X007604Y020179D02*
X007217Y020179D01*
X006953Y020081D02*
X007668Y020081D01*
X007668Y019982D02*
X006855Y019982D01*
X006756Y019884D02*
X007668Y019884D01*
X007668Y019785D02*
X006658Y019785D01*
X006559Y019687D02*
X007668Y019687D01*
X007668Y019588D02*
X006461Y019588D01*
X006362Y019490D02*
X007668Y019490D01*
X007668Y019391D02*
X006264Y019391D01*
X006165Y019293D02*
X007668Y019293D01*
X007668Y019194D02*
X005994Y019194D01*
X006014Y019095D02*
X007668Y019095D01*
X007668Y018997D02*
X007206Y018997D01*
X007303Y018898D02*
X007668Y018898D01*
X007668Y018800D02*
X007344Y018800D01*
X007358Y018701D02*
X007668Y018701D01*
X007595Y018603D02*
X007351Y018603D01*
X007310Y018504D02*
X007536Y018504D01*
X007508Y018406D02*
X007224Y018406D01*
X007213Y018307D02*
X007508Y018307D01*
X007541Y018209D02*
X007258Y018209D01*
X007357Y018110D02*
X007607Y018110D01*
X006565Y021658D02*
X006428Y021658D01*
X006467Y021756D02*
X006361Y021756D01*
X006368Y021855D02*
X006262Y021855D01*
X006270Y021953D02*
X005364Y021953D01*
X005265Y022052D02*
X006171Y022052D01*
X006073Y022150D02*
X005167Y022150D01*
X005458Y019804D02*
X004513Y019804D01*
X004608Y019709D01*
X005077Y019240D01*
X005458Y019240D01*
X005458Y019284D01*
X005438Y019304D01*
X005438Y019543D01*
X005438Y019740D01*
X005458Y019760D01*
X005458Y019804D01*
X005458Y019785D02*
X004532Y019785D01*
X004630Y019687D02*
X005438Y019687D01*
X005438Y019588D02*
X004729Y019588D01*
X004827Y019490D02*
X005438Y019490D01*
X005438Y019391D02*
X004926Y019391D01*
X005024Y019293D02*
X005450Y019293D01*
X004517Y024614D02*
X004518Y024614D01*
X004517Y024712D02*
X004518Y024712D01*
X004517Y024811D02*
X004518Y024811D01*
X004517Y024910D02*
X004518Y024910D01*
X004517Y025008D02*
X004518Y025008D01*
X004773Y025219D02*
X005301Y025219D01*
X005498Y025022D02*
X005498Y024857D01*
X005498Y025022D01*
X012100Y015844D02*
X012229Y015844D01*
X012238Y015745D02*
X012194Y015745D01*
X012235Y015646D02*
X012238Y015646D01*
X011638Y008946D02*
X011368Y008946D01*
X011368Y008847D02*
X011736Y008847D01*
X011835Y008748D02*
X011368Y008748D01*
X011368Y008650D02*
X011933Y008650D01*
X007381Y010128D02*
X007284Y010128D01*
X007284Y010227D02*
X007381Y010227D01*
X007381Y010325D02*
X007284Y010325D01*
X006787Y005299D02*
X006532Y005299D01*
X004949Y004314D02*
X004849Y004314D01*
X004849Y004215D02*
X004949Y004215D01*
X004949Y004117D02*
X004849Y004117D01*
X004849Y004018D02*
X004949Y004018D01*
X004949Y003920D02*
X004849Y003920D01*
X004849Y003821D02*
X002548Y003821D01*
X002548Y003723D02*
X002448Y003723D01*
X002448Y003728D02*
X002448Y003156D01*
X001884Y003156D01*
X001797Y003244D01*
X001797Y003728D01*
X002448Y003728D01*
X002448Y003821D02*
X000718Y003821D01*
X000718Y003723D02*
X001797Y003723D01*
X001797Y003624D02*
X000718Y003624D01*
X000718Y003526D02*
X001797Y003526D01*
X001797Y003427D02*
X000718Y003427D01*
X000718Y003329D02*
X001797Y003329D01*
X001810Y003230D02*
X000718Y003230D01*
X000718Y003920D02*
X001797Y003920D01*
X001797Y004018D02*
X000718Y004018D01*
X000718Y004117D02*
X001797Y004117D01*
X001797Y004215D02*
X000718Y004215D01*
X000718Y004314D02*
X001798Y004314D01*
X002448Y004314D02*
X002548Y004314D01*
X002548Y004215D02*
X002448Y004215D01*
X002448Y004117D02*
X002548Y004117D01*
X002548Y004018D02*
X002448Y004018D01*
X002448Y003920D02*
X002548Y003920D01*
X002548Y003624D02*
X002448Y003624D01*
X002448Y003526D02*
X002548Y003526D01*
X002548Y003427D02*
X002448Y003427D01*
X002448Y003329D02*
X002548Y003329D01*
X002548Y003230D02*
X002448Y003230D01*
X002108Y002737D02*
X003264Y002737D01*
X003178Y002836D02*
X001990Y002836D01*
X001975Y002849D02*
X001975Y002849D01*
X002422Y001850D02*
X003091Y001850D01*
X003057Y001817D02*
X002978Y001626D01*
X002978Y001572D01*
X003448Y001572D01*
X003448Y002042D01*
X003394Y002042D01*
X003203Y001963D01*
X003057Y001817D01*
X003030Y001752D02*
X002405Y001752D01*
X002395Y001696D02*
X002395Y001696D01*
X002370Y001653D02*
X002989Y001653D01*
X002978Y001456D02*
X002256Y001456D01*
X002229Y001409D02*
X002229Y001409D01*
X002229Y001409D01*
X002168Y001358D02*
X003003Y001358D01*
X003044Y001259D02*
X002051Y001259D01*
X002313Y001555D02*
X003448Y001555D01*
X003448Y001653D02*
X003548Y001653D01*
X003548Y001752D02*
X003448Y001752D01*
X003448Y001850D02*
X003548Y001850D01*
X003548Y001949D02*
X003448Y001949D01*
X003189Y001949D02*
X002439Y001949D01*
X002452Y002022D02*
X002452Y002022D01*
X002448Y002047D02*
X004355Y002047D01*
X004161Y001949D02*
X003806Y001949D01*
X003905Y001850D02*
X004062Y001850D01*
X004008Y001752D02*
X003965Y001752D01*
X005014Y001358D02*
X005978Y001358D01*
X006025Y001259D02*
X004973Y001259D01*
X004062Y005595D02*
X002734Y005595D01*
X002855Y005694D02*
X003941Y005694D01*
X003868Y005792D02*
X002927Y005792D01*
X002968Y005891D02*
X003827Y005891D01*
X003813Y005989D02*
X002983Y005989D01*
X002983Y006088D02*
X003813Y006088D01*
X003841Y006186D02*
X002955Y006186D01*
X002914Y006285D02*
X003882Y006285D01*
X003973Y006383D02*
X002822Y006383D01*
X002655Y006482D02*
X004140Y006482D01*
X002669Y012296D02*
X002648Y012296D01*
D11*
X006021Y017751D03*
X006218Y017751D03*
X006415Y017751D03*
X006612Y017751D03*
X006809Y017751D03*
X007006Y017751D03*
X007203Y017751D03*
X007399Y017751D03*
X007596Y017751D03*
X007793Y017751D03*
X007990Y017751D03*
X008187Y017751D03*
X008384Y017751D03*
X008580Y017751D03*
X008777Y017751D03*
X008974Y017751D03*
X008974Y021294D03*
X008777Y021294D03*
X008580Y021294D03*
X008384Y021294D03*
X008187Y021294D03*
X007990Y021294D03*
X007793Y021294D03*
X007596Y021294D03*
X007399Y021294D03*
X007203Y021294D03*
X007006Y021294D03*
X006809Y021294D03*
X006612Y021294D03*
X006415Y021294D03*
X006218Y021294D03*
X006021Y021294D03*
D12*
X005726Y020999D03*
X005726Y020802D03*
X005726Y020605D03*
X005726Y020408D03*
X005726Y020211D03*
X005726Y020014D03*
X005726Y019817D03*
X005726Y019621D03*
X005726Y019424D03*
X005726Y019227D03*
X005726Y019030D03*
X005726Y018833D03*
X005726Y018636D03*
X005726Y018440D03*
X005726Y018243D03*
X005726Y018046D03*
X009269Y018046D03*
X009269Y018243D03*
X009269Y018440D03*
X009269Y018636D03*
X009269Y018833D03*
X009269Y019030D03*
X009269Y019227D03*
X009269Y019424D03*
X009269Y019621D03*
X009269Y019817D03*
X009269Y020014D03*
X009269Y020211D03*
X009269Y020408D03*
X009269Y020605D03*
X009269Y020802D03*
X009269Y020999D03*
D13*
X013348Y028022D02*
X013383Y028233D01*
X013485Y028421D01*
X013642Y028566D01*
X013838Y028652D01*
X014052Y028670D01*
X014259Y028617D01*
X014438Y028500D01*
X014570Y028331D01*
X014639Y028129D01*
X014639Y027915D01*
X014570Y027713D01*
X014438Y027544D01*
X014259Y027427D01*
X014052Y027374D01*
X013838Y027392D01*
X013642Y027478D01*
X013485Y027623D01*
X013383Y027811D01*
X013348Y028022D01*
X003983Y006022D02*
X004019Y006168D01*
X004119Y006281D01*
X004260Y006335D01*
X004410Y006317D01*
X004534Y006231D01*
X004604Y006097D01*
X004604Y005947D01*
X004534Y005813D01*
X004410Y005727D01*
X004260Y005709D01*
X004119Y005763D01*
X004019Y005876D01*
X003983Y006022D01*
X002183Y006022D02*
X002219Y006168D01*
X002319Y006281D01*
X002460Y006335D01*
X002610Y006317D01*
X002734Y006231D01*
X002804Y006097D01*
X002804Y005947D01*
X002734Y005813D01*
X002610Y005727D01*
X002460Y005709D01*
X002319Y005763D01*
X002219Y005876D01*
X002183Y006022D01*
X000848Y002022D02*
X000883Y002233D01*
X000985Y002421D01*
X001142Y002566D01*
X001338Y002652D01*
X001552Y002670D01*
X001759Y002617D01*
X001938Y002500D01*
X002070Y002331D01*
X002139Y002129D01*
X002139Y001915D01*
X002070Y001713D01*
X001938Y001544D01*
X001759Y001427D01*
X001552Y001374D01*
X001338Y001392D01*
X001142Y001478D01*
X000985Y001623D01*
X000883Y001811D01*
X000848Y002022D01*
X013348Y002022D02*
X013383Y002233D01*
X013485Y002421D01*
X013642Y002566D01*
X013838Y002652D01*
X014052Y002670D01*
X014259Y002617D01*
X014438Y002500D01*
X014570Y002331D01*
X014639Y002129D01*
X014639Y001915D01*
X014570Y001713D01*
X014438Y001544D01*
X014259Y001427D01*
X014052Y001374D01*
X013838Y001392D01*
X013642Y001478D01*
X013485Y001623D01*
X013383Y001811D01*
X013348Y002022D01*
X000848Y028022D02*
X000883Y028233D01*
X000985Y028421D01*
X001142Y028566D01*
X001338Y028652D01*
X001552Y028670D01*
X001759Y028617D01*
X001938Y028500D01*
X002070Y028331D01*
X002139Y028129D01*
X002139Y027915D01*
X002070Y027713D01*
X001938Y027544D01*
X001759Y027427D01*
X001552Y027374D01*
X001338Y027392D01*
X001142Y027478D01*
X000985Y027623D01*
X000883Y027811D01*
X000848Y028022D01*
D14*
X002498Y008266D03*
X004899Y008266D03*
X004899Y003778D03*
X002498Y003778D03*
D15*
X003498Y001522D03*
X004498Y001522D03*
X001498Y009522D03*
X001498Y010522D03*
X001498Y012522D03*
X001498Y013522D03*
X001498Y014522D03*
X001498Y015522D03*
X001498Y016522D03*
X001498Y017522D03*
X001498Y018522D03*
X001498Y019522D03*
X001498Y020522D03*
X001498Y021522D03*
X001498Y022522D03*
X001498Y023522D03*
X001498Y024522D03*
X001498Y025522D03*
X013998Y025522D03*
X013998Y026522D03*
X013998Y024522D03*
X013998Y023522D03*
X013998Y022522D03*
X013998Y021522D03*
X013998Y020522D03*
X013998Y018522D03*
X013998Y017522D03*
X013998Y016522D03*
X013998Y015522D03*
X013998Y014522D03*
X013998Y013522D03*
X013998Y012522D03*
X013998Y010522D03*
X013998Y009522D03*
X013998Y008522D03*
X013998Y007522D03*
X013998Y006522D03*
X013998Y005522D03*
X013998Y004522D03*
X012498Y001522D03*
X011498Y001522D03*
X010498Y001522D03*
D16*
X008549Y006022D03*
X007447Y006022D03*
D17*
X007163Y005022D03*
X007832Y005022D03*
X008163Y008522D03*
X008832Y008522D03*
X007332Y008522D03*
X006663Y008522D03*
X006663Y010022D03*
X007332Y010022D03*
X010663Y005022D03*
X011332Y005022D03*
X011382Y019522D03*
X010713Y019522D03*
X004832Y024022D03*
X004163Y024022D03*
D18*
X006986Y007896D03*
X006986Y007148D03*
X008010Y007148D03*
X008010Y007522D03*
X008010Y007896D03*
D19*
X007498Y014188D03*
X007498Y014857D03*
X005498Y014857D03*
X005498Y014188D03*
X009498Y014688D03*
X009498Y015357D03*
X009498Y022688D03*
X009498Y023357D03*
X006498Y023357D03*
X006498Y022688D03*
X005498Y024188D03*
X005498Y024857D03*
X003498Y024688D03*
X003498Y025357D03*
D20*
X005848Y023377D03*
X005848Y022668D03*
X007598Y016377D03*
X007598Y015668D03*
D21*
X007269Y022569D03*
X007269Y023475D03*
X008726Y023475D03*
X008726Y022569D03*
D22*
X006998Y015522D03*
X005998Y015522D03*
D23*
X006498Y013522D03*
D24*
X004773Y024825D03*
X004517Y024825D03*
X004262Y024825D03*
X004262Y025219D03*
X004517Y025219D03*
X004773Y025219D03*
D25*
X007498Y025722D03*
X007498Y028322D03*
D26*
X010248Y008022D03*
X010248Y006022D03*
X011748Y006022D03*
X011748Y008022D03*
D27*
X008498Y002522D03*
X008498Y001522D03*
X007498Y001522D03*
X007498Y002522D03*
X006498Y002522D03*
X006498Y001522D03*
D28*
X009498Y001522D03*
X013998Y003522D03*
X013998Y011522D03*
X013998Y019522D03*
X001498Y026522D03*
X001498Y011522D03*
D29*
X003498Y003022D03*
X011498Y028022D03*
D30*
X007293Y009522D03*
X006703Y009522D03*
D31*
X006648Y009577D01*
X006648Y009822D01*
X006648Y009972D01*
X006648Y010007D01*
X006663Y010022D01*
X006278Y009162D02*
X006068Y008952D01*
X005998Y009022D01*
X005498Y009522D01*
X001498Y009522D01*
X001498Y011522D02*
X001998Y011522D01*
X002078Y011522D01*
X002278Y011722D01*
X002438Y011882D01*
X002438Y014522D01*
X005318Y017402D01*
X005318Y017642D01*
X005148Y017972D02*
X004848Y017672D01*
X004848Y017272D01*
X003048Y015472D01*
X002278Y014702D01*
X002278Y014582D01*
X002278Y013882D01*
X002198Y013802D01*
X001918Y013522D01*
X001648Y013522D01*
X001498Y013522D01*
X001498Y015522D02*
X002048Y015522D01*
X002898Y016372D01*
X002898Y016522D01*
X004048Y017672D01*
X004348Y017972D01*
X004348Y018522D01*
X004348Y018622D01*
X004548Y018822D01*
X004998Y018822D01*
X005184Y018636D01*
X005726Y018636D01*
X005726Y018440D02*
X005638Y018442D01*
X004818Y018442D01*
X005168Y018243D02*
X004848Y017922D01*
X003598Y016672D01*
X003298Y016372D01*
X003298Y014872D02*
X003298Y013072D01*
X002848Y012622D01*
X004918Y013322D02*
X004918Y016762D01*
X005398Y017242D01*
X005638Y017242D01*
X006021Y017751D02*
X006021Y016546D01*
X005998Y016522D01*
X005998Y015522D01*
X005848Y015522D01*
X005748Y015522D01*
X005498Y015272D01*
X005498Y014857D01*
X006438Y016522D02*
X006448Y016522D01*
X006415Y016555D01*
X006415Y017751D01*
X006612Y017751D02*
X006612Y017408D01*
X006698Y017322D01*
X006798Y017222D01*
X007006Y017564D02*
X007198Y017372D01*
X007198Y017322D01*
X007198Y016872D01*
X007298Y016772D01*
X007498Y016572D01*
X007598Y016377D01*
X007598Y016772D02*
X007448Y016922D01*
X007448Y017022D01*
X007448Y017322D01*
X007498Y017372D01*
X007596Y017471D01*
X007596Y017751D01*
X007399Y017751D02*
X007399Y018221D01*
X007398Y018222D01*
X007203Y017967D02*
X006948Y018222D01*
X006848Y018222D01*
X006998Y018672D02*
X006828Y018842D01*
X006358Y018842D01*
X005798Y018842D01*
X005726Y018833D01*
X005726Y019030D02*
X004990Y019030D01*
X004398Y019622D01*
X003098Y019622D01*
X002998Y019522D01*
X002998Y018522D01*
X001998Y017522D01*
X001498Y017522D01*
X001498Y019522D02*
X002498Y019522D01*
X002998Y020022D01*
X003006Y020014D01*
X005726Y020014D01*
X005726Y019817D02*
X005443Y019817D01*
X005398Y019772D01*
X005726Y019621D02*
X005946Y019621D01*
X006648Y020322D01*
X006678Y020352D01*
X006678Y020362D01*
X006678Y020842D01*
X006438Y021082D02*
X006198Y020842D01*
X006218Y021294D02*
X006218Y021602D01*
X006098Y021722D01*
X005298Y021722D01*
X005048Y021972D01*
X004998Y022022D01*
X002498Y024522D01*
X002498Y026022D01*
X001998Y026522D01*
X001498Y026522D01*
X001498Y025522D02*
X001948Y025522D01*
X002248Y025222D01*
X002278Y025192D01*
X002278Y025162D01*
X002278Y024442D01*
X005398Y021322D01*
X005426Y021294D01*
X006021Y021294D01*
X005726Y020999D02*
X005371Y020999D01*
X003148Y023222D01*
X003098Y023272D01*
X001848Y024522D01*
X001498Y024522D01*
X001498Y023522D02*
X002498Y023522D01*
X004998Y021022D01*
X005218Y020802D01*
X005726Y020802D01*
X005726Y020605D02*
X005638Y020602D01*
X004118Y020602D01*
X002278Y022442D01*
X002248Y022472D01*
X002198Y022522D01*
X001498Y022522D01*
X001498Y021522D02*
X002948Y021522D01*
X003648Y020822D01*
X003698Y020772D01*
X004062Y020408D01*
X005726Y020408D01*
X005726Y020211D02*
X005638Y020202D01*
X003818Y020202D01*
X003498Y020522D01*
X001498Y020522D01*
X003518Y024122D02*
X003518Y024522D01*
X003498Y024688D01*
X003678Y025242D02*
X003498Y025357D01*
X003678Y025242D02*
X004238Y025242D01*
X004262Y025219D01*
X004517Y025219D02*
X004517Y024853D01*
X004548Y024822D01*
X004545Y024825D01*
X004517Y024825D01*
X004262Y024825D02*
X004238Y024762D01*
X004238Y024202D01*
X004163Y024022D01*
X004832Y024022D02*
X004832Y023738D01*
X005198Y023372D01*
X004878Y023882D02*
X004832Y024022D01*
X005048Y024472D02*
X005332Y024188D01*
X005498Y024188D01*
X005848Y022668D02*
X005998Y022522D01*
X006548Y021972D01*
X006598Y021922D01*
X006809Y021711D01*
X006809Y021294D01*
X006998Y021242D02*
X007006Y021294D01*
X006998Y021242D02*
X006998Y021082D01*
X007478Y020602D01*
X007503Y020577D01*
X007548Y020622D01*
X007848Y020922D01*
X007990Y021064D01*
X007990Y021114D01*
X007990Y021294D01*
X008187Y021294D02*
X008198Y021242D01*
X008198Y020742D01*
X007937Y020211D02*
X007898Y020172D01*
X007878Y020172D01*
X007878Y020202D01*
X007503Y020577D01*
X007648Y021022D02*
X007298Y021022D01*
X007203Y021117D01*
X007203Y021294D01*
X007399Y021294D02*
X007398Y021402D01*
X007398Y022362D01*
X007269Y022569D01*
X006918Y022682D01*
X006678Y022682D01*
X006498Y022688D01*
X006498Y021672D02*
X006612Y021558D01*
X006612Y021294D01*
X006438Y021242D02*
X006415Y021294D01*
X006438Y021242D02*
X006438Y021082D01*
X007078Y020522D02*
X007078Y020502D01*
X007048Y020472D01*
X005999Y019424D01*
X005726Y019424D01*
X005726Y019227D02*
X005493Y019227D01*
X005448Y019272D01*
X005726Y019227D02*
X006043Y019227D01*
X006098Y019172D01*
X006198Y018202D02*
X006198Y017802D01*
X006218Y017751D01*
X005726Y018046D02*
X005638Y018042D01*
X005238Y018042D01*
X005218Y018042D01*
X005148Y017972D01*
X005168Y018243D02*
X005726Y018243D01*
X006809Y017751D02*
X006838Y017802D01*
X006998Y017802D01*
X007006Y017751D01*
X007006Y017564D01*
X007203Y017751D02*
X007203Y017967D01*
X006998Y018672D02*
X006988Y018682D01*
X006988Y018692D01*
X007878Y018362D02*
X007878Y020172D01*
X007937Y020211D02*
X009269Y020211D01*
X009659Y020211D01*
X010248Y019622D01*
X010298Y019572D01*
X010348Y019522D01*
X010713Y019522D01*
X009948Y019672D02*
X011098Y018522D01*
X011898Y018522D01*
X012098Y018522D01*
X013998Y018522D01*
X013998Y019522D02*
X013448Y019522D01*
X012958Y019522D01*
X012758Y019722D01*
X011878Y020602D01*
X009318Y020602D01*
X009269Y020605D01*
X009269Y020802D02*
X012018Y020802D01*
X012198Y020622D01*
X012248Y020572D01*
X012298Y020522D01*
X013998Y020522D01*
X013998Y021522D02*
X013348Y021522D01*
X012878Y021522D01*
X012758Y021402D01*
X012358Y021002D01*
X009318Y021002D01*
X009269Y020999D01*
X008974Y021294D02*
X011619Y021294D01*
X011698Y021372D01*
X011718Y021392D01*
X012848Y022522D01*
X012838Y022522D01*
X012848Y022522D01*
X013398Y022522D01*
X013998Y022522D01*
X013998Y023522D02*
X013448Y023522D01*
X012878Y023522D01*
X012758Y023402D01*
X011318Y021962D01*
X008918Y021962D01*
X008888Y021962D01*
X008848Y021922D01*
X008777Y021852D01*
X008777Y021294D01*
X008598Y021242D02*
X008580Y021294D01*
X008598Y021242D02*
X008598Y021082D01*
X008838Y020842D01*
X009269Y020408D02*
X009562Y020408D01*
X009912Y020408D01*
X009998Y020322D01*
X009606Y020014D02*
X009948Y019672D01*
X010048Y019322D02*
X011848Y017522D01*
X012548Y017522D01*
X012748Y017522D01*
X012838Y017522D01*
X013448Y017522D01*
X013998Y017522D01*
X012798Y016322D02*
X013498Y015622D01*
X013598Y015522D01*
X013998Y015522D01*
X012848Y016022D02*
X012848Y014772D01*
X012848Y014172D01*
X013498Y013522D01*
X013998Y013522D01*
X013998Y012522D02*
X013198Y012522D01*
X013148Y012522D01*
X013078Y012522D01*
X012898Y012702D01*
X012898Y013472D01*
X012648Y013722D01*
X012648Y014072D01*
X012648Y015972D01*
X012598Y016022D01*
X012598Y016042D01*
X009798Y018842D01*
X009318Y018842D01*
X009269Y018833D01*
X009269Y018636D02*
X009734Y018636D01*
X010948Y017422D01*
X012448Y015922D01*
X012448Y014722D01*
X012448Y013622D01*
X012598Y013472D01*
X012598Y012122D01*
X012948Y011772D01*
X013198Y011522D01*
X013998Y011522D01*
X013998Y010522D02*
X013398Y010522D01*
X013078Y010522D01*
X012838Y010762D01*
X012678Y010922D01*
X012678Y011802D01*
X012358Y012122D01*
X012358Y013432D01*
X012358Y013462D01*
X009048Y016772D01*
X008998Y016822D01*
X008974Y016846D01*
X008974Y017751D01*
X008777Y017751D02*
X008777Y016793D01*
X008798Y016772D01*
X012198Y013372D01*
X012198Y013352D01*
X012198Y012042D01*
X012518Y011722D01*
X012518Y009882D01*
X012758Y009642D01*
X012878Y009522D01*
X013448Y009522D01*
X013998Y009522D01*
X013998Y008522D02*
X013448Y008522D01*
X013078Y008522D01*
X012838Y008762D01*
X012358Y009242D01*
X012358Y011642D01*
X011878Y012122D01*
X011878Y013002D01*
X011878Y014492D02*
X011878Y015542D01*
X012748Y016122D02*
X012798Y016072D01*
X012848Y016022D01*
X012748Y016122D02*
X010198Y018672D01*
X009840Y019030D01*
X009269Y019030D01*
X009269Y019227D02*
X009158Y019242D01*
X009078Y019242D01*
X008838Y019002D01*
X008838Y018522D01*
X008598Y018282D02*
X008518Y018362D01*
X008518Y019242D01*
X008838Y019642D02*
X009158Y019642D01*
X009269Y019621D01*
X009269Y019817D02*
X009553Y019817D01*
X010048Y019322D01*
X009696Y019424D02*
X012748Y016372D01*
X012798Y016322D01*
X012038Y011482D02*
X009718Y009162D01*
X009718Y006042D01*
X008758Y005082D01*
X008758Y004262D01*
X008738Y004262D01*
X007498Y003022D01*
X007498Y002522D01*
X007848Y002022D02*
X007498Y001672D01*
X007498Y001522D01*
X007848Y002022D02*
X008798Y002022D01*
X008848Y002022D01*
X009048Y002222D01*
X009048Y002672D01*
X009048Y004492D01*
X009718Y005162D01*
X009958Y005402D01*
X009958Y006682D01*
X011158Y007882D01*
X011158Y010122D01*
X011878Y010842D01*
X011558Y009322D02*
X012678Y008202D01*
X012678Y006922D01*
X012838Y006762D01*
X013078Y006522D01*
X013448Y006522D01*
X013998Y006522D01*
X014698Y005822D01*
X014698Y003372D01*
X014698Y003222D01*
X014498Y003022D01*
X014348Y003022D01*
X012998Y003022D01*
X012498Y002522D01*
X012498Y001522D01*
X011498Y001522D02*
X011498Y003522D01*
X013498Y005522D01*
X013998Y005522D01*
X011748Y005272D02*
X011498Y005022D01*
X011332Y005022D01*
X011318Y004842D01*
X011318Y004522D01*
X011748Y005272D02*
X011748Y006022D01*
X011718Y006282D01*
X011718Y006602D01*
X010663Y005022D02*
X010518Y005002D01*
X010038Y005002D01*
X010028Y005002D01*
X009998Y004972D01*
X009298Y004272D01*
X009298Y004222D01*
X009298Y001722D01*
X009498Y001522D01*
X008498Y001522D01*
X008198Y004442D02*
X007318Y004442D01*
X005318Y002442D01*
X004498Y001622D01*
X004498Y001522D01*
X007078Y006682D02*
X007078Y007082D01*
X006986Y007148D01*
X006758Y007082D01*
X006358Y007082D01*
X006038Y007402D01*
X006038Y008922D01*
X006068Y008952D01*
X006278Y009162D02*
X007848Y009162D01*
X007848Y009222D01*
X007548Y009522D01*
X007293Y009522D01*
X007848Y009162D02*
X007878Y009162D01*
X009078Y010362D01*
X009078Y015252D01*
X009148Y015322D01*
X009182Y015357D01*
X009498Y015357D01*
X009498Y015372D01*
X009498Y015822D01*
X009248Y016072D01*
X008998Y016072D01*
X008898Y015672D02*
X008898Y012172D01*
X008748Y012022D01*
X008398Y011472D02*
X008398Y011422D01*
X008498Y011322D01*
X008548Y011272D01*
X008398Y011472D02*
X008398Y015172D01*
X008198Y015372D01*
X008198Y017272D01*
X008148Y017322D01*
X008098Y017372D01*
X007990Y017480D01*
X007990Y017751D01*
X008187Y017751D02*
X008187Y017533D01*
X008398Y017322D01*
X008398Y017172D01*
X008398Y015672D01*
X008448Y015622D01*
X008548Y015522D01*
X008448Y015622D01*
X008598Y015972D02*
X008898Y015672D01*
X008598Y015972D02*
X008598Y017372D01*
X008384Y017586D01*
X008384Y017751D01*
X008580Y017751D02*
X008598Y017802D01*
X008598Y018282D01*
X009269Y018243D02*
X009627Y018243D01*
X009898Y017972D01*
X009898Y017122D01*
X009698Y016922D01*
X009318Y017562D02*
X009318Y018042D01*
X009269Y018046D01*
X009269Y018440D02*
X009680Y018440D01*
X010098Y018022D01*
X010348Y017772D01*
X010348Y017372D01*
X009696Y019424D02*
X009269Y019424D01*
X009269Y020014D02*
X009606Y020014D01*
X008384Y021758D02*
X008748Y022122D01*
X008798Y022172D01*
X009948Y022172D01*
X010008Y022172D01*
X010038Y022202D01*
X012918Y025082D01*
X013358Y025522D01*
X013448Y025522D01*
X013998Y025522D01*
X013998Y024522D02*
X012998Y024522D01*
X012648Y024522D01*
X012248Y024122D01*
X010998Y022872D01*
X010998Y022522D01*
X009498Y023357D02*
X009318Y023402D01*
X009078Y023402D01*
X008726Y023475D01*
X008651Y023475D01*
X008648Y023472D01*
X008248Y023472D01*
X008148Y023472D01*
X007948Y023472D01*
X007898Y023422D01*
X007798Y023322D01*
X007798Y023122D01*
X007798Y022272D01*
X007748Y022222D01*
X007596Y022071D01*
X007596Y021721D01*
X007596Y021294D01*
X007793Y021117D02*
X007698Y021022D01*
X007648Y021022D01*
X007793Y021117D02*
X007793Y021294D01*
X007793Y021517D01*
X007848Y021572D01*
X008384Y021758D02*
X008384Y021294D01*
X007793Y017751D02*
X007798Y017492D01*
X007798Y017172D01*
X007798Y016772D02*
X007598Y016772D01*
X007798Y016772D02*
X007998Y016572D01*
X007998Y016472D01*
X007998Y015322D01*
X008198Y015122D01*
X008198Y010522D01*
X008248Y010472D01*
X008348Y010372D01*
X008398Y010322D01*
X008348Y010372D01*
X007878Y009162D02*
X007958Y009082D01*
X007958Y008682D01*
X008163Y008522D01*
X008010Y007896D02*
X008198Y007802D01*
X008598Y007802D01*
X008678Y007722D01*
X008678Y007002D01*
X008678Y006282D01*
X008549Y006022D01*
X008438Y005722D01*
X008438Y004682D01*
X008198Y004442D01*
X007318Y004442D02*
X007318Y004842D01*
X007163Y005022D01*
X008010Y007148D02*
X008198Y007082D01*
X008598Y007082D01*
X008678Y007002D01*
X006986Y007896D02*
X006758Y007962D01*
X006758Y008362D01*
X006663Y008522D01*
X007498Y014857D02*
X006998Y015357D01*
X006998Y015522D01*
X006998Y016192D01*
X006998Y016442D01*
X009148Y015322D02*
X009163Y015338D01*
X004158Y019242D02*
X004018Y019242D01*
X003848Y019072D01*
X003848Y018372D01*
D32*
X003848Y018372D03*
X004158Y019242D03*
X004818Y018442D03*
X005318Y017642D03*
X005638Y017242D03*
X006198Y018202D03*
X006848Y018222D03*
X006988Y018692D03*
X007498Y020022D03*
X007078Y020522D03*
X006678Y020842D03*
X006198Y020842D03*
X005098Y019672D03*
X004948Y022622D03*
X005198Y023372D03*
X003518Y024122D03*
X006798Y017222D03*
X006438Y016522D03*
X006998Y016442D03*
X007798Y017172D03*
X007878Y018362D03*
X008518Y019242D03*
X008838Y019642D03*
X008838Y018522D03*
X009318Y017562D03*
X009698Y016922D03*
X008998Y016072D03*
X008548Y015522D03*
X008748Y012022D03*
X008548Y011272D03*
X008398Y010322D03*
X009548Y011872D03*
X010898Y013672D03*
X011878Y013002D03*
X011878Y014492D03*
X011878Y015542D03*
X010998Y015672D03*
X012038Y011482D03*
X011878Y010842D03*
X011558Y009322D03*
X011718Y006602D03*
X011318Y004522D03*
X010038Y005002D03*
X009998Y004022D03*
X009148Y007422D03*
X007078Y006682D03*
X004918Y013322D03*
X003298Y014872D03*
X003298Y016372D03*
X002848Y012622D03*
X008198Y020742D03*
X008838Y020842D03*
X008148Y023022D03*
X010748Y023572D03*
X010998Y022522D03*
X011598Y020072D03*
M02*
