G75*
G70*
%OFA0B0*%
%FSLAX24Y24*%
%IPPOS*%
%LPD*%
%AMOC8*
5,1,8,0,0,1.08239X$1,22.5*
%
%ADD10C,0.0710*%
%ADD11C,0.0820*%
%ADD12OC8,0.0820*%
%ADD13R,0.0820X0.0820*%
%ADD14C,0.1380*%
D10*
X002498Y006022D03*
X004298Y006022D03*
D11*
X004498Y001522D03*
X003498Y001522D03*
X001498Y009522D03*
X001498Y010522D03*
X001498Y012522D03*
X001498Y013522D03*
X001498Y014522D03*
X001498Y015522D03*
X001498Y016522D03*
X001498Y017522D03*
X001498Y018522D03*
X001498Y019522D03*
X001498Y020522D03*
X001498Y021522D03*
X001498Y022522D03*
X001498Y023522D03*
X001498Y024522D03*
X001498Y025522D03*
X013998Y025522D03*
X013998Y026522D03*
X013998Y024522D03*
X013998Y023522D03*
X013998Y022522D03*
X013998Y021522D03*
X013998Y020522D03*
X013998Y018522D03*
X013998Y017522D03*
X013998Y016522D03*
X013998Y015522D03*
X013998Y014522D03*
X013998Y013522D03*
X013998Y012522D03*
X013998Y010522D03*
X013998Y009522D03*
X013998Y008522D03*
X013998Y007522D03*
X013998Y006522D03*
X013998Y005522D03*
X013998Y004522D03*
X012498Y001522D03*
X011498Y001522D03*
X010498Y001522D03*
D12*
X008498Y001522D03*
X008498Y002522D03*
X007498Y002522D03*
X007498Y001522D03*
X006498Y001522D03*
X006498Y002522D03*
D13*
X009498Y001522D03*
X013998Y003522D03*
X013998Y011522D03*
X013998Y019522D03*
X001498Y026522D03*
X001498Y011522D03*
D14*
X001498Y002022D03*
X013998Y002022D03*
X013998Y028022D03*
X001498Y028022D03*
M02*
