G75*
G70*
%OFA0B0*%
%FSLAX24Y24*%
%IPPOS*%
%LPD*%
%AMOC8*
5,1,8,0,0,1.08239X$1,22.5*
%
%ADD10C,0.0080*%
%ADD11C,0.0220*%
%ADD12C,0.0060*%
%ADD13C,0.0050*%
%ADD14R,0.0180X0.0300*%
%ADD15C,0.0010*%
%ADD16R,0.0191X0.0195*%
D10*
X001120Y004251D02*
X001710Y004251D01*
X001120Y004251D02*
X001120Y005038D01*
X002498Y005038D01*
X002741Y005081D01*
X002964Y005185D01*
X003152Y005344D01*
X003293Y005545D01*
X003377Y005777D01*
X003398Y006022D01*
X003377Y006267D01*
X003293Y006499D01*
X003152Y006700D01*
X002964Y006859D01*
X002741Y006963D01*
X002498Y007006D01*
X001120Y007006D01*
X001120Y005038D01*
X001120Y007006D02*
X001120Y007794D01*
X001710Y007794D01*
X001748Y009022D02*
X001248Y009022D01*
X000998Y009272D01*
X000998Y009772D01*
X001248Y010022D01*
X000998Y010272D01*
X000998Y010772D01*
X001248Y011022D01*
X001748Y011022D01*
X001998Y010772D01*
X001998Y010272D01*
X001748Y010022D01*
X001998Y009772D01*
X001998Y009272D01*
X001748Y009022D01*
X002188Y009382D02*
X002258Y009312D01*
X002398Y009312D01*
X002468Y009382D01*
X002468Y009452D01*
X002398Y009522D01*
X002328Y009522D01*
X002398Y009522D02*
X002468Y009592D01*
X002468Y009662D01*
X002398Y009733D01*
X002258Y009733D01*
X002188Y009662D01*
X002258Y010312D02*
X002398Y010312D01*
X002468Y010382D01*
X002468Y010522D01*
X002328Y010522D01*
X002188Y010662D02*
X002188Y010382D01*
X002258Y010312D01*
X002188Y010662D02*
X002258Y010733D01*
X002398Y010733D01*
X002468Y010662D01*
X002648Y010733D02*
X002648Y010312D01*
X002928Y010312D02*
X002648Y010733D01*
X002928Y010733D02*
X002928Y010312D01*
X003109Y010312D02*
X003109Y010733D01*
X003319Y010733D01*
X003389Y010662D01*
X003389Y010382D01*
X003319Y010312D01*
X003109Y010312D01*
X003088Y009733D02*
X002948Y009733D01*
X002878Y009662D01*
X003018Y009522D02*
X003088Y009522D01*
X003159Y009452D01*
X003159Y009382D01*
X003088Y009312D01*
X002948Y009312D01*
X002878Y009382D01*
X002718Y009382D02*
X002718Y009312D01*
X002648Y009312D01*
X002648Y009382D01*
X002718Y009382D01*
X003088Y009522D02*
X003159Y009592D01*
X003159Y009662D01*
X003088Y009733D01*
X003339Y009733D02*
X003339Y009452D01*
X003479Y009312D01*
X003619Y009452D01*
X003619Y009733D01*
X002648Y011122D02*
X002348Y011122D01*
X002398Y011312D02*
X002258Y011312D01*
X002188Y011382D01*
X002468Y011662D01*
X002468Y011382D01*
X002398Y011312D01*
X002188Y011382D02*
X002188Y011662D01*
X002258Y011733D01*
X002398Y011733D01*
X002468Y011662D01*
X002648Y011122D02*
X002648Y014772D01*
X002648Y014922D01*
X002348Y014922D01*
X002468Y014733D02*
X002188Y014733D01*
X002188Y014522D01*
X002328Y014592D01*
X002398Y014592D01*
X002468Y014522D01*
X002468Y014382D01*
X002398Y014312D01*
X002258Y014312D01*
X002188Y014382D01*
X001998Y014272D02*
X001998Y014772D01*
X001748Y015022D01*
X001998Y015272D01*
X001998Y015772D01*
X001748Y016022D01*
X001998Y016272D01*
X001998Y016772D01*
X001748Y017022D01*
X001998Y017272D01*
X001998Y017772D01*
X001748Y018022D01*
X001998Y018272D01*
X001998Y018772D01*
X001748Y019022D01*
X001248Y019022D01*
X000998Y018772D01*
X000998Y018272D01*
X001248Y018022D01*
X000998Y017772D01*
X000998Y017272D01*
X001248Y017022D01*
X000998Y016772D01*
X000998Y016272D01*
X001248Y016022D01*
X000998Y015772D01*
X000998Y015272D01*
X001248Y015022D01*
X000998Y014772D01*
X000998Y014272D01*
X001248Y014022D01*
X000998Y013772D01*
X000998Y013272D01*
X001248Y013022D01*
X000998Y012772D01*
X000998Y012272D01*
X001248Y012022D01*
X000998Y011772D01*
X000998Y011272D01*
X001248Y011022D01*
X001748Y011022D01*
X001998Y011272D01*
X001998Y011772D01*
X001748Y012022D01*
X001998Y012272D01*
X001998Y012772D01*
X001748Y013022D01*
X001998Y013272D01*
X001998Y013772D01*
X001748Y014022D01*
X001998Y014272D01*
X002258Y013733D02*
X002188Y013662D01*
X002258Y013733D02*
X002398Y013733D01*
X002468Y013662D01*
X002468Y013592D01*
X002188Y013312D01*
X002468Y013312D01*
X002888Y013361D02*
X003308Y013361D01*
X003308Y013151D01*
X003238Y013081D01*
X003098Y013081D01*
X003028Y013151D01*
X003028Y013361D01*
X003028Y013221D02*
X002888Y013081D01*
X002888Y012761D02*
X003308Y012761D01*
X003308Y012901D02*
X003308Y012621D01*
X003238Y011980D02*
X002958Y011980D01*
X002888Y011910D01*
X002888Y011770D01*
X002958Y011700D01*
X003098Y011700D01*
X003098Y011840D01*
X003238Y011700D02*
X003308Y011770D01*
X003308Y011910D01*
X003238Y011980D01*
X002468Y012312D02*
X002188Y012312D01*
X002328Y012312D02*
X002328Y012733D01*
X002188Y012592D01*
X002958Y013542D02*
X002888Y013612D01*
X002888Y013752D01*
X002958Y013822D01*
X003238Y013822D01*
X003308Y013752D01*
X003308Y013612D01*
X003238Y013542D01*
X002958Y013542D01*
X003098Y014002D02*
X003028Y014072D01*
X003028Y014282D01*
X002888Y014282D02*
X003308Y014282D01*
X003308Y014072D01*
X003238Y014002D01*
X003098Y014002D01*
X003249Y015312D02*
X003249Y015733D01*
X003109Y015733D02*
X003389Y015733D01*
X003569Y015662D02*
X003569Y015382D01*
X003639Y015312D01*
X003779Y015312D01*
X003849Y015382D01*
X003849Y015662D01*
X003779Y015733D01*
X003639Y015733D01*
X003569Y015662D01*
X003569Y016312D02*
X003709Y016312D01*
X003639Y016312D02*
X003639Y016733D01*
X003569Y016733D02*
X003709Y016733D01*
X003389Y016733D02*
X003109Y016452D01*
X003179Y016522D02*
X003389Y016312D01*
X003109Y016312D02*
X003109Y016733D01*
X002928Y016312D02*
X002648Y016312D01*
X002648Y016733D01*
X002468Y016662D02*
X002398Y016733D01*
X002258Y016733D01*
X002188Y016662D01*
X002188Y016382D01*
X002258Y016312D01*
X002398Y016312D01*
X002468Y016382D01*
X002398Y015733D02*
X002188Y015733D01*
X002188Y015312D01*
X002188Y015452D02*
X002398Y015452D01*
X002468Y015522D01*
X002468Y015662D01*
X002398Y015733D01*
X002328Y015452D02*
X002468Y015312D01*
X002648Y015382D02*
X002718Y015312D01*
X002858Y015312D01*
X002928Y015382D01*
X002928Y015452D01*
X002858Y015522D01*
X002718Y015522D01*
X002648Y015592D01*
X002648Y015662D01*
X002718Y015733D01*
X002858Y015733D01*
X002928Y015662D01*
X002858Y017312D02*
X002718Y017312D01*
X002648Y017382D01*
X002718Y017522D02*
X002858Y017522D01*
X002928Y017452D01*
X002928Y017382D01*
X002858Y017312D01*
X002718Y017522D02*
X002648Y017592D01*
X002648Y017662D01*
X002718Y017733D01*
X002858Y017733D01*
X002928Y017662D01*
X003109Y017733D02*
X003389Y017733D01*
X003249Y017733D02*
X003249Y017312D01*
X003109Y018312D02*
X003389Y018312D01*
X003569Y018312D02*
X003569Y018733D01*
X003849Y018733D01*
X003709Y018522D02*
X003569Y018522D01*
X003389Y018733D02*
X003109Y018733D01*
X003109Y018312D01*
X002928Y018312D02*
X002788Y018452D01*
X002858Y018452D02*
X002648Y018452D01*
X002648Y018312D02*
X002648Y018733D01*
X002858Y018733D01*
X002928Y018662D01*
X002928Y018522D01*
X002858Y018452D01*
X003109Y018522D02*
X003249Y018522D01*
X002648Y019122D02*
X002348Y019122D01*
X002188Y019312D02*
X002188Y019382D01*
X002468Y019662D01*
X002468Y019733D01*
X002188Y019733D01*
X001998Y019772D02*
X001748Y020022D01*
X001998Y020272D01*
X001998Y020772D01*
X001748Y021022D01*
X001998Y021272D01*
X001998Y021772D01*
X001748Y022022D01*
X001998Y022272D01*
X001998Y022772D01*
X001748Y023022D01*
X001998Y023272D01*
X001998Y023772D01*
X001748Y024022D01*
X001998Y024272D01*
X001998Y024772D01*
X001748Y025022D01*
X001998Y025272D01*
X001998Y025772D01*
X001748Y026022D01*
X001998Y026272D01*
X001998Y026772D01*
X001748Y027022D01*
X001248Y027022D01*
X000998Y026772D01*
X000998Y026272D01*
X001248Y026022D01*
X000998Y025772D01*
X000998Y025272D01*
X001248Y025022D01*
X000998Y024772D01*
X000998Y024272D01*
X001248Y024022D01*
X000998Y023772D01*
X000998Y023272D01*
X001248Y023022D01*
X000998Y022772D01*
X000998Y022272D01*
X001248Y022022D01*
X000998Y021772D01*
X000998Y021272D01*
X001248Y021022D01*
X000998Y020772D01*
X000998Y020272D01*
X001248Y020022D01*
X000998Y019772D01*
X000998Y019272D01*
X001248Y019022D01*
X001748Y019022D01*
X001998Y019272D01*
X001998Y019772D01*
X002258Y020312D02*
X002398Y020312D01*
X002468Y020382D01*
X002468Y020452D01*
X002398Y020522D01*
X002188Y020522D01*
X002188Y020382D01*
X002258Y020312D01*
X002188Y020522D02*
X002328Y020662D01*
X002468Y020733D01*
X002398Y021312D02*
X002258Y021312D01*
X002188Y021382D01*
X002188Y021522D02*
X002328Y021592D01*
X002398Y021592D01*
X002468Y021522D01*
X002468Y021382D01*
X002398Y021312D01*
X002188Y021522D02*
X002188Y021733D01*
X002468Y021733D01*
X002888Y021780D02*
X003308Y021780D01*
X003308Y021500D01*
X003098Y021640D02*
X003098Y021780D01*
X003308Y022421D02*
X003308Y022701D01*
X003308Y022561D02*
X002888Y022561D01*
X002888Y022881D02*
X003028Y023021D01*
X003028Y022951D02*
X003028Y023161D01*
X002888Y023161D02*
X003308Y023161D01*
X003308Y022951D01*
X003238Y022881D01*
X003098Y022881D01*
X003028Y022951D01*
X002958Y023342D02*
X003238Y023342D01*
X003308Y023412D01*
X003308Y023552D01*
X003238Y023622D01*
X002958Y023622D01*
X002888Y023552D01*
X002888Y023412D01*
X002958Y023342D01*
X003098Y023802D02*
X003028Y023872D01*
X003028Y024082D01*
X002888Y024082D02*
X003308Y024082D01*
X003308Y023872D01*
X003238Y023802D01*
X003098Y023802D01*
X002468Y023662D02*
X002468Y023592D01*
X002398Y023522D01*
X002468Y023452D01*
X002468Y023382D01*
X002398Y023312D01*
X002258Y023312D01*
X002188Y023382D01*
X002328Y023522D02*
X002398Y023522D01*
X002468Y023662D02*
X002398Y023733D01*
X002258Y023733D01*
X002188Y023662D01*
X002188Y024312D02*
X002468Y024592D01*
X002468Y024662D01*
X002398Y024733D01*
X002258Y024733D01*
X002188Y024662D01*
X002188Y024312D02*
X002468Y024312D01*
X002468Y025312D02*
X002188Y025312D01*
X002328Y025312D02*
X002328Y025733D01*
X002188Y025592D01*
X002258Y026312D02*
X002188Y026382D01*
X002468Y026662D01*
X002468Y026382D01*
X002398Y026312D01*
X002258Y026312D01*
X002188Y026382D02*
X002188Y026662D01*
X002258Y026733D01*
X002398Y026733D01*
X002468Y026662D01*
X002648Y026522D02*
X002648Y027022D01*
X002348Y027022D01*
X002648Y026522D02*
X002648Y019122D01*
X002328Y018733D02*
X002468Y018592D01*
X002468Y018312D01*
X002468Y018522D02*
X002188Y018522D01*
X002188Y018592D02*
X002328Y018733D01*
X002188Y018592D02*
X002188Y018312D01*
X002188Y017733D02*
X002468Y017733D01*
X002328Y017733D02*
X002328Y017312D01*
X004029Y015733D02*
X004029Y015312D01*
X004309Y015312D02*
X004029Y015733D01*
X004309Y015733D02*
X004309Y015312D01*
X005726Y017751D02*
X005726Y017869D01*
X005726Y017751D02*
X005844Y017751D01*
X006064Y020880D02*
X006087Y020936D01*
X006143Y020959D01*
X006199Y020936D01*
X006222Y020880D01*
X006199Y020824D01*
X006143Y020801D01*
X006087Y020824D01*
X006064Y020880D01*
X005844Y021294D02*
X005726Y021294D01*
X005726Y021176D01*
X007014Y022904D02*
X007014Y023140D01*
X007058Y023962D02*
X006848Y023962D01*
X006848Y024383D01*
X007058Y024383D01*
X007128Y024312D01*
X007128Y024032D01*
X007058Y023962D01*
X007309Y024032D02*
X007309Y024172D01*
X007379Y024242D01*
X007519Y024242D01*
X007589Y024172D01*
X007589Y024102D01*
X007309Y024102D01*
X007309Y024032D02*
X007379Y023962D01*
X007519Y023962D01*
X007762Y023652D02*
X008234Y023652D01*
X008229Y023962D02*
X008299Y023962D01*
X008299Y024032D01*
X008229Y024032D01*
X008229Y023962D01*
X007909Y023962D02*
X008049Y024242D01*
X008034Y024422D02*
X008104Y024422D01*
X008174Y024492D01*
X008174Y024842D01*
X007964Y024842D01*
X007894Y024772D01*
X007894Y024632D01*
X007964Y024562D01*
X008174Y024562D01*
X008354Y024632D02*
X008425Y024702D01*
X008635Y024702D01*
X008635Y024772D02*
X008635Y024562D01*
X008425Y024562D01*
X008354Y024632D01*
X008425Y024842D02*
X008565Y024842D01*
X008635Y024772D01*
X008815Y024842D02*
X008955Y024983D01*
X008955Y024562D01*
X008815Y024562D02*
X009095Y024562D01*
X009275Y024562D02*
X009555Y024842D01*
X009555Y024912D01*
X009485Y024983D01*
X009345Y024983D01*
X009275Y024912D01*
X009275Y024562D02*
X009555Y024562D01*
X009736Y024632D02*
X009736Y024702D01*
X009806Y024772D01*
X009946Y024772D01*
X010016Y024702D01*
X010016Y024632D01*
X009946Y024562D01*
X009806Y024562D01*
X009736Y024632D01*
X009806Y024772D02*
X009736Y024842D01*
X009736Y024912D01*
X009806Y024983D01*
X009946Y024983D01*
X010016Y024912D01*
X010016Y024842D01*
X009946Y024772D01*
X010196Y024702D02*
X010406Y024702D01*
X010476Y024772D01*
X010476Y024912D01*
X010406Y024983D01*
X010196Y024983D01*
X010196Y024562D01*
X010336Y024702D02*
X010476Y024562D01*
X010656Y024562D02*
X010656Y024983D01*
X010936Y024983D01*
X011117Y024842D02*
X011257Y024983D01*
X011397Y024842D01*
X011397Y024562D01*
X011397Y024772D02*
X011117Y024772D01*
X011117Y024842D02*
X011117Y024562D01*
X010965Y024383D02*
X010965Y023962D01*
X010754Y023962D01*
X010684Y024032D01*
X010684Y024172D01*
X010754Y024242D01*
X010965Y024242D01*
X010796Y024772D02*
X010656Y024772D01*
X010511Y024242D02*
X010441Y024242D01*
X010301Y024102D01*
X010301Y023962D02*
X010301Y024242D01*
X010121Y024172D02*
X010121Y023962D01*
X009910Y023962D01*
X009840Y024032D01*
X009910Y024102D01*
X010121Y024102D01*
X010121Y024172D02*
X010051Y024242D01*
X009910Y024242D01*
X009660Y024172D02*
X009590Y024242D01*
X009450Y024242D01*
X009380Y024172D01*
X009380Y024032D01*
X009450Y023962D01*
X009590Y023962D01*
X009660Y024032D01*
X009660Y024172D01*
X009200Y024102D02*
X009200Y024032D01*
X009130Y023962D01*
X008920Y023962D01*
X008920Y024383D01*
X009130Y024383D01*
X009200Y024312D01*
X009200Y024242D01*
X009130Y024172D01*
X008920Y024172D01*
X009130Y024172D02*
X009200Y024102D01*
X008982Y023140D02*
X008982Y022904D01*
X008234Y022392D02*
X007762Y022392D01*
X007909Y023962D02*
X007769Y024242D01*
X007644Y024562D02*
X007504Y024562D01*
X007434Y024632D01*
X007434Y024772D01*
X007504Y024842D01*
X007644Y024842D01*
X007714Y024772D01*
X007714Y024702D01*
X007434Y024702D01*
X007254Y024772D02*
X007254Y024562D01*
X007114Y024562D02*
X007114Y024772D01*
X007184Y024842D01*
X007254Y024772D01*
X007114Y024772D02*
X007043Y024842D01*
X006973Y024842D01*
X006973Y024562D01*
X006653Y024562D02*
X006653Y024983D01*
X006513Y024983D02*
X006793Y024983D01*
X006333Y024842D02*
X006333Y024562D01*
X006333Y024772D02*
X006053Y024772D01*
X006053Y024842D02*
X006193Y024983D01*
X006333Y024842D01*
X006053Y024842D02*
X006053Y024562D01*
X007048Y026072D02*
X007048Y027972D01*
X007348Y027722D02*
X007498Y027872D01*
X007648Y027722D01*
X007498Y027872D02*
X007498Y027522D01*
X007948Y027972D02*
X007948Y026072D01*
X009151Y021294D02*
X009269Y021294D01*
X009269Y021176D01*
X009269Y017869D02*
X009269Y017751D01*
X009151Y017751D01*
X012137Y016274D02*
X012137Y016064D01*
X012558Y016064D01*
X012558Y016274D01*
X012488Y016344D01*
X012418Y016344D01*
X012348Y016274D01*
X012348Y016064D01*
X012348Y016274D02*
X012278Y016344D01*
X012208Y016344D01*
X012137Y016274D01*
X012137Y015424D02*
X012137Y015143D01*
X012137Y015283D02*
X012558Y015283D01*
X012558Y014963D02*
X012418Y014823D01*
X012418Y014893D02*
X012418Y014683D01*
X012558Y014683D02*
X012137Y014683D01*
X012137Y014893D01*
X012208Y014963D01*
X012348Y014963D01*
X012418Y014893D01*
X012488Y014503D02*
X012208Y014503D01*
X012137Y014433D01*
X012137Y014293D01*
X012208Y014223D01*
X012488Y014223D01*
X012558Y014293D01*
X012558Y014433D01*
X012488Y014503D01*
X012348Y014042D02*
X012208Y014042D01*
X012137Y013972D01*
X012137Y013762D01*
X012558Y013762D01*
X012418Y013762D02*
X012418Y013972D01*
X012348Y014042D01*
X013038Y014382D02*
X013108Y014312D01*
X013248Y014312D01*
X013318Y014382D01*
X013318Y014452D01*
X013248Y014522D01*
X013178Y014522D01*
X013248Y014522D02*
X013318Y014592D01*
X013318Y014662D01*
X013248Y014733D01*
X013108Y014733D01*
X013038Y014662D01*
X013248Y015312D02*
X013248Y015733D01*
X013038Y015522D01*
X013318Y015522D01*
X013498Y015272D02*
X013498Y015772D01*
X013748Y016022D01*
X013498Y016272D01*
X013498Y016772D01*
X013748Y017022D01*
X013498Y017272D01*
X013498Y017772D01*
X013748Y018022D01*
X013498Y018272D01*
X013498Y018772D01*
X013748Y019022D01*
X013498Y019272D01*
X013498Y019772D01*
X013748Y020022D01*
X013498Y020272D01*
X013498Y020772D01*
X013748Y021022D01*
X013498Y021272D01*
X013498Y021772D01*
X013748Y022022D01*
X013498Y022272D01*
X013498Y022772D01*
X013748Y023022D01*
X013498Y023272D01*
X013498Y023772D01*
X013748Y024022D01*
X013498Y024272D01*
X013498Y024772D01*
X013748Y025022D01*
X013498Y025272D01*
X013498Y025772D01*
X013748Y026022D01*
X013498Y026272D01*
X013498Y026772D01*
X013748Y027022D01*
X014248Y027022D01*
X014498Y026772D01*
X014498Y026272D01*
X014248Y026022D01*
X014498Y025772D01*
X014498Y025272D01*
X014248Y025022D01*
X014498Y024772D01*
X014498Y024272D01*
X014248Y024022D01*
X014498Y023772D01*
X014498Y023272D01*
X014248Y023022D01*
X014498Y022772D01*
X014498Y022272D01*
X014248Y022022D01*
X014498Y021772D01*
X014498Y021272D01*
X014248Y021022D01*
X014498Y020772D01*
X014498Y020272D01*
X014248Y020022D01*
X014498Y019772D01*
X014498Y019272D01*
X014248Y019022D01*
X013748Y019022D01*
X014248Y019022D01*
X014498Y018772D01*
X014498Y018272D01*
X014248Y018022D01*
X014498Y017772D01*
X014498Y017272D01*
X014248Y017022D01*
X014498Y016772D01*
X014498Y016272D01*
X014248Y016022D01*
X014498Y015772D01*
X014498Y015272D01*
X014248Y015022D01*
X014498Y014772D01*
X014498Y014272D01*
X014248Y014022D01*
X014498Y013772D01*
X014498Y013272D01*
X014248Y013022D01*
X014498Y012772D01*
X014498Y012272D01*
X014248Y012022D01*
X014498Y011772D01*
X014498Y011272D01*
X014248Y011022D01*
X014498Y010772D01*
X014498Y010272D01*
X014248Y010022D01*
X014498Y009772D01*
X014498Y009272D01*
X014248Y009022D01*
X014498Y008772D01*
X014498Y008272D01*
X014248Y008022D01*
X014498Y007772D01*
X014498Y007272D01*
X014248Y007022D01*
X014498Y006772D01*
X014498Y006272D01*
X014248Y006022D01*
X014498Y005772D01*
X014498Y005272D01*
X014248Y005022D01*
X014498Y004772D01*
X014498Y004272D01*
X014248Y004022D01*
X014498Y003772D01*
X014498Y003272D01*
X014248Y003022D01*
X013748Y003022D01*
X013498Y003272D01*
X013498Y003772D01*
X013748Y004022D01*
X013498Y004272D01*
X013498Y004772D01*
X013748Y005022D01*
X013498Y005272D01*
X013498Y005772D01*
X013748Y006022D01*
X013498Y006272D01*
X013498Y006772D01*
X013748Y007022D01*
X013498Y007272D01*
X013498Y007772D01*
X013748Y008022D01*
X013498Y008272D01*
X013498Y008772D01*
X013748Y009022D01*
X013498Y009272D01*
X013498Y009772D01*
X013748Y010022D01*
X013498Y010272D01*
X013498Y010772D01*
X013748Y011022D01*
X014248Y011022D01*
X013748Y011022D01*
X013498Y011272D01*
X013498Y011772D01*
X013748Y012022D01*
X013498Y012272D01*
X013498Y012772D01*
X013748Y013022D01*
X013498Y013272D01*
X013498Y013772D01*
X013748Y014022D01*
X013498Y014272D01*
X013498Y014772D01*
X013748Y015022D01*
X013498Y015272D01*
X013248Y016312D02*
X013108Y016312D01*
X013038Y016382D01*
X013038Y016522D02*
X013178Y016592D01*
X013248Y016592D01*
X013318Y016522D01*
X013318Y016382D01*
X013248Y016312D01*
X013038Y016522D02*
X013038Y016733D01*
X013318Y016733D01*
X013248Y017312D02*
X013318Y017382D01*
X013318Y017452D01*
X013248Y017522D01*
X013038Y017522D01*
X013038Y017382D01*
X013108Y017312D01*
X013248Y017312D01*
X013038Y017522D02*
X013178Y017662D01*
X013318Y017733D01*
X013038Y018312D02*
X013038Y018382D01*
X013318Y018662D01*
X013318Y018733D01*
X013038Y018733D01*
X013148Y018972D02*
X012748Y018972D01*
X012748Y018772D01*
X012748Y011072D01*
X013098Y011072D01*
X013098Y010922D02*
X012748Y010922D01*
X012748Y010772D01*
X012748Y003072D01*
X013098Y003072D01*
X013108Y003312D02*
X013038Y003382D01*
X013318Y003662D01*
X013318Y003382D01*
X013248Y003312D01*
X013108Y003312D01*
X013038Y003382D02*
X013038Y003662D01*
X013108Y003733D01*
X013248Y003733D01*
X013318Y003662D01*
X013318Y004312D02*
X013038Y004312D01*
X013178Y004312D02*
X013178Y004733D01*
X013038Y004592D01*
X013038Y005312D02*
X013318Y005592D01*
X013318Y005662D01*
X013248Y005733D01*
X013108Y005733D01*
X013038Y005662D01*
X013038Y005312D02*
X013318Y005312D01*
X013248Y006312D02*
X013108Y006312D01*
X013038Y006382D01*
X013178Y006522D02*
X013248Y006522D01*
X013318Y006452D01*
X013318Y006382D01*
X013248Y006312D01*
X013248Y006522D02*
X013318Y006592D01*
X013318Y006662D01*
X013248Y006733D01*
X013108Y006733D01*
X013038Y006662D01*
X013248Y007312D02*
X013248Y007733D01*
X013038Y007522D01*
X013318Y007522D01*
X013248Y008312D02*
X013108Y008312D01*
X013038Y008382D01*
X013038Y008522D02*
X013178Y008592D01*
X013248Y008592D01*
X013318Y008522D01*
X013318Y008382D01*
X013248Y008312D01*
X013038Y008522D02*
X013038Y008733D01*
X013318Y008733D01*
X013248Y009312D02*
X013318Y009382D01*
X013318Y009452D01*
X013248Y009522D01*
X013038Y009522D01*
X013038Y009382D01*
X013108Y009312D01*
X013248Y009312D01*
X013038Y009522D02*
X013178Y009662D01*
X013318Y009733D01*
X013038Y010312D02*
X013038Y010382D01*
X013318Y010662D01*
X013318Y010733D01*
X013038Y010733D01*
X013108Y011312D02*
X013038Y011382D01*
X013318Y011662D01*
X013318Y011382D01*
X013248Y011312D01*
X013108Y011312D01*
X013038Y011382D02*
X013038Y011662D01*
X013108Y011733D01*
X013248Y011733D01*
X013318Y011662D01*
X013318Y012312D02*
X013038Y012312D01*
X013178Y012312D02*
X013178Y012733D01*
X013038Y012592D01*
X013038Y013312D02*
X013318Y013592D01*
X013318Y013662D01*
X013248Y013733D01*
X013108Y013733D01*
X013038Y013662D01*
X013038Y013312D02*
X013318Y013312D01*
X012538Y008494D02*
X012258Y008494D01*
X012187Y008424D01*
X012187Y008214D01*
X012608Y008214D01*
X012608Y008424D01*
X012538Y008494D01*
X012187Y007574D02*
X012187Y007293D01*
X012187Y007433D02*
X012608Y007433D01*
X012608Y007113D02*
X012468Y006973D01*
X012468Y007043D02*
X012468Y006833D01*
X012608Y006833D02*
X012187Y006833D01*
X012187Y007043D01*
X012258Y007113D01*
X012398Y007113D01*
X012468Y007043D01*
X012538Y006653D02*
X012258Y006653D01*
X012187Y006583D01*
X012187Y006443D01*
X012258Y006373D01*
X012538Y006373D01*
X012608Y006443D01*
X012608Y006583D01*
X012538Y006653D01*
X012398Y006192D02*
X012468Y006122D01*
X012468Y005912D01*
X012608Y005912D02*
X012187Y005912D01*
X012187Y006122D01*
X012258Y006192D01*
X012398Y006192D01*
X011998Y006416D02*
X011998Y007629D01*
X011486Y008022D02*
X010510Y008022D01*
X010498Y007022D02*
X010536Y007213D01*
X010644Y007376D01*
X010807Y007484D01*
X010998Y007522D01*
X011189Y007484D01*
X011352Y007376D01*
X011460Y007213D01*
X011498Y007022D01*
X011460Y006831D01*
X011352Y006668D01*
X011189Y006560D01*
X010998Y006522D01*
X010807Y006560D01*
X010644Y006668D01*
X010536Y006831D01*
X010498Y007022D01*
X009998Y006416D02*
X009998Y007629D01*
X009808Y007674D02*
X009808Y007393D01*
X009387Y007393D01*
X009387Y007674D01*
X009387Y007854D02*
X009387Y008134D01*
X009387Y007994D02*
X009808Y007994D01*
X009598Y007533D02*
X009598Y007393D01*
X009668Y007213D02*
X009738Y007213D01*
X009808Y007143D01*
X009808Y007003D01*
X009738Y006933D01*
X009598Y007003D02*
X009598Y007143D01*
X009668Y007213D01*
X009458Y007213D02*
X009387Y007143D01*
X009387Y007003D01*
X009458Y006933D01*
X009528Y006933D01*
X009598Y007003D01*
X009808Y006753D02*
X009808Y006473D01*
X009387Y006473D01*
X009387Y006753D01*
X009598Y006613D02*
X009598Y006473D01*
X009598Y006292D02*
X009458Y006292D01*
X009387Y006222D01*
X009387Y006012D01*
X009808Y006012D01*
X009668Y006012D02*
X009668Y006222D01*
X009598Y006292D01*
X009668Y006152D02*
X009808Y006292D01*
X010498Y006022D02*
X011486Y006022D01*
X011658Y003413D02*
X011658Y003133D01*
X011658Y003273D02*
X011237Y003273D01*
X011378Y003133D01*
X011237Y002953D02*
X011658Y002673D01*
X011658Y002492D02*
X011518Y002352D01*
X011518Y002422D02*
X011518Y002212D01*
X011658Y002212D02*
X011237Y002212D01*
X011237Y002422D01*
X011308Y002492D01*
X011448Y002492D01*
X011518Y002422D01*
X011237Y002673D02*
X011658Y002953D01*
X012237Y002953D02*
X012658Y002673D01*
X012658Y002953D02*
X012237Y002673D01*
X012237Y002492D02*
X012237Y002212D01*
X012237Y002352D02*
X012658Y002352D01*
X012748Y002022D02*
X012998Y001772D01*
X012998Y001272D01*
X012748Y001022D01*
X012248Y001022D01*
X011998Y001272D01*
X011748Y001022D01*
X011248Y001022D01*
X010998Y001272D01*
X010748Y001022D01*
X010248Y001022D01*
X009998Y001272D01*
X009748Y001022D01*
X009248Y001022D01*
X008998Y001272D01*
X008998Y001772D01*
X009248Y002022D01*
X009748Y002022D01*
X009998Y001772D01*
X010248Y002022D01*
X010748Y002022D01*
X010998Y001772D01*
X011248Y002022D01*
X011748Y002022D01*
X011998Y001772D01*
X012248Y002022D01*
X012748Y002022D01*
X012658Y003133D02*
X012658Y003413D01*
X012658Y003273D02*
X012237Y003273D01*
X012378Y003133D01*
X010658Y003133D02*
X010658Y003343D01*
X010588Y003413D01*
X010308Y003413D01*
X010237Y003343D01*
X010237Y003133D01*
X010658Y003133D01*
X010658Y002953D02*
X010237Y002953D01*
X010237Y002673D02*
X010658Y002953D01*
X010658Y002673D02*
X010237Y002673D01*
X010308Y002492D02*
X010237Y002422D01*
X010237Y002282D01*
X010308Y002212D01*
X010588Y002212D01*
X010658Y002282D01*
X010658Y002422D01*
X010588Y002492D01*
X010448Y002492D01*
X010448Y002352D01*
X009658Y002282D02*
X009588Y002212D01*
X009658Y002282D02*
X009658Y002422D01*
X009588Y002492D01*
X009518Y002492D01*
X009448Y002422D01*
X009448Y002352D01*
X009448Y002422D02*
X009378Y002492D01*
X009308Y002492D01*
X009237Y002422D01*
X009237Y002282D01*
X009308Y002212D01*
X009588Y002673D02*
X009588Y002743D01*
X009658Y002743D01*
X009658Y002673D01*
X009588Y002673D01*
X009588Y002903D02*
X009658Y002973D01*
X009658Y003113D01*
X009588Y003183D01*
X009518Y003183D01*
X009448Y003113D01*
X009448Y003043D01*
X009448Y003113D02*
X009378Y003183D01*
X009308Y003183D01*
X009237Y003113D01*
X009237Y002973D01*
X009308Y002903D01*
X008998Y002772D02*
X008998Y001272D01*
X008748Y001022D01*
X008248Y001022D01*
X007998Y001272D01*
X007998Y002772D01*
X007748Y003022D01*
X007248Y003022D01*
X006998Y002772D01*
X006998Y001272D01*
X006748Y001022D01*
X006248Y001022D01*
X005998Y001272D01*
X005998Y002772D01*
X006248Y003022D01*
X006748Y003022D01*
X006998Y002772D01*
X006388Y003612D02*
X006528Y003752D01*
X006528Y004033D01*
X006356Y004251D02*
X005687Y004251D01*
X005788Y004033D02*
X005788Y003822D01*
X005928Y003892D01*
X005998Y003892D01*
X006068Y003822D01*
X006068Y003682D01*
X005998Y003612D01*
X005858Y003612D01*
X005788Y003682D01*
X005788Y004033D02*
X006068Y004033D01*
X006248Y004033D02*
X006248Y003752D01*
X006388Y003612D01*
X006356Y004251D02*
X006356Y007794D01*
X005726Y007794D01*
X006931Y009341D02*
X006931Y009522D01*
X007053Y009614D01*
X006931Y009703D02*
X006931Y009522D01*
X006937Y009512D02*
X007053Y009436D01*
X006959Y010562D02*
X007099Y010702D01*
X007239Y010562D01*
X007239Y010983D01*
X007419Y010983D02*
X007419Y010562D01*
X007699Y010562D01*
X007879Y010562D02*
X007879Y010983D01*
X008089Y010983D01*
X008159Y010912D01*
X008159Y010772D01*
X008089Y010702D01*
X007879Y010702D01*
X008019Y010702D02*
X008159Y010562D01*
X007699Y010983D02*
X007419Y010983D01*
X007419Y010772D02*
X007559Y010772D01*
X006959Y010562D02*
X006959Y010983D01*
X006778Y010912D02*
X006778Y010632D01*
X006708Y010562D01*
X006568Y010562D01*
X006498Y010632D01*
X006498Y010912D01*
X006568Y010983D01*
X006708Y010983D01*
X006778Y010912D01*
X006318Y010912D02*
X006318Y010772D01*
X006248Y010702D01*
X006038Y010702D01*
X006038Y010562D02*
X006038Y010983D01*
X006248Y010983D01*
X006318Y010912D01*
X007329Y008082D02*
X007667Y008082D01*
X007179Y007628D02*
X007179Y007417D01*
X007329Y006962D02*
X007667Y006962D01*
X007604Y006495D02*
X007014Y006495D01*
X007014Y005550D01*
X007604Y005550D01*
X008391Y005550D02*
X008825Y005550D01*
X008982Y005707D01*
X008982Y006337D01*
X008825Y006495D01*
X008391Y006495D01*
X009237Y003643D02*
X009518Y003643D01*
X009658Y003503D01*
X009518Y003363D01*
X009237Y003363D01*
X008748Y003022D02*
X008998Y002772D01*
X008748Y003022D02*
X008248Y003022D01*
X007998Y002772D01*
X008248Y003154D02*
X008748Y003154D01*
X007998Y001272D02*
X007748Y001022D01*
X007248Y001022D01*
X006998Y001272D01*
X005489Y002332D02*
X005419Y002262D01*
X005279Y002262D01*
X005209Y002332D01*
X005209Y002612D01*
X005279Y002683D01*
X005419Y002683D01*
X005489Y002612D01*
X005028Y002612D02*
X004958Y002683D01*
X004818Y002683D01*
X004748Y002612D01*
X004748Y002332D01*
X004818Y002262D01*
X004958Y002262D01*
X005028Y002332D01*
X004748Y002022D02*
X004998Y001772D01*
X004998Y001272D01*
X004748Y001022D01*
X004248Y001022D01*
X003998Y001272D01*
X003748Y001022D01*
X003248Y001022D01*
X002998Y001272D01*
X002998Y001772D01*
X003248Y002022D01*
X003748Y002022D01*
X003998Y001772D01*
X004248Y002022D01*
X004748Y002022D01*
X004428Y002262D02*
X004568Y002402D01*
X004568Y002683D01*
X004288Y002683D02*
X004288Y002402D01*
X004428Y002262D01*
X003758Y002332D02*
X003758Y002612D01*
X003688Y002683D01*
X003477Y002683D01*
X003477Y002262D01*
X003688Y002262D01*
X003758Y002332D01*
X003297Y002262D02*
X003297Y002683D01*
X003017Y002683D02*
X003017Y002262D01*
X002837Y002332D02*
X002837Y002472D01*
X002697Y002472D01*
X002837Y002332D02*
X002767Y002262D01*
X002627Y002262D01*
X002557Y002332D01*
X002557Y002612D01*
X002627Y002683D01*
X002767Y002683D01*
X002837Y002612D01*
X003017Y002683D02*
X003297Y002262D01*
X003285Y004251D02*
X004112Y004251D01*
X004112Y007794D02*
X003285Y007794D01*
X002398Y022312D02*
X002398Y022733D01*
X002188Y022522D01*
X002468Y022522D01*
X011577Y024562D02*
X011857Y024562D01*
X011717Y024562D02*
X011717Y024983D01*
X011577Y024842D01*
X012137Y024094D02*
X012137Y023814D01*
X012558Y023814D01*
X012558Y024094D01*
X012348Y023954D02*
X012348Y023814D01*
X012137Y023174D02*
X012137Y022893D01*
X012137Y023033D02*
X012558Y023033D01*
X012558Y022713D02*
X012418Y022573D01*
X012418Y022643D02*
X012418Y022433D01*
X012558Y022433D02*
X012137Y022433D01*
X012137Y022643D01*
X012208Y022713D01*
X012348Y022713D01*
X012418Y022643D01*
X012488Y022253D02*
X012208Y022253D01*
X012137Y022183D01*
X012137Y022043D01*
X012208Y021973D01*
X012488Y021973D01*
X012558Y022043D01*
X012558Y022183D01*
X012488Y022253D01*
X012348Y021792D02*
X012208Y021792D01*
X012137Y021722D01*
X012137Y021512D01*
X012558Y021512D01*
X012418Y021512D02*
X012418Y021722D01*
X012348Y021792D01*
X013038Y021662D02*
X013108Y021733D01*
X013248Y021733D01*
X013318Y021662D01*
X013318Y021592D01*
X013038Y021312D01*
X013318Y021312D01*
X013178Y020733D02*
X013038Y020592D01*
X013178Y020733D02*
X013178Y020312D01*
X013038Y020312D02*
X013318Y020312D01*
X013248Y019733D02*
X013318Y019662D01*
X013038Y019382D01*
X013108Y019312D01*
X013248Y019312D01*
X013318Y019382D01*
X013318Y019662D01*
X013248Y019733D02*
X013108Y019733D01*
X013038Y019662D01*
X013038Y019382D01*
X013148Y019122D02*
X012748Y019122D01*
X012748Y026572D01*
X012748Y027022D01*
X013148Y027022D01*
X013038Y026733D02*
X013318Y026733D01*
X013318Y026662D01*
X013038Y026382D01*
X013038Y026312D01*
X013318Y025733D02*
X013178Y025662D01*
X013038Y025522D01*
X013248Y025522D01*
X013318Y025452D01*
X013318Y025382D01*
X013248Y025312D01*
X013108Y025312D01*
X013038Y025382D01*
X013038Y025522D01*
X013038Y024733D02*
X013038Y024522D01*
X013178Y024592D01*
X013248Y024592D01*
X013318Y024522D01*
X013318Y024382D01*
X013248Y024312D01*
X013108Y024312D01*
X013038Y024382D01*
X013038Y024733D02*
X013318Y024733D01*
X013248Y023733D02*
X013038Y023522D01*
X013318Y023522D01*
X013248Y023312D02*
X013248Y023733D01*
X013248Y022733D02*
X013318Y022662D01*
X013318Y022592D01*
X013248Y022522D01*
X013318Y022452D01*
X013318Y022382D01*
X013248Y022312D01*
X013108Y022312D01*
X013038Y022382D01*
X013178Y022522D02*
X013248Y022522D01*
X013248Y022733D02*
X013108Y022733D01*
X013038Y022662D01*
D11*
X011048Y019534D02*
X011048Y019510D01*
X009510Y023022D02*
X009486Y023022D01*
X006510Y023022D02*
X006486Y023022D01*
X005510Y024522D02*
X005486Y024522D01*
X004498Y024034D02*
X004498Y024010D01*
X003510Y025022D02*
X003486Y025022D01*
X005486Y014522D02*
X005510Y014522D01*
X007486Y014522D02*
X007510Y014522D01*
X009486Y015022D02*
X009510Y015022D01*
X008498Y008534D02*
X008498Y008510D01*
X006998Y008534D02*
X006998Y008510D01*
X007498Y005034D02*
X007498Y005010D01*
D12*
X007362Y015904D02*
X007362Y016140D01*
X007834Y016140D02*
X007834Y015904D01*
X006084Y022904D02*
X006084Y023140D01*
X005612Y023140D02*
X005612Y022904D01*
D13*
X004911Y024778D02*
X004872Y024778D01*
X004911Y024778D02*
X004911Y024940D01*
X004911Y025270D01*
X004884Y025270D01*
X004818Y025073D02*
X004823Y025086D01*
X004836Y025091D01*
X004849Y025086D01*
X004854Y025073D01*
X004849Y025060D01*
X004836Y025055D01*
X004823Y025060D01*
X004818Y025073D01*
X004651Y025270D02*
X004640Y025270D01*
X004391Y025270D02*
X004384Y025270D01*
X004163Y025270D02*
X004124Y025270D01*
X004124Y024869D01*
X004124Y024778D01*
X004147Y024778D01*
X004388Y024778D02*
X004391Y024778D01*
X004640Y024778D02*
X004647Y024778D01*
D14*
X006998Y010022D03*
X010998Y005022D03*
D15*
X010442Y010528D02*
X010465Y010532D01*
X010515Y010549D01*
X010538Y010561D01*
X010559Y010578D01*
X010576Y010598D01*
X010606Y010645D01*
X010621Y010679D01*
X010630Y010715D01*
X010637Y010816D01*
X010635Y010868D01*
X010628Y010920D01*
X010617Y010960D01*
X010599Y010996D01*
X010575Y011030D01*
X010546Y011058D01*
X010524Y011073D01*
X010499Y011084D01*
X010473Y011089D01*
X010432Y011092D01*
X010390Y011089D01*
X010351Y011075D01*
X010335Y011065D01*
X010321Y011052D01*
X010301Y011025D01*
X010285Y010995D01*
X010261Y010930D01*
X010246Y010862D01*
X010230Y010782D01*
X010219Y010752D01*
X010202Y010724D01*
X010189Y010712D01*
X010174Y010704D01*
X010158Y010701D01*
X010142Y010703D01*
X010127Y010710D01*
X010076Y010710D01*
X010084Y010710D02*
X009998Y010710D01*
X009998Y010711D02*
X010014Y010657D01*
X010040Y010606D01*
X010054Y010588D01*
X010072Y010572D01*
X010093Y010560D01*
X010135Y010546D01*
X010180Y010541D01*
X010225Y010545D01*
X010244Y010551D01*
X010262Y010561D01*
X010277Y010574D01*
X010298Y010601D01*
X010315Y010630D01*
X010327Y010662D01*
X010361Y010805D01*
X010373Y010852D01*
X010392Y010896D01*
X010402Y010910D01*
X010414Y010922D01*
X010430Y010929D01*
X010447Y010933D01*
X010464Y010932D01*
X010480Y010927D01*
X010495Y010918D01*
X010507Y010906D01*
X010520Y010885D01*
X010528Y010862D01*
X010531Y010837D01*
X010531Y010784D01*
X010528Y010761D01*
X010519Y010737D01*
X010505Y010715D01*
X010487Y010697D01*
X010469Y010687D01*
X010450Y010680D01*
X010430Y010679D01*
X010428Y010679D01*
X010428Y010527D01*
X010576Y010808D01*
X010540Y010970D01*
X010409Y011014D01*
X010395Y011007D01*
X010206Y010682D01*
X010098Y010663D01*
X010053Y010812D01*
X010106Y010978D01*
X010163Y011055D01*
X010149Y011074D01*
X010127Y011066D01*
X010096Y011052D01*
X010078Y011041D01*
X010063Y011027D01*
X010033Y010989D01*
X010012Y010946D01*
X009997Y010893D01*
X009992Y010838D01*
X009992Y010767D01*
X009998Y010711D01*
X009997Y010719D02*
X010081Y010719D01*
X010074Y010719D02*
X010117Y010719D01*
X010115Y010720D02*
X010107Y010733D01*
X010100Y010751D01*
X010097Y010769D01*
X010095Y010803D01*
X010097Y010837D01*
X010101Y010858D01*
X010109Y010877D01*
X010120Y010894D01*
X010131Y010906D01*
X010144Y010915D01*
X010159Y010921D01*
X010169Y010924D01*
X010180Y010924D01*
X010180Y011077D01*
X010152Y011074D01*
X010101Y010993D01*
X010049Y010814D01*
X010092Y010649D01*
X010212Y010670D01*
X010315Y010843D01*
X010406Y011010D01*
X010534Y010967D01*
X010569Y010812D01*
X010428Y010527D01*
X010442Y010528D01*
X010430Y010531D02*
X010428Y010531D01*
X010430Y010531D02*
X010456Y010531D01*
X010434Y010539D02*
X010428Y010539D01*
X010434Y010539D02*
X010486Y010539D01*
X010511Y010548D02*
X010438Y010548D01*
X010439Y010548D02*
X010428Y010548D01*
X010428Y010556D02*
X010443Y010556D01*
X010442Y010556D02*
X010529Y010556D01*
X010543Y010565D02*
X010446Y010565D01*
X010448Y010565D02*
X010428Y010565D01*
X010428Y010573D02*
X010452Y010573D01*
X010451Y010573D02*
X010553Y010573D01*
X010562Y010582D02*
X010455Y010582D01*
X010457Y010582D02*
X010428Y010582D01*
X010428Y010591D02*
X010461Y010591D01*
X010459Y010591D02*
X010569Y010591D01*
X010576Y010599D02*
X010463Y010599D01*
X010466Y010599D02*
X010428Y010599D01*
X010428Y010608D02*
X010470Y010608D01*
X010468Y010608D02*
X010582Y010608D01*
X010587Y010616D02*
X010472Y010616D01*
X010475Y010616D02*
X010428Y010616D01*
X010428Y010625D02*
X010479Y010625D01*
X010476Y010625D02*
X010593Y010625D01*
X010598Y010633D02*
X010480Y010633D01*
X010484Y010633D02*
X010428Y010633D01*
X010428Y010642D02*
X010488Y010642D01*
X010485Y010642D02*
X010604Y010642D01*
X010608Y010650D02*
X010489Y010650D01*
X010493Y010650D02*
X010428Y010650D01*
X010428Y010659D02*
X010497Y010659D01*
X010493Y010659D02*
X010612Y010659D01*
X010616Y010667D02*
X010497Y010667D01*
X010502Y010667D02*
X010428Y010667D01*
X010428Y010676D02*
X010506Y010676D01*
X010501Y010676D02*
X010620Y010676D01*
X010623Y010685D02*
X010506Y010685D01*
X010511Y010685D02*
X010463Y010685D01*
X010480Y010693D02*
X010515Y010693D01*
X010510Y010693D02*
X010625Y010693D01*
X010627Y010702D02*
X010514Y010702D01*
X010520Y010702D02*
X010491Y010702D01*
X010500Y010710D02*
X010524Y010710D01*
X010518Y010710D02*
X010629Y010710D01*
X010630Y010719D02*
X010523Y010719D01*
X010529Y010719D02*
X010507Y010719D01*
X010513Y010727D02*
X010533Y010727D01*
X010527Y010727D02*
X010631Y010727D01*
X010631Y010736D02*
X010531Y010736D01*
X010538Y010736D02*
X010518Y010736D01*
X010522Y010744D02*
X010542Y010744D01*
X010535Y010744D02*
X010632Y010744D01*
X010632Y010753D02*
X010539Y010753D01*
X010547Y010753D02*
X010525Y010753D01*
X010528Y010761D02*
X010551Y010761D01*
X010544Y010761D02*
X010633Y010761D01*
X010634Y010770D02*
X010548Y010770D01*
X010556Y010770D02*
X010529Y010770D01*
X010530Y010779D02*
X010560Y010779D01*
X010552Y010779D02*
X010634Y010779D01*
X010635Y010787D02*
X010556Y010787D01*
X010565Y010787D02*
X010531Y010787D01*
X010531Y010796D02*
X010569Y010796D01*
X010561Y010796D02*
X010635Y010796D01*
X010636Y010804D02*
X010565Y010804D01*
X010574Y010804D02*
X010531Y010804D01*
X010531Y010813D02*
X010575Y010813D01*
X010569Y010813D02*
X010637Y010813D01*
X010637Y010821D02*
X010567Y010821D01*
X010573Y010821D02*
X010531Y010821D01*
X010531Y010830D02*
X010571Y010830D01*
X010565Y010830D02*
X010636Y010830D01*
X010636Y010838D02*
X010563Y010838D01*
X010569Y010838D02*
X010531Y010838D01*
X010530Y010847D02*
X010567Y010847D01*
X010561Y010847D02*
X010636Y010847D01*
X010635Y010855D02*
X010559Y010855D01*
X010565Y010855D02*
X010529Y010855D01*
X010527Y010864D02*
X010563Y010864D01*
X010557Y010864D02*
X010635Y010864D01*
X010634Y010872D02*
X010555Y010872D01*
X010562Y010872D02*
X010524Y010872D01*
X010521Y010881D02*
X010560Y010881D01*
X010553Y010881D02*
X010633Y010881D01*
X010632Y010890D02*
X010551Y010890D01*
X010558Y010890D02*
X010517Y010890D01*
X010512Y010898D02*
X010556Y010898D01*
X010549Y010898D02*
X010631Y010898D01*
X010630Y010907D02*
X010547Y010907D01*
X010554Y010907D02*
X010506Y010907D01*
X010498Y010915D02*
X010552Y010915D01*
X010546Y010915D02*
X010629Y010915D01*
X010627Y010924D02*
X010544Y010924D01*
X010550Y010924D02*
X010486Y010924D01*
X010462Y010932D02*
X010548Y010932D01*
X010542Y010932D02*
X010624Y010932D01*
X010622Y010941D02*
X010540Y010941D01*
X010546Y010941D02*
X010356Y010941D01*
X010361Y010949D02*
X010544Y010949D01*
X010538Y010949D02*
X010620Y010949D01*
X010617Y010958D02*
X010536Y010958D01*
X010543Y010958D02*
X010366Y010958D01*
X010371Y010966D02*
X010541Y010966D01*
X010534Y010966D02*
X010613Y010966D01*
X010609Y010975D02*
X010511Y010975D01*
X010500Y010984D02*
X010381Y010984D01*
X010386Y010992D02*
X010475Y010992D01*
X010485Y010984D02*
X010605Y010984D01*
X010601Y010992D02*
X010460Y010992D01*
X010449Y011001D02*
X010391Y011001D01*
X010401Y011001D02*
X010288Y011001D01*
X010292Y011009D02*
X010405Y011009D01*
X010409Y011009D02*
X010590Y011009D01*
X010596Y011001D02*
X010434Y011001D01*
X010424Y011009D02*
X010399Y011009D01*
X010396Y010992D02*
X010284Y010992D01*
X010281Y010984D02*
X010391Y010984D01*
X010387Y010975D02*
X010277Y010975D01*
X010274Y010966D02*
X010382Y010966D01*
X010377Y010958D02*
X010271Y010958D01*
X010268Y010949D02*
X010373Y010949D01*
X010368Y010941D02*
X010265Y010941D01*
X010262Y010932D02*
X010363Y010932D01*
X010359Y010924D02*
X010259Y010924D01*
X010258Y010915D02*
X010354Y010915D01*
X010349Y010907D02*
X010256Y010907D01*
X010254Y010898D02*
X010345Y010898D01*
X010340Y010890D02*
X010252Y010890D01*
X010250Y010881D02*
X010335Y010881D01*
X010331Y010872D02*
X010248Y010872D01*
X010246Y010864D02*
X010326Y010864D01*
X010321Y010855D02*
X010244Y010855D01*
X010243Y010847D02*
X010317Y010847D01*
X010312Y010838D02*
X010241Y010838D01*
X010239Y010830D02*
X010307Y010830D01*
X010302Y010821D02*
X010238Y010821D01*
X010236Y010813D02*
X010297Y010813D01*
X010292Y010804D02*
X010234Y010804D01*
X010232Y010796D02*
X010286Y010796D01*
X010281Y010787D02*
X010231Y010787D01*
X010228Y010779D02*
X010276Y010779D01*
X010271Y010770D02*
X010225Y010770D01*
X010222Y010761D02*
X010266Y010761D01*
X010261Y010753D02*
X010219Y010753D01*
X010214Y010744D02*
X010256Y010744D01*
X010251Y010736D02*
X010209Y010736D01*
X010204Y010727D02*
X010246Y010727D01*
X010241Y010719D02*
X010196Y010719D01*
X010185Y010710D02*
X010236Y010710D01*
X010231Y010702D02*
X010159Y010702D01*
X010156Y010702D02*
X010078Y010702D01*
X010086Y010702D02*
X010001Y010702D01*
X010003Y010693D02*
X010089Y010693D01*
X010080Y010693D02*
X010225Y010693D01*
X010220Y010685D02*
X010083Y010685D01*
X010091Y010685D02*
X010006Y010685D01*
X010008Y010676D02*
X010094Y010676D01*
X010097Y010667D02*
X010011Y010667D01*
X010013Y010659D02*
X010326Y010659D01*
X010328Y010667D02*
X010122Y010667D01*
X010147Y010659D02*
X010089Y010659D01*
X010087Y010667D02*
X010196Y010667D01*
X010207Y010685D02*
X010332Y010685D01*
X010334Y010693D02*
X010212Y010693D01*
X010217Y010702D02*
X010336Y010702D01*
X010338Y010710D02*
X010222Y010710D01*
X010227Y010719D02*
X010340Y010719D01*
X010342Y010727D02*
X010232Y010727D01*
X010237Y010736D02*
X010344Y010736D01*
X010346Y010744D02*
X010242Y010744D01*
X010247Y010753D02*
X010348Y010753D01*
X010350Y010761D02*
X010252Y010761D01*
X010257Y010770D02*
X010352Y010770D01*
X010354Y010779D02*
X010262Y010779D01*
X010267Y010787D02*
X010356Y010787D01*
X010359Y010796D02*
X010272Y010796D01*
X010277Y010804D02*
X010361Y010804D01*
X010363Y010813D02*
X010282Y010813D01*
X010287Y010821D02*
X010365Y010821D01*
X010367Y010830D02*
X010292Y010830D01*
X010297Y010838D02*
X010369Y010838D01*
X010372Y010847D02*
X010302Y010847D01*
X010307Y010855D02*
X010374Y010855D01*
X010378Y010864D02*
X010311Y010864D01*
X010316Y010872D02*
X010382Y010872D01*
X010385Y010881D02*
X010321Y010881D01*
X010326Y010890D02*
X010389Y010890D01*
X010393Y010898D02*
X010331Y010898D01*
X010336Y010907D02*
X010399Y010907D01*
X010407Y010915D02*
X010341Y010915D01*
X010346Y010924D02*
X010419Y010924D01*
X010444Y010932D02*
X010351Y010932D01*
X010376Y010975D02*
X010526Y010975D01*
X010584Y011018D02*
X010297Y011018D01*
X010302Y011026D02*
X010577Y011026D01*
X010570Y011035D02*
X010308Y011035D01*
X010314Y011043D02*
X010561Y011043D01*
X010552Y011052D02*
X010321Y011052D01*
X010329Y011060D02*
X010542Y011060D01*
X010530Y011069D02*
X010341Y011069D01*
X010358Y011078D02*
X010513Y011078D01*
X010488Y011086D02*
X010383Y011086D01*
X010366Y011331D02*
X010265Y011330D01*
X010232Y011335D01*
X010200Y011345D01*
X010172Y011362D01*
X010144Y011386D01*
X010122Y011415D01*
X010115Y011430D01*
X010112Y011445D01*
X010002Y011445D01*
X009999Y011453D02*
X010111Y011453D01*
X010112Y011445D02*
X010110Y011488D01*
X010112Y011511D01*
X010118Y011534D01*
X010129Y011554D01*
X010154Y011585D01*
X010186Y011609D01*
X010223Y011625D01*
X010262Y011633D01*
X010340Y011633D01*
X010418Y011621D01*
X010449Y011609D01*
X010476Y011590D01*
X010497Y011564D01*
X010511Y011534D01*
X010518Y011498D01*
X010518Y011461D01*
X010512Y011432D01*
X010500Y011404D01*
X010485Y011383D01*
X010466Y011366D01*
X010443Y011354D01*
X010440Y011352D01*
X010437Y011350D01*
X010433Y011349D01*
X010431Y011349D01*
X010434Y011346D01*
X010551Y011346D01*
X010579Y011367D01*
X010602Y011393D01*
X010619Y011423D01*
X010630Y011456D01*
X010636Y011504D01*
X010635Y011552D01*
X010628Y011600D01*
X010616Y011636D01*
X010599Y011670D01*
X010576Y011700D01*
X010548Y011726D01*
X010501Y011757D01*
X010450Y011779D01*
X010396Y011791D01*
X010309Y011796D01*
X010222Y011785D01*
X010139Y011758D01*
X010098Y011735D01*
X010534Y011735D01*
X010547Y011727D02*
X010088Y011727D01*
X010079Y011718D02*
X010556Y011718D01*
X010566Y011710D02*
X010069Y011710D01*
X010063Y011704D02*
X010098Y011735D01*
X010113Y011744D02*
X010521Y011744D01*
X010508Y011752D02*
X010128Y011752D01*
X010148Y011761D02*
X010491Y011761D01*
X010471Y011770D02*
X010174Y011770D01*
X010201Y011778D02*
X010451Y011778D01*
X010415Y011787D02*
X010237Y011787D01*
X010303Y011795D02*
X010321Y011795D01*
X010363Y011881D02*
X010551Y011881D01*
X010551Y011880D02*
X010570Y011892D01*
X010586Y011907D01*
X010600Y011924D01*
X010624Y011974D01*
X010636Y012028D01*
X010637Y012093D01*
X010628Y012156D01*
X010614Y012197D01*
X010593Y012234D01*
X010565Y012267D01*
X010563Y012269D01*
X010563Y012272D01*
X010564Y012274D01*
X010565Y012276D01*
X010568Y012277D01*
X010609Y012286D01*
X010620Y012289D01*
X010621Y012290D01*
X010622Y012292D01*
X010622Y012293D01*
X010622Y012452D01*
X010614Y012449D01*
X010562Y012435D01*
X010509Y012431D01*
X010338Y012432D01*
X010338Y012271D01*
X010371Y012271D01*
X010414Y012268D01*
X010457Y012260D01*
X010464Y012258D01*
X010474Y012254D01*
X010484Y012247D01*
X010513Y012217D01*
X010521Y012205D01*
X010526Y012191D01*
X010532Y012149D01*
X010530Y012088D01*
X010526Y012069D01*
X010517Y012051D01*
X010505Y012036D01*
X010494Y012028D01*
X010482Y012022D01*
X010469Y012019D01*
X010445Y012019D01*
X010421Y012023D01*
X010399Y012032D01*
X010386Y012041D01*
X010376Y012052D01*
X010364Y012072D01*
X010356Y012093D01*
X010352Y012115D01*
X010346Y012172D01*
X010339Y012211D01*
X010328Y012249D01*
X010324Y012257D01*
X010324Y012256D02*
X010228Y012256D01*
X010224Y012261D02*
X010235Y012249D01*
X010245Y012231D01*
X010333Y012231D01*
X010331Y012239D02*
X010240Y012239D01*
X010245Y012231D02*
X010252Y012212D01*
X010261Y012160D01*
X010270Y012073D01*
X010281Y012013D01*
X010300Y011954D01*
X010314Y011927D01*
X010334Y011903D01*
X010358Y011883D01*
X010392Y011866D01*
X010429Y011858D01*
X010471Y011858D01*
X010512Y011866D01*
X010551Y011880D01*
X010566Y011889D02*
X010351Y011889D01*
X010340Y011898D02*
X010576Y011898D01*
X010586Y011906D02*
X010331Y011906D01*
X010324Y011915D02*
X010593Y011915D01*
X010599Y011923D02*
X010317Y011923D01*
X010312Y011932D02*
X010603Y011932D01*
X010608Y011940D02*
X010307Y011940D01*
X010303Y011949D02*
X010612Y011949D01*
X010616Y011957D02*
X010299Y011957D01*
X010296Y011966D02*
X010620Y011966D01*
X010624Y011975D02*
X010293Y011975D01*
X010290Y011983D02*
X010626Y011983D01*
X010628Y011992D02*
X010288Y011992D01*
X010285Y012000D02*
X010629Y012000D01*
X010631Y012009D02*
X010282Y012009D01*
X010280Y012017D02*
X010633Y012017D01*
X010635Y012026D02*
X010490Y012026D01*
X010502Y012034D02*
X010636Y012034D01*
X010636Y012043D02*
X010510Y012043D01*
X010517Y012051D02*
X010636Y012051D01*
X010636Y012060D02*
X010521Y012060D01*
X010526Y012069D02*
X010637Y012069D01*
X010637Y012077D02*
X010527Y012077D01*
X010529Y012086D02*
X010637Y012086D01*
X010637Y012094D02*
X010530Y012094D01*
X010530Y012103D02*
X010636Y012103D01*
X010635Y012111D02*
X010531Y012111D01*
X010531Y012120D02*
X010633Y012120D01*
X010632Y012128D02*
X010531Y012128D01*
X010531Y012137D02*
X010631Y012137D01*
X010629Y012145D02*
X010532Y012145D01*
X010531Y012154D02*
X010628Y012154D01*
X010626Y012163D02*
X010530Y012163D01*
X010529Y012171D02*
X010623Y012171D01*
X010620Y012180D02*
X010527Y012180D01*
X010526Y012188D02*
X010617Y012188D01*
X010614Y012197D02*
X010524Y012197D01*
X010520Y012205D02*
X010609Y012205D01*
X010604Y012214D02*
X010515Y012214D01*
X010508Y012222D02*
X010600Y012222D01*
X010595Y012231D02*
X010500Y012231D01*
X010491Y012239D02*
X010588Y012239D01*
X010581Y012248D02*
X010483Y012248D01*
X010468Y012256D02*
X010574Y012256D01*
X010567Y012265D02*
X010432Y012265D01*
X010338Y012274D02*
X010564Y012274D01*
X010590Y012282D02*
X010338Y012282D01*
X010334Y012282D02*
X010004Y012282D01*
X010002Y012274D02*
X010334Y012274D01*
X010334Y012271D02*
X010334Y012431D01*
X010144Y012431D01*
X010115Y012428D01*
X010088Y012417D01*
X010064Y012400D01*
X010045Y012378D01*
X010018Y012327D01*
X010001Y012271D01*
X009992Y012203D01*
X009991Y012134D01*
X010000Y012065D01*
X010013Y012017D01*
X010034Y011971D01*
X010056Y011939D01*
X010085Y011912D01*
X010119Y011892D01*
X010156Y011879D01*
X010195Y011873D01*
X010194Y011872D01*
X010194Y012037D01*
X010194Y012039D01*
X010192Y012039D01*
X010170Y012042D01*
X010149Y012049D01*
X010131Y012062D01*
X010116Y012078D01*
X010106Y012097D01*
X010099Y012120D01*
X009993Y012120D01*
X009992Y012128D02*
X010098Y012128D01*
X010099Y012120D02*
X010097Y012144D01*
X010099Y012198D01*
X010101Y012213D01*
X010107Y012228D01*
X010115Y012241D01*
X010125Y012252D01*
X010137Y012260D01*
X010150Y012266D01*
X010171Y012271D01*
X010193Y012271D01*
X010215Y012266D01*
X010220Y012264D01*
X010224Y012261D01*
X010217Y012265D02*
X010316Y012265D01*
X010317Y012264D02*
X010310Y012269D01*
X010310Y012271D01*
X010334Y012271D01*
X010324Y012257D02*
X010317Y012264D01*
X010328Y012248D02*
X010236Y012248D01*
X010248Y012222D02*
X010336Y012222D01*
X010338Y012214D02*
X010251Y012214D01*
X010253Y012205D02*
X010340Y012205D01*
X010342Y012197D02*
X010254Y012197D01*
X010256Y012188D02*
X010343Y012188D01*
X010345Y012180D02*
X010257Y012180D01*
X010259Y012171D02*
X010346Y012171D01*
X010347Y012163D02*
X010260Y012163D01*
X010261Y012154D02*
X010348Y012154D01*
X010349Y012145D02*
X010262Y012145D01*
X010263Y012137D02*
X010350Y012137D01*
X010350Y012128D02*
X010264Y012128D01*
X010265Y012120D02*
X010351Y012120D01*
X010353Y012111D02*
X010266Y012111D01*
X010267Y012103D02*
X010354Y012103D01*
X010356Y012094D02*
X010268Y012094D01*
X010269Y012086D02*
X010359Y012086D01*
X010362Y012077D02*
X010269Y012077D01*
X010271Y012069D02*
X010366Y012069D01*
X010371Y012060D02*
X010272Y012060D01*
X010274Y012051D02*
X010376Y012051D01*
X010384Y012043D02*
X010275Y012043D01*
X010277Y012034D02*
X010396Y012034D01*
X010414Y012026D02*
X010278Y012026D01*
X010194Y012026D02*
X010011Y012026D01*
X010008Y012034D02*
X010194Y012034D01*
X010194Y012017D02*
X010013Y012017D01*
X010017Y012009D02*
X010194Y012009D01*
X010194Y012000D02*
X010021Y012000D01*
X010024Y011992D02*
X010194Y011992D01*
X010194Y011983D02*
X010028Y011983D01*
X010032Y011975D02*
X010194Y011975D01*
X010194Y011966D02*
X010037Y011966D01*
X010043Y011957D02*
X010194Y011957D01*
X010194Y011949D02*
X010049Y011949D01*
X010055Y011940D02*
X010194Y011940D01*
X010194Y011932D02*
X010064Y011932D01*
X010073Y011923D02*
X010194Y011923D01*
X010194Y011915D02*
X010082Y011915D01*
X010095Y011906D02*
X010194Y011906D01*
X010194Y011898D02*
X010109Y011898D01*
X010126Y011889D02*
X010194Y011889D01*
X010194Y011881D02*
X010150Y011881D01*
X010167Y012043D02*
X010006Y012043D01*
X010004Y012051D02*
X010146Y012051D01*
X010134Y012060D02*
X010001Y012060D01*
X009999Y012069D02*
X010125Y012069D01*
X010117Y012077D02*
X009998Y012077D01*
X009997Y012086D02*
X010112Y012086D01*
X010107Y012094D02*
X009996Y012094D01*
X009995Y012103D02*
X010104Y012103D01*
X010102Y012111D02*
X009994Y012111D01*
X009991Y012137D02*
X010098Y012137D01*
X010097Y012145D02*
X009991Y012145D01*
X009992Y012154D02*
X010097Y012154D01*
X010097Y012163D02*
X009992Y012163D01*
X009992Y012171D02*
X010098Y012171D01*
X010098Y012180D02*
X009992Y012180D01*
X009992Y012188D02*
X010098Y012188D01*
X010099Y012197D02*
X009992Y012197D01*
X009992Y012205D02*
X010100Y012205D01*
X010101Y012214D02*
X009993Y012214D01*
X009994Y012222D02*
X010105Y012222D01*
X010108Y012231D02*
X009995Y012231D01*
X009997Y012239D02*
X010114Y012239D01*
X010121Y012248D02*
X009998Y012248D01*
X009999Y012256D02*
X010131Y012256D01*
X010147Y012265D02*
X010000Y012265D01*
X010007Y012291D02*
X010334Y012291D01*
X010338Y012291D02*
X010621Y012291D01*
X010622Y012299D02*
X010338Y012299D01*
X010334Y012299D02*
X010009Y012299D01*
X010012Y012308D02*
X010334Y012308D01*
X010338Y012308D02*
X010622Y012308D01*
X010622Y012316D02*
X010338Y012316D01*
X010334Y012316D02*
X010014Y012316D01*
X010017Y012325D02*
X010334Y012325D01*
X010338Y012325D02*
X010622Y012325D01*
X010622Y012333D02*
X010338Y012333D01*
X010334Y012333D02*
X010021Y012333D01*
X010026Y012342D02*
X010334Y012342D01*
X010338Y012342D02*
X010622Y012342D01*
X010622Y012350D02*
X010338Y012350D01*
X010334Y012350D02*
X010030Y012350D01*
X010035Y012359D02*
X010334Y012359D01*
X010338Y012359D02*
X010622Y012359D01*
X010622Y012368D02*
X010338Y012368D01*
X010334Y012368D02*
X010039Y012368D01*
X010044Y012376D02*
X010334Y012376D01*
X010338Y012376D02*
X010622Y012376D01*
X010622Y012385D02*
X010338Y012385D01*
X010334Y012385D02*
X010050Y012385D01*
X010058Y012393D02*
X010334Y012393D01*
X010338Y012393D02*
X010622Y012393D01*
X010622Y012402D02*
X010338Y012402D01*
X010334Y012402D02*
X010066Y012402D01*
X010078Y012410D02*
X010334Y012410D01*
X010338Y012410D02*
X010622Y012410D01*
X010622Y012419D02*
X010338Y012419D01*
X010334Y012419D02*
X010092Y012419D01*
X010114Y012427D02*
X010334Y012427D01*
X010338Y012427D02*
X010622Y012427D01*
X010622Y012436D02*
X010564Y012436D01*
X010596Y012444D02*
X010622Y012444D01*
X010622Y012538D02*
X010622Y012702D01*
X010314Y012702D01*
X010280Y012705D01*
X010247Y012713D01*
X010215Y012728D01*
X010186Y012749D01*
X010164Y012776D01*
X010153Y012796D01*
X010146Y012817D01*
X010142Y012839D01*
X010142Y012900D01*
X010147Y012924D01*
X010148Y012930D01*
X010148Y012931D01*
X009996Y012931D01*
X009993Y012877D01*
X009996Y012850D01*
X010005Y012823D01*
X010019Y012799D01*
X010042Y012764D01*
X010054Y012749D01*
X010069Y012736D01*
X010110Y012709D01*
X010122Y012701D01*
X010622Y012701D01*
X010622Y012692D02*
X010122Y012692D01*
X010122Y012691D02*
X010124Y012695D01*
X010122Y012701D01*
X010122Y012691D02*
X010009Y012691D01*
X010036Y012539D01*
X010622Y012538D01*
X010487Y012538D01*
X010622Y012547D02*
X010034Y012547D01*
X010033Y012556D02*
X010622Y012556D01*
X010622Y012564D02*
X010031Y012564D01*
X010030Y012573D02*
X010622Y012573D01*
X010622Y012581D02*
X010028Y012581D01*
X010027Y012590D02*
X010622Y012590D01*
X010622Y012598D02*
X010025Y012598D01*
X010024Y012607D02*
X010622Y012607D01*
X010622Y012615D02*
X010022Y012615D01*
X010021Y012624D02*
X010622Y012624D01*
X010622Y012632D02*
X010019Y012632D01*
X010018Y012641D02*
X010622Y012641D01*
X010622Y012649D02*
X010016Y012649D01*
X010015Y012658D02*
X010622Y012658D01*
X010622Y012667D02*
X010013Y012667D01*
X010012Y012675D02*
X010622Y012675D01*
X010622Y012684D02*
X010010Y012684D01*
X010060Y012743D02*
X010194Y012743D01*
X010184Y012752D02*
X010051Y012752D01*
X010045Y012761D02*
X010177Y012761D01*
X010170Y012769D02*
X010039Y012769D01*
X010033Y012778D02*
X010163Y012778D01*
X010158Y012786D02*
X010027Y012786D01*
X010022Y012795D02*
X010154Y012795D01*
X010150Y012803D02*
X010016Y012803D01*
X010012Y012812D02*
X010147Y012812D01*
X010145Y012820D02*
X010007Y012820D01*
X010003Y012829D02*
X010144Y012829D01*
X010142Y012837D02*
X010000Y012837D01*
X009997Y012846D02*
X010142Y012846D01*
X010142Y012855D02*
X009996Y012855D01*
X009995Y012863D02*
X010142Y012863D01*
X010142Y012872D02*
X009994Y012872D01*
X009993Y012880D02*
X010142Y012880D01*
X010142Y012889D02*
X009993Y012889D01*
X009994Y012897D02*
X010142Y012897D01*
X010143Y012906D02*
X009994Y012906D01*
X009995Y012914D02*
X010145Y012914D01*
X010147Y012923D02*
X009995Y012923D01*
X009864Y013005D02*
X009771Y013168D01*
X010233Y013168D01*
X010009Y013392D01*
X010009Y013576D01*
X010231Y013349D01*
X010624Y013611D01*
X010623Y013411D01*
X010346Y013243D01*
X010343Y013241D01*
X010412Y013170D01*
X010622Y013170D01*
X010627Y013170D01*
X010627Y013007D01*
X010625Y013005D01*
X009864Y013005D01*
X009862Y013008D02*
X010627Y013008D01*
X010627Y013017D02*
X009857Y013017D01*
X009852Y013025D02*
X010627Y013025D01*
X010627Y013034D02*
X009847Y013034D01*
X009843Y013042D02*
X010627Y013042D01*
X010627Y013051D02*
X009838Y013051D01*
X009833Y013060D02*
X010627Y013060D01*
X010627Y013068D02*
X009828Y013068D01*
X009823Y013077D02*
X010627Y013077D01*
X010627Y013085D02*
X009818Y013085D01*
X009813Y013094D02*
X010627Y013094D01*
X010627Y013102D02*
X009808Y013102D01*
X009804Y013111D02*
X010627Y013111D01*
X010627Y013119D02*
X009799Y013119D01*
X009794Y013128D02*
X010627Y013128D01*
X010627Y013136D02*
X009789Y013136D01*
X009784Y013145D02*
X010627Y013145D01*
X010627Y013154D02*
X009779Y013154D01*
X009774Y013162D02*
X010627Y013162D01*
X010522Y013350D02*
X010232Y013350D01*
X010230Y013350D02*
X010051Y013350D01*
X010059Y013341D02*
X010508Y013341D01*
X010494Y013333D02*
X010068Y013333D01*
X010077Y013324D02*
X010480Y013324D01*
X010466Y013316D02*
X010085Y013316D01*
X010094Y013307D02*
X010452Y013307D01*
X010437Y013299D02*
X010102Y013299D01*
X010111Y013290D02*
X010423Y013290D01*
X010409Y013282D02*
X010119Y013282D01*
X010128Y013273D02*
X010395Y013273D01*
X010381Y013265D02*
X010136Y013265D01*
X010145Y013256D02*
X010367Y013256D01*
X010353Y013248D02*
X010153Y013248D01*
X010162Y013239D02*
X010345Y013239D01*
X010353Y013230D02*
X010171Y013230D01*
X010179Y013222D02*
X010362Y013222D01*
X010370Y013213D02*
X010188Y013213D01*
X010196Y013205D02*
X010378Y013205D01*
X010386Y013196D02*
X010205Y013196D01*
X010213Y013188D02*
X010395Y013188D01*
X010403Y013179D02*
X010222Y013179D01*
X010230Y013171D02*
X010411Y013171D01*
X010536Y013359D02*
X010245Y013359D01*
X010258Y013367D02*
X010550Y013367D01*
X010564Y013376D02*
X010270Y013376D01*
X010283Y013384D02*
X010578Y013384D01*
X010592Y013393D02*
X010296Y013393D01*
X010309Y013401D02*
X010606Y013401D01*
X010621Y013410D02*
X010322Y013410D01*
X010335Y013418D02*
X010623Y013418D01*
X010623Y013427D02*
X010347Y013427D01*
X010360Y013435D02*
X010623Y013435D01*
X010623Y013444D02*
X010373Y013444D01*
X010386Y013453D02*
X010623Y013453D01*
X010623Y013461D02*
X010399Y013461D01*
X010411Y013470D02*
X010623Y013470D01*
X010623Y013478D02*
X010424Y013478D01*
X010437Y013487D02*
X010623Y013487D01*
X010623Y013495D02*
X010450Y013495D01*
X010463Y013504D02*
X010623Y013504D01*
X010623Y013512D02*
X010475Y013512D01*
X010488Y013521D02*
X010623Y013521D01*
X010623Y013529D02*
X010501Y013529D01*
X010514Y013538D02*
X010623Y013538D01*
X010623Y013547D02*
X010527Y013547D01*
X010540Y013555D02*
X010624Y013555D01*
X010624Y013564D02*
X010552Y013564D01*
X010565Y013572D02*
X010624Y013572D01*
X010624Y013581D02*
X010578Y013581D01*
X010591Y013589D02*
X010624Y013589D01*
X010624Y013598D02*
X010604Y013598D01*
X010616Y013606D02*
X010624Y013606D01*
X010626Y013724D02*
X010626Y013888D01*
X010113Y013888D01*
X010113Y014006D01*
X010008Y014006D01*
X010008Y013933D01*
X010008Y013889D01*
X009953Y013889D01*
X009934Y013892D01*
X009916Y013899D01*
X009906Y013907D01*
X009898Y013918D01*
X009894Y013930D01*
X009890Y013967D01*
X009894Y014003D01*
X009895Y014014D01*
X009895Y014017D01*
X009776Y014017D01*
X009776Y014016D01*
X009773Y013964D01*
X009773Y013903D01*
X009780Y013863D01*
X010626Y013863D01*
X010626Y013871D02*
X009778Y013871D01*
X009780Y013863D02*
X009794Y013826D01*
X009816Y013791D01*
X009844Y013762D01*
X009863Y013749D01*
X009883Y013739D01*
X009906Y013733D01*
X009990Y013726D01*
X010008Y013726D01*
X010626Y013726D01*
X010626Y013724D02*
X010122Y013724D01*
X010114Y013724D01*
X010113Y013567D01*
X010008Y013672D01*
X010008Y013726D01*
X010008Y013717D02*
X010114Y013717D01*
X010114Y013709D02*
X010008Y013709D01*
X010008Y013700D02*
X010114Y013700D01*
X010114Y013692D02*
X010008Y013692D01*
X010008Y013683D02*
X010114Y013683D01*
X010114Y013675D02*
X010008Y013675D01*
X010014Y013666D02*
X010113Y013666D01*
X010113Y013658D02*
X010022Y013658D01*
X010031Y013649D02*
X010113Y013649D01*
X010113Y013641D02*
X010039Y013641D01*
X010048Y013632D02*
X010113Y013632D01*
X010113Y013623D02*
X010057Y013623D01*
X010065Y013615D02*
X010113Y013615D01*
X010113Y013606D02*
X010074Y013606D01*
X010082Y013598D02*
X010113Y013598D01*
X010113Y013589D02*
X010091Y013589D01*
X010099Y013581D02*
X010113Y013581D01*
X010113Y013572D02*
X010108Y013572D01*
X010063Y013521D02*
X010009Y013521D01*
X010009Y013529D02*
X010054Y013529D01*
X010046Y013538D02*
X010009Y013538D01*
X010009Y013547D02*
X010038Y013547D01*
X010029Y013555D02*
X010009Y013555D01*
X010009Y013564D02*
X010021Y013564D01*
X010013Y013572D02*
X010009Y013572D01*
X010009Y013512D02*
X010071Y013512D01*
X010080Y013504D02*
X010009Y013504D01*
X010009Y013495D02*
X010088Y013495D01*
X010096Y013487D02*
X010009Y013487D01*
X010009Y013478D02*
X010105Y013478D01*
X010113Y013470D02*
X010009Y013470D01*
X010009Y013461D02*
X010121Y013461D01*
X010130Y013453D02*
X010009Y013453D01*
X010009Y013444D02*
X010138Y013444D01*
X010146Y013435D02*
X010009Y013435D01*
X010009Y013427D02*
X010155Y013427D01*
X010163Y013418D02*
X010009Y013418D01*
X010009Y013410D02*
X010171Y013410D01*
X010180Y013401D02*
X010009Y013401D01*
X010009Y013393D02*
X010188Y013393D01*
X010197Y013384D02*
X010017Y013384D01*
X010025Y013376D02*
X010205Y013376D01*
X010213Y013367D02*
X010034Y013367D01*
X010042Y013359D02*
X010222Y013359D01*
X009901Y013734D02*
X010626Y013734D01*
X010626Y013743D02*
X009875Y013743D01*
X009859Y013752D02*
X010626Y013752D01*
X010626Y013760D02*
X009847Y013760D01*
X009838Y013769D02*
X010626Y013769D01*
X010626Y013777D02*
X009829Y013777D01*
X009821Y013786D02*
X010626Y013786D01*
X010626Y013794D02*
X009814Y013794D01*
X009809Y013803D02*
X010626Y013803D01*
X010626Y013811D02*
X009803Y013811D01*
X009798Y013820D02*
X010626Y013820D01*
X010626Y013828D02*
X009793Y013828D01*
X009790Y013837D02*
X010626Y013837D01*
X010626Y013846D02*
X009787Y013846D01*
X009783Y013854D02*
X010626Y013854D01*
X010626Y013880D02*
X009777Y013880D01*
X009775Y013888D02*
X010113Y013888D01*
X010113Y013897D02*
X010008Y013897D01*
X010008Y013905D02*
X010113Y013905D01*
X010113Y013914D02*
X010008Y013914D01*
X010008Y013922D02*
X010113Y013922D01*
X010113Y013931D02*
X010008Y013931D01*
X010008Y013940D02*
X010113Y013940D01*
X010113Y013948D02*
X010008Y013948D01*
X010008Y013957D02*
X010113Y013957D01*
X010113Y013965D02*
X010008Y013965D01*
X010008Y013974D02*
X010113Y013974D01*
X010113Y013982D02*
X010008Y013982D01*
X010008Y013991D02*
X010113Y013991D01*
X010113Y013999D02*
X010008Y013999D01*
X010006Y014064D02*
X010006Y014227D01*
X010400Y014227D01*
X010434Y014233D01*
X010465Y014247D01*
X010480Y014259D01*
X010492Y014273D01*
X010638Y014273D01*
X010638Y014281D02*
X010497Y014281D01*
X010502Y014289D02*
X010492Y014273D01*
X010485Y014264D02*
X010639Y014264D01*
X010639Y014256D02*
X010476Y014256D01*
X010465Y014247D02*
X010638Y014247D01*
X010639Y014250D02*
X010638Y014309D01*
X010629Y014367D01*
X010626Y014378D01*
X010621Y014387D01*
X010595Y014424D01*
X010564Y014456D01*
X010529Y014484D01*
X010529Y014485D01*
X010623Y014485D01*
X010623Y014643D01*
X010008Y014643D01*
X010008Y014477D01*
X010335Y014477D01*
X010384Y014474D01*
X010432Y014465D01*
X010454Y014457D01*
X010474Y014443D01*
X010491Y014425D01*
X010503Y014404D01*
X010511Y014376D01*
X010514Y014347D01*
X010511Y014317D01*
X010502Y014289D01*
X010502Y014290D02*
X010638Y014290D01*
X010638Y014298D02*
X010505Y014298D01*
X010508Y014307D02*
X010638Y014307D01*
X010637Y014315D02*
X010510Y014315D01*
X010512Y014324D02*
X010635Y014324D01*
X010634Y014333D02*
X010513Y014333D01*
X010514Y014341D02*
X010633Y014341D01*
X010631Y014350D02*
X010514Y014350D01*
X010513Y014358D02*
X010630Y014358D01*
X010629Y014367D02*
X010512Y014367D01*
X010511Y014375D02*
X010626Y014375D01*
X010623Y014384D02*
X010509Y014384D01*
X010506Y014392D02*
X010617Y014392D01*
X010611Y014401D02*
X010504Y014401D01*
X010500Y014409D02*
X010605Y014409D01*
X010599Y014418D02*
X010495Y014418D01*
X010490Y014426D02*
X010592Y014426D01*
X010584Y014435D02*
X010482Y014435D01*
X010474Y014444D02*
X010576Y014444D01*
X010568Y014452D02*
X010461Y014452D01*
X010444Y014461D02*
X010559Y014461D01*
X010548Y014469D02*
X010410Y014469D01*
X010537Y014478D02*
X010008Y014478D01*
X010008Y014486D02*
X010623Y014486D01*
X010623Y014495D02*
X010008Y014495D01*
X010008Y014503D02*
X010623Y014503D01*
X010623Y014512D02*
X010008Y014512D01*
X010008Y014520D02*
X010623Y014520D01*
X010623Y014529D02*
X010008Y014529D01*
X010008Y014538D02*
X010623Y014538D01*
X010623Y014546D02*
X010008Y014546D01*
X010008Y014555D02*
X010623Y014555D01*
X010623Y014563D02*
X010008Y014563D01*
X010008Y014572D02*
X010623Y014572D01*
X010623Y014580D02*
X010008Y014580D01*
X010008Y014589D02*
X010623Y014589D01*
X010623Y014597D02*
X010008Y014597D01*
X010008Y014606D02*
X010623Y014606D01*
X010623Y014614D02*
X010008Y014614D01*
X010008Y014623D02*
X010623Y014623D01*
X010623Y014632D02*
X010008Y014632D01*
X010008Y014640D02*
X010623Y014640D01*
X010626Y014741D02*
X010007Y014741D01*
X010007Y014900D01*
X010094Y014900D01*
X010094Y014903D01*
X010093Y014907D01*
X010091Y014910D01*
X010085Y014915D01*
X010070Y014926D01*
X010051Y014942D01*
X010035Y014960D01*
X010012Y014996D01*
X009998Y015035D01*
X009992Y015076D01*
X010118Y015076D01*
X010118Y015075D02*
X010117Y015062D01*
X010119Y015018D01*
X010122Y014996D01*
X010131Y014974D01*
X010144Y014955D01*
X010167Y014934D01*
X010195Y014919D01*
X010225Y014910D01*
X010257Y014907D01*
X010284Y014907D01*
X010626Y014907D01*
X010626Y014741D01*
X010626Y014907D01*
X010284Y014907D01*
X010215Y014913D02*
X010087Y014913D01*
X010091Y014910D02*
X010093Y014907D01*
X010094Y014903D01*
X010094Y014900D01*
X010007Y014900D01*
X010007Y014741D01*
X010626Y014741D01*
X010626Y014743D02*
X010007Y014743D01*
X010007Y014751D02*
X010626Y014751D01*
X010626Y014760D02*
X010007Y014760D01*
X010007Y014768D02*
X010626Y014768D01*
X010626Y014777D02*
X010007Y014777D01*
X010007Y014785D02*
X010626Y014785D01*
X010626Y014794D02*
X010007Y014794D01*
X010007Y014802D02*
X010626Y014802D01*
X010626Y014811D02*
X010007Y014811D01*
X010007Y014819D02*
X010626Y014819D01*
X010626Y014828D02*
X010007Y014828D01*
X010007Y014837D02*
X010626Y014837D01*
X010626Y014845D02*
X010007Y014845D01*
X010007Y014854D02*
X010626Y014854D01*
X010626Y014862D02*
X010007Y014862D01*
X010007Y014871D02*
X010626Y014871D01*
X010626Y014879D02*
X010007Y014879D01*
X010007Y014888D02*
X010626Y014888D01*
X010626Y014896D02*
X010007Y014896D01*
X010085Y014916D02*
X010091Y014911D01*
X010093Y014905D02*
X010626Y014905D01*
X009992Y015076D02*
X009993Y015155D01*
X009994Y015155D02*
X010002Y015194D01*
X010019Y015229D01*
X010043Y015260D01*
X010065Y015279D01*
X010091Y015295D01*
X010119Y015305D01*
X010162Y015315D01*
X010207Y015318D01*
X010622Y015318D01*
X010622Y015157D01*
X010242Y015157D01*
X010213Y015155D01*
X010185Y015147D01*
X010159Y015134D01*
X010143Y015122D01*
X010130Y015106D01*
X010121Y015088D01*
X010118Y015075D01*
X010117Y015067D02*
X009993Y015067D01*
X009994Y015059D02*
X010117Y015059D01*
X010117Y015050D02*
X009996Y015050D01*
X009997Y015042D02*
X010118Y015042D01*
X010118Y015033D02*
X009999Y015033D01*
X010002Y015025D02*
X010118Y015025D01*
X010119Y015016D02*
X010005Y015016D01*
X010008Y015007D02*
X010120Y015007D01*
X010122Y014999D02*
X010011Y014999D01*
X010016Y014990D02*
X010124Y014990D01*
X010128Y014982D02*
X010021Y014982D01*
X010027Y014973D02*
X010131Y014973D01*
X010137Y014965D02*
X010032Y014965D01*
X010038Y014956D02*
X010143Y014956D01*
X010152Y014948D02*
X010046Y014948D01*
X010055Y014939D02*
X010161Y014939D01*
X010174Y014931D02*
X010065Y014931D01*
X010076Y014922D02*
X010190Y014922D01*
X010118Y015306D02*
X010207Y015319D01*
X010207Y015318D02*
X010622Y015318D01*
X010622Y015157D01*
X010242Y015157D01*
X010206Y015153D02*
X009994Y015153D01*
X009994Y015155D02*
X009992Y015076D01*
X009992Y015084D02*
X010120Y015084D01*
X010123Y015093D02*
X009992Y015093D01*
X009992Y015101D02*
X010127Y015101D01*
X010133Y015110D02*
X009993Y015110D01*
X009993Y015119D02*
X010140Y015119D01*
X010149Y015127D02*
X009993Y015127D01*
X009993Y015136D02*
X010162Y015136D01*
X009995Y015155D02*
X010010Y015211D01*
X010044Y015259D01*
X010047Y015264D02*
X010622Y015264D01*
X010622Y015272D02*
X010057Y015272D01*
X010068Y015281D02*
X010622Y015281D01*
X010622Y015289D02*
X010082Y015289D01*
X010100Y015298D02*
X010622Y015298D01*
X010622Y015306D02*
X010125Y015306D01*
X010167Y015315D02*
X010622Y015315D01*
X010622Y015255D02*
X010039Y015255D01*
X010032Y015247D02*
X010622Y015247D01*
X010622Y015238D02*
X010025Y015238D01*
X010019Y015230D02*
X010622Y015230D01*
X010622Y015221D02*
X010015Y015221D01*
X010011Y015212D02*
X010622Y015212D01*
X010622Y015204D02*
X010007Y015204D01*
X010003Y015195D02*
X010622Y015195D01*
X010622Y015187D02*
X010000Y015187D01*
X009999Y015178D02*
X010622Y015178D01*
X010622Y015170D02*
X009997Y015170D01*
X009995Y015161D02*
X010622Y015161D01*
X010257Y014907D02*
X010195Y014919D01*
X010159Y015134D02*
X010242Y015157D01*
X010179Y015144D02*
X009993Y015144D01*
X010043Y015260D02*
X010119Y015305D01*
X009992Y015077D02*
X010005Y015015D01*
X010035Y014961D01*
X010117Y015062D02*
X010121Y015088D01*
X010035Y014959D02*
X010070Y014925D01*
X010144Y014956D02*
X010119Y015019D01*
X010121Y015088D02*
X010159Y015134D01*
X010143Y014955D02*
X010194Y014919D01*
X010006Y014221D02*
X010635Y014221D01*
X010633Y014213D02*
X010006Y014213D01*
X010006Y014204D02*
X010631Y014204D01*
X010633Y014210D02*
X010639Y014250D01*
X010637Y014239D02*
X010445Y014239D01*
X010415Y014230D02*
X010636Y014230D01*
X010633Y014210D02*
X010619Y014171D01*
X010599Y014135D01*
X010590Y014125D01*
X010555Y014099D01*
X010516Y014080D01*
X010474Y014068D01*
X010431Y014064D01*
X010006Y014064D01*
X010006Y014068D02*
X010469Y014068D01*
X010503Y014076D02*
X010006Y014076D01*
X010006Y014085D02*
X010526Y014085D01*
X010543Y014093D02*
X010006Y014093D01*
X010006Y014102D02*
X010558Y014102D01*
X010570Y014110D02*
X010006Y014110D01*
X010006Y014119D02*
X010581Y014119D01*
X010592Y014127D02*
X010006Y014127D01*
X010006Y014136D02*
X010599Y014136D01*
X010604Y014145D02*
X010006Y014145D01*
X010006Y014153D02*
X010609Y014153D01*
X010614Y014162D02*
X010006Y014162D01*
X010006Y014170D02*
X010619Y014170D01*
X010622Y014179D02*
X010006Y014179D01*
X010006Y014187D02*
X010625Y014187D01*
X010628Y014196D02*
X010006Y014196D01*
X009895Y014016D02*
X009776Y014016D01*
X009775Y014008D02*
X009894Y014008D01*
X009893Y013999D02*
X009775Y013999D01*
X009774Y013991D02*
X009893Y013991D01*
X009892Y013982D02*
X009774Y013982D01*
X009773Y013974D02*
X009891Y013974D01*
X009891Y013965D02*
X009773Y013965D01*
X009773Y013957D02*
X009891Y013957D01*
X009892Y013948D02*
X009773Y013948D01*
X009773Y013940D02*
X009893Y013940D01*
X009894Y013931D02*
X009773Y013931D01*
X009773Y013922D02*
X009896Y013922D01*
X009901Y013914D02*
X009773Y013914D01*
X009773Y013905D02*
X009908Y013905D01*
X009922Y013897D02*
X009774Y013897D01*
X009591Y013627D02*
X009614Y013587D01*
X009646Y013553D01*
X009862Y013361D01*
X009265Y013361D01*
X009232Y013364D01*
X009201Y013373D01*
X009172Y013389D01*
X009150Y013408D01*
X009133Y013430D01*
X009120Y013456D01*
X009113Y013483D01*
X009110Y013520D01*
X009113Y013557D01*
X009116Y013576D01*
X009115Y013569D01*
X009116Y013562D01*
X009120Y013556D01*
X009144Y013523D01*
X009149Y013518D01*
X009156Y013514D01*
X009173Y013510D01*
X009191Y013510D01*
X009209Y013514D01*
X009226Y013523D01*
X009240Y013536D01*
X009255Y013561D01*
X009263Y013589D01*
X009265Y013618D01*
X009261Y013643D01*
X009253Y013667D01*
X009241Y013689D01*
X009226Y013707D01*
X009206Y013720D01*
X009185Y013728D01*
X009161Y013730D01*
X009139Y013725D01*
X009118Y013715D01*
X009100Y013700D01*
X009039Y013643D01*
X008970Y013596D01*
X008943Y013585D01*
X008914Y013581D01*
X008885Y013585D01*
X008858Y013595D01*
X008834Y013612D01*
X008808Y013640D01*
X008786Y013670D01*
X008771Y013701D01*
X008761Y013734D01*
X008759Y013768D01*
X008762Y013804D01*
X008771Y013838D01*
X008775Y013847D01*
X008781Y013861D01*
X008789Y013881D01*
X008803Y013898D01*
X008804Y013899D01*
X008804Y013899D01*
X008804Y013875D01*
X008806Y013854D01*
X008778Y013854D01*
X008781Y013863D02*
X008805Y013863D01*
X008804Y013871D02*
X008785Y013871D01*
X008789Y013880D02*
X008804Y013880D01*
X008804Y013888D02*
X008795Y013888D01*
X008802Y013897D02*
X008804Y013897D01*
X008806Y013854D02*
X008812Y013834D01*
X008822Y013814D01*
X008838Y013798D01*
X008857Y013786D01*
X008760Y013786D01*
X008761Y013794D02*
X008843Y013794D01*
X008833Y013803D02*
X008762Y013803D01*
X008764Y013811D02*
X008825Y013811D01*
X008819Y013820D02*
X008766Y013820D01*
X008768Y013828D02*
X008815Y013828D01*
X008811Y013837D02*
X008771Y013837D01*
X008774Y013846D02*
X008809Y013846D01*
X008857Y013786D02*
X008879Y013779D01*
X008892Y013779D01*
X008905Y013781D01*
X008925Y013790D01*
X008944Y013801D01*
X008960Y013816D01*
X008975Y013832D01*
X009001Y013868D01*
X009011Y013888D01*
X009546Y013888D01*
X009550Y013880D02*
X009007Y013880D01*
X009011Y013888D02*
X009015Y013911D01*
X009013Y013933D01*
X009010Y013941D01*
X008999Y013956D01*
X008985Y013968D01*
X008979Y013970D01*
X008974Y013971D01*
X008939Y013971D01*
X008975Y014016D01*
X009020Y014051D01*
X009057Y014071D01*
X009096Y014085D01*
X009137Y014093D01*
X009213Y014096D01*
X009288Y014084D01*
X009360Y014059D01*
X009035Y014059D01*
X009051Y014068D02*
X009336Y014068D01*
X009360Y014059D02*
X009426Y014022D01*
X009469Y013987D01*
X009508Y013947D01*
X009540Y013901D01*
X009563Y013853D01*
X009578Y013801D01*
X009583Y013747D01*
X009583Y013657D01*
X009585Y013642D01*
X009591Y013627D01*
X009593Y013623D02*
X009264Y013623D01*
X009265Y013615D02*
X009598Y013615D01*
X009603Y013606D02*
X009264Y013606D01*
X009264Y013598D02*
X009608Y013598D01*
X009613Y013589D02*
X009263Y013589D01*
X009261Y013581D02*
X009621Y013581D01*
X009628Y013572D02*
X009258Y013572D01*
X009256Y013564D02*
X009636Y013564D01*
X009644Y013555D02*
X009251Y013555D01*
X009246Y013547D02*
X009653Y013547D01*
X009663Y013538D02*
X009241Y013538D01*
X009233Y013529D02*
X009673Y013529D01*
X009682Y013521D02*
X009222Y013521D01*
X009200Y013512D02*
X009692Y013512D01*
X009701Y013504D02*
X009111Y013504D01*
X009110Y013512D02*
X009164Y013512D01*
X009146Y013521D02*
X009110Y013521D01*
X009111Y013529D02*
X009139Y013529D01*
X009133Y013538D02*
X009111Y013538D01*
X009112Y013547D02*
X009127Y013547D01*
X009121Y013555D02*
X009113Y013555D01*
X009114Y013564D02*
X009116Y013564D01*
X009115Y013572D02*
X009115Y013572D01*
X009112Y013495D02*
X009711Y013495D01*
X009721Y013487D02*
X009112Y013487D01*
X009114Y013478D02*
X009730Y013478D01*
X009740Y013470D02*
X009116Y013470D01*
X009119Y013461D02*
X009749Y013461D01*
X009759Y013453D02*
X009122Y013453D01*
X009126Y013444D02*
X009769Y013444D01*
X009778Y013435D02*
X009130Y013435D01*
X009135Y013427D02*
X009788Y013427D01*
X009798Y013418D02*
X009142Y013418D01*
X009148Y013410D02*
X009807Y013410D01*
X009817Y013401D02*
X009158Y013401D01*
X009168Y013393D02*
X009826Y013393D01*
X009836Y013384D02*
X009181Y013384D01*
X009196Y013376D02*
X009846Y013376D01*
X009855Y013367D02*
X009221Y013367D01*
X009263Y013632D02*
X009589Y013632D01*
X009586Y013641D02*
X009261Y013641D01*
X009259Y013649D02*
X009584Y013649D01*
X009583Y013658D02*
X009256Y013658D01*
X009253Y013666D02*
X009583Y013666D01*
X009583Y013675D02*
X009249Y013675D01*
X009244Y013683D02*
X009583Y013683D01*
X009583Y013692D02*
X009239Y013692D01*
X009231Y013700D02*
X009583Y013700D01*
X009583Y013709D02*
X009223Y013709D01*
X009210Y013717D02*
X009583Y013717D01*
X009583Y013726D02*
X009190Y013726D01*
X009142Y013726D02*
X008764Y013726D01*
X008766Y013717D02*
X009122Y013717D01*
X009110Y013709D02*
X008768Y013709D01*
X008771Y013700D02*
X009100Y013700D01*
X009091Y013692D02*
X008775Y013692D01*
X008779Y013683D02*
X009082Y013683D01*
X009073Y013675D02*
X008784Y013675D01*
X008789Y013666D02*
X009064Y013666D01*
X009055Y013658D02*
X008795Y013658D01*
X008801Y013649D02*
X009046Y013649D01*
X009035Y013641D02*
X008807Y013641D01*
X008815Y013632D02*
X009023Y013632D01*
X009010Y013623D02*
X008823Y013623D01*
X008831Y013615D02*
X008997Y013615D01*
X008985Y013606D02*
X008842Y013606D01*
X008854Y013598D02*
X008972Y013598D01*
X008953Y013589D02*
X008873Y013589D01*
X008761Y013734D02*
X009583Y013734D01*
X009583Y013743D02*
X008761Y013743D01*
X008760Y013752D02*
X009582Y013752D01*
X009582Y013760D02*
X008759Y013760D01*
X008759Y013769D02*
X009581Y013769D01*
X009580Y013777D02*
X008760Y013777D01*
X008916Y013786D02*
X009579Y013786D01*
X009579Y013794D02*
X008933Y013794D01*
X008946Y013803D02*
X009577Y013803D01*
X009575Y013811D02*
X008956Y013811D01*
X008964Y013820D02*
X009573Y013820D01*
X009570Y013828D02*
X008972Y013828D01*
X008978Y013837D02*
X009568Y013837D01*
X009565Y013846D02*
X008984Y013846D01*
X008991Y013854D02*
X009563Y013854D01*
X009559Y013863D02*
X008997Y013863D01*
X009002Y013871D02*
X009554Y013871D01*
X009542Y013897D02*
X009013Y013897D01*
X009014Y013905D02*
X009537Y013905D01*
X009531Y013914D02*
X009015Y013914D01*
X009014Y013922D02*
X009525Y013922D01*
X009519Y013931D02*
X009013Y013931D01*
X009010Y013940D02*
X009513Y013940D01*
X009506Y013948D02*
X009005Y013948D01*
X008999Y013957D02*
X009498Y013957D01*
X009490Y013965D02*
X008989Y013965D01*
X008955Y013991D02*
X009465Y013991D01*
X009474Y013982D02*
X008948Y013982D01*
X008941Y013974D02*
X009482Y013974D01*
X009454Y013999D02*
X008962Y013999D01*
X008969Y014008D02*
X009444Y014008D01*
X009433Y014016D02*
X008976Y014016D01*
X008987Y014025D02*
X009421Y014025D01*
X009406Y014034D02*
X008998Y014034D01*
X009008Y014042D02*
X009391Y014042D01*
X009375Y014051D02*
X009019Y014051D01*
X009071Y014076D02*
X009311Y014076D01*
X009284Y014085D02*
X009095Y014085D01*
X009141Y014093D02*
X009228Y014093D01*
X010088Y015722D02*
X010045Y015764D01*
X010011Y015813D01*
X009987Y015868D01*
X009974Y015927D01*
X009973Y015988D01*
X009980Y016045D01*
X009993Y016100D01*
X010011Y016146D01*
X010038Y016186D01*
X010074Y016220D01*
X010116Y016245D01*
X010161Y016262D01*
X010209Y016271D01*
X010209Y016106D01*
X010208Y016106D01*
X010184Y016104D01*
X010162Y016096D01*
X010142Y016083D01*
X010125Y016066D01*
X010113Y016045D01*
X010102Y016013D01*
X010099Y015979D01*
X010101Y015945D01*
X010109Y015912D01*
X010117Y015895D01*
X010129Y015880D01*
X010165Y015853D01*
X009993Y015853D01*
X009997Y015845D02*
X010181Y015845D01*
X010165Y015853D02*
X010207Y015832D01*
X010251Y015820D01*
X010297Y015816D01*
X010359Y015821D01*
X010420Y015835D01*
X010449Y015848D01*
X010474Y015867D01*
X010494Y015892D01*
X010508Y015921D01*
X010515Y015953D01*
X010517Y015985D01*
X010514Y016009D01*
X010507Y016033D01*
X010633Y016033D01*
X010633Y016036D02*
X010637Y015989D01*
X010633Y015927D01*
X010622Y015865D01*
X010608Y015823D01*
X010587Y015784D01*
X010560Y015749D01*
X010528Y015718D01*
X010488Y015691D01*
X010444Y015671D01*
X010398Y015658D01*
X010350Y015652D01*
X010252Y015655D01*
X010193Y015667D01*
X010138Y015690D01*
X010088Y015722D01*
X010085Y015725D02*
X010535Y015725D01*
X010544Y015734D02*
X010076Y015734D01*
X010068Y015742D02*
X010553Y015742D01*
X010562Y015751D02*
X010059Y015751D01*
X010050Y015759D02*
X010568Y015759D01*
X010575Y015768D02*
X010043Y015768D01*
X010037Y015776D02*
X010581Y015776D01*
X010588Y015785D02*
X010031Y015785D01*
X010025Y015793D02*
X010592Y015793D01*
X010597Y015802D02*
X010019Y015802D01*
X010013Y015811D02*
X010601Y015811D01*
X010606Y015819D02*
X010331Y015819D01*
X010386Y015828D02*
X010609Y015828D01*
X010612Y015836D02*
X010422Y015836D01*
X010441Y015845D02*
X010615Y015845D01*
X010618Y015853D02*
X010456Y015853D01*
X010467Y015862D02*
X010621Y015862D01*
X010623Y015870D02*
X010477Y015870D01*
X010484Y015879D02*
X010624Y015879D01*
X010626Y015887D02*
X010490Y015887D01*
X010496Y015896D02*
X010627Y015896D01*
X010629Y015904D02*
X010500Y015904D01*
X010504Y015913D02*
X010630Y015913D01*
X010632Y015922D02*
X010508Y015922D01*
X010510Y015930D02*
X010633Y015930D01*
X010634Y015939D02*
X010512Y015939D01*
X010514Y015947D02*
X010634Y015947D01*
X010635Y015956D02*
X010515Y015956D01*
X010516Y015964D02*
X010635Y015964D01*
X010636Y015973D02*
X010516Y015973D01*
X010517Y015981D02*
X010636Y015981D01*
X010637Y015990D02*
X010516Y015990D01*
X010515Y015998D02*
X010636Y015998D01*
X010635Y016007D02*
X010514Y016007D01*
X010512Y016016D02*
X010635Y016016D01*
X010634Y016024D02*
X010509Y016024D01*
X010507Y016033D02*
X010496Y016054D01*
X010482Y016072D01*
X010464Y016087D01*
X010440Y016100D01*
X010414Y016109D01*
X010387Y016113D01*
X010387Y016273D01*
X010389Y016273D01*
X010407Y016272D01*
X010426Y016268D01*
X010481Y016247D01*
X010530Y016215D01*
X010571Y016173D01*
X010604Y016124D01*
X010622Y016081D01*
X010633Y016036D01*
X010632Y016041D02*
X010502Y016041D01*
X010498Y016050D02*
X010630Y016050D01*
X010628Y016058D02*
X010493Y016058D01*
X010486Y016067D02*
X010625Y016067D01*
X010623Y016075D02*
X010478Y016075D01*
X010468Y016084D02*
X010621Y016084D01*
X010617Y016092D02*
X010454Y016092D01*
X010438Y016101D02*
X010614Y016101D01*
X010610Y016110D02*
X010411Y016110D01*
X010387Y016118D02*
X010606Y016118D01*
X010602Y016127D02*
X010387Y016127D01*
X010387Y016135D02*
X010597Y016135D01*
X010591Y016144D02*
X010387Y016144D01*
X010387Y016152D02*
X010585Y016152D01*
X010580Y016161D02*
X010387Y016161D01*
X010387Y016169D02*
X010574Y016169D01*
X010567Y016178D02*
X010387Y016178D01*
X010387Y016186D02*
X010558Y016186D01*
X010550Y016195D02*
X010387Y016195D01*
X010387Y016204D02*
X010541Y016204D01*
X010533Y016212D02*
X010387Y016212D01*
X010387Y016221D02*
X010521Y016221D01*
X010508Y016229D02*
X010387Y016229D01*
X010387Y016238D02*
X010495Y016238D01*
X010481Y016246D02*
X010387Y016246D01*
X010387Y016255D02*
X010460Y016255D01*
X010438Y016263D02*
X010387Y016263D01*
X010387Y016272D02*
X010408Y016272D01*
X010387Y016340D02*
X010226Y016340D01*
X010189Y016349D02*
X010442Y016349D01*
X010445Y016349D02*
X010292Y016325D01*
X010152Y016357D01*
X010045Y016441D01*
X009979Y016574D01*
X009972Y016632D01*
X009972Y016634D01*
X009974Y016639D01*
X010089Y016639D01*
X010095Y016595D01*
X010121Y016548D01*
X010165Y016516D01*
X010201Y016500D01*
X010260Y016489D01*
X010334Y016487D01*
X010384Y016494D01*
X010430Y016509D01*
X010472Y016531D01*
X010513Y016598D01*
X010522Y016669D01*
X010498Y016740D01*
X010458Y016784D01*
X010409Y016806D01*
X010347Y016821D01*
X010290Y016821D01*
X010213Y016811D01*
X010148Y016781D01*
X010115Y016747D01*
X010094Y016708D01*
X010090Y016660D01*
X010090Y016656D01*
X009973Y016658D01*
X009983Y016737D01*
X010005Y016801D01*
X010059Y016879D01*
X010109Y016922D01*
X010201Y016963D01*
X010287Y016974D01*
X010370Y016964D01*
X010467Y016937D01*
X010518Y016905D01*
X010563Y016858D01*
X010594Y016814D01*
X010619Y016741D01*
X010629Y016642D01*
X010613Y016524D01*
X010543Y016412D01*
X010445Y016349D01*
X010457Y016357D02*
X010152Y016357D01*
X010141Y016366D02*
X010471Y016366D01*
X010484Y016374D02*
X010130Y016374D01*
X010119Y016383D02*
X010497Y016383D01*
X010511Y016391D02*
X010108Y016391D01*
X010097Y016400D02*
X010524Y016400D01*
X010537Y016409D02*
X010086Y016409D01*
X010076Y016417D02*
X010546Y016417D01*
X010551Y016426D02*
X010065Y016426D01*
X010054Y016434D02*
X010557Y016434D01*
X010562Y016443D02*
X010044Y016443D01*
X010040Y016451D02*
X010567Y016451D01*
X010573Y016460D02*
X010036Y016460D01*
X010031Y016468D02*
X010578Y016468D01*
X010583Y016477D02*
X010027Y016477D01*
X010023Y016485D02*
X010589Y016485D01*
X010594Y016494D02*
X010382Y016494D01*
X010409Y016503D02*
X010599Y016503D01*
X010605Y016511D02*
X010433Y016511D01*
X010450Y016520D02*
X010610Y016520D01*
X010613Y016528D02*
X010466Y016528D01*
X010475Y016537D02*
X010614Y016537D01*
X010616Y016545D02*
X010480Y016545D01*
X010486Y016554D02*
X010617Y016554D01*
X010618Y016562D02*
X010491Y016562D01*
X010496Y016571D02*
X010619Y016571D01*
X010620Y016579D02*
X010501Y016579D01*
X010506Y016588D02*
X010621Y016588D01*
X010623Y016596D02*
X010512Y016596D01*
X010514Y016605D02*
X010624Y016605D01*
X010625Y016614D02*
X010515Y016614D01*
X010516Y016622D02*
X010626Y016622D01*
X010627Y016631D02*
X010517Y016631D01*
X010518Y016639D02*
X010628Y016639D01*
X010628Y016648D02*
X010519Y016648D01*
X010520Y016656D02*
X010627Y016656D01*
X010626Y016665D02*
X010521Y016665D01*
X010520Y016673D02*
X010626Y016673D01*
X010625Y016682D02*
X010518Y016682D01*
X010515Y016690D02*
X010624Y016690D01*
X010623Y016699D02*
X010512Y016699D01*
X010509Y016708D02*
X010622Y016708D01*
X010621Y016716D02*
X010506Y016716D01*
X010503Y016725D02*
X010620Y016725D01*
X010620Y016733D02*
X010500Y016733D01*
X010496Y016742D02*
X010619Y016742D01*
X010616Y016750D02*
X010489Y016750D01*
X010481Y016759D02*
X010613Y016759D01*
X010610Y016767D02*
X010473Y016767D01*
X010465Y016776D02*
X010607Y016776D01*
X010604Y016784D02*
X010457Y016784D01*
X010438Y016793D02*
X010601Y016793D01*
X010598Y016802D02*
X010419Y016802D01*
X010393Y016810D02*
X010595Y016810D01*
X010591Y016819D02*
X010358Y016819D01*
X010381Y016330D02*
X010230Y016331D01*
X010264Y016332D02*
X010333Y016332D01*
X010321Y016816D02*
X010222Y016805D01*
X010210Y016810D02*
X010011Y016810D01*
X010005Y016802D02*
X010192Y016802D01*
X010173Y016793D02*
X010002Y016793D01*
X009999Y016784D02*
X010155Y016784D01*
X010143Y016776D02*
X009996Y016776D01*
X009993Y016767D02*
X010134Y016767D01*
X010126Y016759D02*
X009990Y016759D01*
X009987Y016750D02*
X010118Y016750D01*
X010112Y016742D02*
X009984Y016742D01*
X009982Y016733D02*
X010107Y016733D01*
X010103Y016725D02*
X009981Y016725D01*
X009980Y016716D02*
X010098Y016716D01*
X010094Y016708D02*
X009979Y016708D01*
X009978Y016699D02*
X010093Y016699D01*
X010092Y016690D02*
X009977Y016690D01*
X009976Y016682D02*
X010092Y016682D01*
X010091Y016673D02*
X009975Y016673D01*
X009974Y016665D02*
X010090Y016665D01*
X010090Y016656D02*
X010085Y016656D01*
X010094Y016652D02*
X009969Y016652D01*
X009969Y016658D01*
X009969Y016644D02*
X010096Y016644D01*
X010096Y016635D01*
X010090Y016631D02*
X009972Y016631D01*
X009973Y016622D02*
X010091Y016622D01*
X010092Y016614D02*
X009974Y016614D01*
X009975Y016605D02*
X010093Y016605D01*
X010095Y016596D02*
X009976Y016596D01*
X009977Y016588D02*
X010099Y016588D01*
X010104Y016579D02*
X009978Y016579D01*
X009980Y016571D02*
X010108Y016571D01*
X010113Y016562D02*
X009985Y016562D01*
X009989Y016554D02*
X010118Y016554D01*
X010125Y016545D02*
X009993Y016545D01*
X009997Y016537D02*
X010137Y016537D01*
X010148Y016528D02*
X010002Y016528D01*
X010006Y016520D02*
X010160Y016520D01*
X010176Y016511D02*
X010010Y016511D01*
X010014Y016503D02*
X010196Y016503D01*
X010234Y016494D02*
X010019Y016494D01*
X010636Y016641D02*
X010614Y016783D01*
X010585Y016827D02*
X010023Y016827D01*
X010029Y016836D02*
X010579Y016836D01*
X010573Y016844D02*
X010035Y016844D01*
X010040Y016853D02*
X010567Y016853D01*
X010560Y016861D02*
X010046Y016861D01*
X010052Y016870D02*
X010552Y016870D01*
X010543Y016878D02*
X010058Y016878D01*
X010068Y016887D02*
X010535Y016887D01*
X010527Y016896D02*
X010078Y016896D01*
X010088Y016904D02*
X010519Y016904D01*
X010506Y016913D02*
X010098Y016913D01*
X010108Y016921D02*
X010492Y016921D01*
X010479Y016930D02*
X010126Y016930D01*
X010145Y016938D02*
X010463Y016938D01*
X010432Y016947D02*
X010164Y016947D01*
X010183Y016955D02*
X010402Y016955D01*
X010371Y016964D02*
X010206Y016964D01*
X010273Y016972D02*
X010302Y016972D01*
X010352Y016496D02*
X010255Y016495D01*
X010286Y016980D02*
X010460Y016946D01*
X010622Y017046D02*
X010622Y017216D01*
X010236Y017216D01*
X010211Y017215D01*
X010186Y017220D01*
X010164Y017232D01*
X010126Y017265D01*
X010115Y017280D01*
X010007Y017280D01*
X010003Y017285D02*
X009987Y017320D01*
X009977Y017363D01*
X009972Y017417D01*
X009975Y017455D01*
X009985Y017491D01*
X010001Y017522D01*
X010022Y017550D01*
X010049Y017573D01*
X010079Y017590D01*
X010078Y017592D01*
X010077Y017594D01*
X010074Y017597D01*
X010055Y017615D01*
X010025Y017646D01*
X010000Y017681D01*
X009984Y017713D01*
X009975Y017747D01*
X009973Y017782D01*
X009977Y017833D01*
X009987Y017882D01*
X010000Y017916D01*
X010020Y017947D01*
X010046Y017972D01*
X010083Y017995D01*
X010124Y018011D01*
X010167Y018017D01*
X010623Y018017D01*
X010623Y017850D01*
X010218Y017850D01*
X010182Y017846D01*
X010149Y017833D01*
X010133Y017822D01*
X010120Y017808D01*
X010110Y017791D01*
X010105Y017772D01*
X010102Y017736D01*
X010106Y017699D01*
X010111Y017682D01*
X010120Y017667D01*
X010132Y017653D01*
X010153Y017637D01*
X010178Y017626D01*
X010204Y017620D01*
X010248Y017617D01*
X010623Y017617D01*
X010623Y017447D01*
X010207Y017447D01*
X010180Y017444D01*
X010154Y017434D01*
X010132Y017419D01*
X010119Y017405D01*
X010109Y017388D01*
X010103Y017369D01*
X010102Y017349D01*
X010104Y017315D01*
X010107Y017297D01*
X009997Y017297D01*
X009993Y017306D02*
X010106Y017306D01*
X010104Y017314D02*
X009990Y017314D01*
X009986Y017323D02*
X010103Y017323D01*
X010103Y017331D02*
X009984Y017331D01*
X009982Y017340D02*
X010102Y017340D01*
X010102Y017348D02*
X009980Y017348D01*
X009978Y017357D02*
X010102Y017357D01*
X010103Y017365D02*
X009977Y017365D01*
X009976Y017374D02*
X010105Y017374D01*
X010107Y017382D02*
X009975Y017382D01*
X009974Y017391D02*
X010111Y017391D01*
X010116Y017400D02*
X009973Y017400D01*
X009973Y017408D02*
X010122Y017408D01*
X010129Y017417D02*
X009972Y017417D01*
X009972Y017425D02*
X010141Y017425D01*
X010153Y017434D02*
X009973Y017434D01*
X009974Y017442D02*
X010175Y017442D01*
X010107Y017297D02*
X010115Y017280D01*
X010111Y017289D02*
X010001Y017289D01*
X010003Y017285D02*
X010027Y017255D01*
X010058Y017225D01*
X010075Y017212D01*
X010077Y017203D01*
X009990Y017203D01*
X010622Y017203D01*
X010622Y017195D02*
X009990Y017195D01*
X009990Y017203D02*
X009990Y017046D01*
X010622Y017046D01*
X010622Y017049D02*
X009990Y017049D01*
X009990Y017058D02*
X010622Y017058D01*
X010622Y017066D02*
X009990Y017066D01*
X009990Y017075D02*
X010622Y017075D01*
X010622Y017083D02*
X009990Y017083D01*
X009990Y017092D02*
X010622Y017092D01*
X010622Y017101D02*
X009990Y017101D01*
X009990Y017109D02*
X010622Y017109D01*
X010622Y017118D02*
X009990Y017118D01*
X009990Y017126D02*
X010622Y017126D01*
X010622Y017135D02*
X009990Y017135D01*
X009990Y017143D02*
X010622Y017143D01*
X010622Y017152D02*
X009990Y017152D01*
X009990Y017160D02*
X010622Y017160D01*
X010622Y017169D02*
X009990Y017169D01*
X009990Y017177D02*
X010622Y017177D01*
X010622Y017186D02*
X009990Y017186D01*
X010045Y017237D02*
X010158Y017237D01*
X010148Y017246D02*
X010037Y017246D01*
X010028Y017254D02*
X010138Y017254D01*
X010128Y017263D02*
X010021Y017263D01*
X010014Y017271D02*
X010121Y017271D01*
X010170Y017229D02*
X010054Y017229D01*
X010064Y017220D02*
X010187Y017220D01*
X010075Y017212D02*
X010622Y017212D01*
X010623Y017451D02*
X009974Y017451D01*
X009976Y017459D02*
X010623Y017459D01*
X010623Y017468D02*
X009978Y017468D01*
X009981Y017476D02*
X010623Y017476D01*
X010623Y017485D02*
X009983Y017485D01*
X009986Y017494D02*
X010623Y017494D01*
X010623Y017502D02*
X009990Y017502D01*
X009995Y017511D02*
X010623Y017511D01*
X010623Y017519D02*
X009999Y017519D01*
X010005Y017528D02*
X010623Y017528D01*
X010623Y017536D02*
X010012Y017536D01*
X010018Y017545D02*
X010623Y017545D01*
X010623Y017553D02*
X010026Y017553D01*
X010036Y017562D02*
X010623Y017562D01*
X010623Y017570D02*
X010046Y017570D01*
X010059Y017579D02*
X010623Y017579D01*
X010623Y017588D02*
X010074Y017588D01*
X010075Y017596D02*
X010623Y017596D01*
X010623Y017605D02*
X010066Y017605D01*
X010057Y017613D02*
X010623Y017613D01*
X010623Y017852D02*
X009981Y017852D01*
X009979Y017844D02*
X010177Y017844D01*
X010154Y017835D02*
X009978Y017835D01*
X009977Y017827D02*
X010139Y017827D01*
X010129Y017818D02*
X009976Y017818D01*
X009975Y017810D02*
X010121Y017810D01*
X010116Y017801D02*
X009974Y017801D01*
X009974Y017793D02*
X010111Y017793D01*
X010108Y017784D02*
X009973Y017784D01*
X009973Y017775D02*
X010106Y017775D01*
X010104Y017767D02*
X009974Y017767D01*
X009974Y017758D02*
X010104Y017758D01*
X010103Y017750D02*
X009975Y017750D01*
X009977Y017741D02*
X010102Y017741D01*
X010102Y017733D02*
X009979Y017733D01*
X009981Y017724D02*
X010103Y017724D01*
X010104Y017716D02*
X009984Y017716D01*
X009987Y017707D02*
X010105Y017707D01*
X010106Y017699D02*
X009991Y017699D01*
X009996Y017690D02*
X010109Y017690D01*
X010111Y017681D02*
X010000Y017681D01*
X010006Y017673D02*
X010116Y017673D01*
X010122Y017664D02*
X010012Y017664D01*
X010018Y017656D02*
X010129Y017656D01*
X010140Y017647D02*
X010024Y017647D01*
X010032Y017639D02*
X010152Y017639D01*
X010169Y017630D02*
X010040Y017630D01*
X010049Y017622D02*
X010197Y017622D01*
X009983Y017861D02*
X010623Y017861D01*
X010623Y017869D02*
X009984Y017869D01*
X009986Y017878D02*
X010623Y017878D01*
X010623Y017887D02*
X009988Y017887D01*
X009992Y017895D02*
X010623Y017895D01*
X010623Y017904D02*
X009995Y017904D01*
X009998Y017912D02*
X010623Y017912D01*
X010623Y017921D02*
X010003Y017921D01*
X010008Y017929D02*
X010623Y017929D01*
X010623Y017938D02*
X010014Y017938D01*
X010019Y017946D02*
X010623Y017946D01*
X010623Y017955D02*
X010028Y017955D01*
X010037Y017963D02*
X010623Y017963D01*
X010623Y017972D02*
X010046Y017972D01*
X010059Y017981D02*
X010623Y017981D01*
X010623Y017989D02*
X010073Y017989D01*
X010089Y017998D02*
X010623Y017998D01*
X010623Y018006D02*
X010112Y018006D01*
X010150Y018015D02*
X010623Y018015D01*
X010270Y016819D02*
X010017Y016819D01*
X010129Y016756D02*
X010103Y016715D01*
X010096Y016635D02*
X010109Y016580D01*
X010144Y016537D01*
X010129Y016756D02*
X010221Y016806D01*
X010144Y016537D02*
X010197Y016508D01*
X010256Y016495D01*
X010320Y016816D02*
X010442Y016785D01*
X010460Y016946D02*
X010556Y016882D01*
X010615Y016783D01*
X010497Y016728D02*
X010443Y016785D01*
X010443Y016522D02*
X010353Y016495D01*
X010498Y016373D02*
X010557Y016424D01*
X010443Y016522D02*
X010481Y016553D01*
X010505Y016596D01*
X010514Y016663D01*
X010497Y016728D01*
X010498Y016373D02*
X010381Y016330D01*
X010209Y016263D02*
X010168Y016263D01*
X010142Y016255D02*
X010209Y016255D01*
X010209Y016246D02*
X010119Y016246D01*
X010103Y016238D02*
X010209Y016238D01*
X010209Y016229D02*
X010089Y016229D01*
X010075Y016221D02*
X010209Y016221D01*
X010209Y016212D02*
X010065Y016212D01*
X010056Y016204D02*
X010209Y016204D01*
X010209Y016195D02*
X010047Y016195D01*
X010038Y016186D02*
X010209Y016186D01*
X010209Y016178D02*
X010033Y016178D01*
X010027Y016169D02*
X010209Y016169D01*
X010209Y016161D02*
X010021Y016161D01*
X010015Y016152D02*
X010209Y016152D01*
X010209Y016144D02*
X010010Y016144D01*
X010007Y016135D02*
X010209Y016135D01*
X010209Y016127D02*
X010003Y016127D01*
X010000Y016118D02*
X010209Y016118D01*
X010209Y016110D02*
X009996Y016110D01*
X009993Y016101D02*
X010177Y016101D01*
X010157Y016092D02*
X009991Y016092D01*
X009989Y016084D02*
X010144Y016084D01*
X010135Y016075D02*
X009987Y016075D01*
X009985Y016067D02*
X010126Y016067D01*
X010121Y016058D02*
X009983Y016058D01*
X009981Y016050D02*
X010116Y016050D01*
X010111Y016041D02*
X009980Y016041D01*
X009979Y016033D02*
X010109Y016033D01*
X010106Y016024D02*
X009978Y016024D01*
X009976Y016016D02*
X010103Y016016D01*
X010102Y016007D02*
X009975Y016007D01*
X009974Y015998D02*
X010101Y015998D01*
X010100Y015990D02*
X009973Y015990D01*
X009973Y015981D02*
X010099Y015981D01*
X010099Y015973D02*
X009973Y015973D01*
X009973Y015964D02*
X010100Y015964D01*
X010101Y015956D02*
X009973Y015956D01*
X009973Y015947D02*
X010101Y015947D01*
X010103Y015939D02*
X009974Y015939D01*
X009974Y015930D02*
X010105Y015930D01*
X010107Y015922D02*
X009975Y015922D01*
X009977Y015913D02*
X010109Y015913D01*
X010112Y015904D02*
X009979Y015904D01*
X009981Y015896D02*
X010116Y015896D01*
X010123Y015887D02*
X009983Y015887D01*
X009984Y015879D02*
X010131Y015879D01*
X010142Y015870D02*
X009986Y015870D01*
X009990Y015862D02*
X010153Y015862D01*
X010199Y015836D02*
X010001Y015836D01*
X010005Y015828D02*
X010224Y015828D01*
X010262Y015819D02*
X010008Y015819D01*
X010097Y015717D02*
X010525Y015717D01*
X010513Y015708D02*
X010110Y015708D01*
X010123Y015699D02*
X010500Y015699D01*
X010487Y015691D02*
X010136Y015691D01*
X010156Y015682D02*
X010468Y015682D01*
X010450Y015674D02*
X010176Y015674D01*
X010201Y015665D02*
X010424Y015665D01*
X010388Y015657D02*
X010244Y015657D01*
X010256Y014907D02*
X010283Y014907D01*
X010230Y016331D02*
X010107Y016381D01*
X010017Y016478D01*
X010557Y016424D02*
X010615Y016526D01*
X010636Y016641D01*
X009980Y016746D02*
X009969Y016658D01*
X009980Y016746D02*
X010046Y016872D01*
X010154Y016952D01*
X010286Y016980D01*
X009968Y016644D02*
X009982Y016558D01*
X010017Y016478D01*
X010094Y016652D02*
X010104Y016714D01*
X010070Y014926D02*
X010085Y014915D01*
X010071Y012735D02*
X010205Y012735D01*
X010218Y012726D02*
X010084Y012726D01*
X010097Y012718D02*
X010237Y012718D01*
X010263Y012709D02*
X010110Y012709D01*
X010380Y011872D02*
X010529Y011872D01*
X010500Y011864D02*
X010404Y011864D01*
X010575Y011701D02*
X010060Y011701D01*
X010063Y011704D02*
X010037Y011672D01*
X010016Y011636D01*
X010000Y011596D01*
X009993Y011553D01*
X009994Y011475D01*
X009998Y011456D01*
X010019Y011404D01*
X010028Y011389D01*
X010040Y011375D01*
X010078Y011340D01*
X010088Y011331D01*
X010087Y011329D01*
X010084Y011326D01*
X010005Y011327D01*
X010034Y011174D01*
X010037Y011174D01*
X010844Y011174D01*
X010991Y011337D01*
X010550Y011337D01*
X010428Y011337D01*
X010428Y011342D01*
X010428Y011344D01*
X010427Y011345D01*
X010425Y011345D01*
X010424Y011345D01*
X010397Y011336D01*
X010366Y011331D01*
X010382Y011334D02*
X010988Y011334D01*
X010980Y011325D02*
X010005Y011325D01*
X010007Y011317D02*
X010972Y011317D01*
X010965Y011308D02*
X010008Y011308D01*
X010010Y011300D02*
X010957Y011300D01*
X010949Y011291D02*
X010012Y011291D01*
X010013Y011283D02*
X010942Y011283D01*
X010934Y011274D02*
X010015Y011274D01*
X010016Y011265D02*
X010926Y011265D01*
X010918Y011257D02*
X010018Y011257D01*
X010020Y011248D02*
X010911Y011248D01*
X010903Y011240D02*
X010021Y011240D01*
X010023Y011231D02*
X010895Y011231D01*
X010888Y011223D02*
X010025Y011223D01*
X010026Y011214D02*
X010880Y011214D01*
X010872Y011206D02*
X010028Y011206D01*
X010029Y011197D02*
X010864Y011197D01*
X010857Y011189D02*
X010031Y011189D01*
X010033Y011180D02*
X010849Y011180D01*
X010603Y011394D02*
X010492Y011394D01*
X010498Y011402D02*
X010608Y011402D01*
X010612Y011411D02*
X010503Y011411D01*
X010506Y011419D02*
X010617Y011419D01*
X010621Y011428D02*
X010510Y011428D01*
X010513Y011436D02*
X010624Y011436D01*
X010626Y011445D02*
X010514Y011445D01*
X010516Y011453D02*
X010629Y011453D01*
X010631Y011462D02*
X010518Y011462D01*
X010518Y011471D02*
X010632Y011471D01*
X010633Y011479D02*
X010518Y011479D01*
X010518Y011488D02*
X010634Y011488D01*
X010635Y011496D02*
X010518Y011496D01*
X010517Y011505D02*
X010636Y011505D01*
X010636Y011513D02*
X010515Y011513D01*
X010513Y011522D02*
X010636Y011522D01*
X010636Y011530D02*
X010512Y011530D01*
X010509Y011539D02*
X010635Y011539D01*
X010635Y011547D02*
X010505Y011547D01*
X010501Y011556D02*
X010635Y011556D01*
X010633Y011564D02*
X010497Y011564D01*
X010490Y011573D02*
X010632Y011573D01*
X010631Y011582D02*
X010483Y011582D01*
X010476Y011590D02*
X010629Y011590D01*
X010628Y011599D02*
X010464Y011599D01*
X010452Y011607D02*
X010626Y011607D01*
X010623Y011616D02*
X010432Y011616D01*
X010398Y011624D02*
X010620Y011624D01*
X010617Y011633D02*
X010344Y011633D01*
X010260Y011633D02*
X010014Y011633D01*
X010011Y011624D02*
X010220Y011624D01*
X010201Y011616D02*
X010008Y011616D01*
X010004Y011607D02*
X010184Y011607D01*
X010172Y011599D02*
X010001Y011599D01*
X009999Y011590D02*
X010161Y011590D01*
X010152Y011582D02*
X009998Y011582D01*
X009996Y011573D02*
X010144Y011573D01*
X010137Y011564D02*
X009995Y011564D01*
X009993Y011556D02*
X010130Y011556D01*
X010125Y011547D02*
X009993Y011547D01*
X009993Y011539D02*
X010121Y011539D01*
X010117Y011530D02*
X009993Y011530D01*
X009993Y011522D02*
X010115Y011522D01*
X010112Y011513D02*
X009993Y011513D01*
X009993Y011505D02*
X010111Y011505D01*
X010110Y011496D02*
X009994Y011496D01*
X009994Y011488D02*
X010110Y011488D01*
X010110Y011479D02*
X009994Y011479D01*
X009995Y011471D02*
X010111Y011471D01*
X010111Y011462D02*
X009997Y011462D01*
X010006Y011436D02*
X010114Y011436D01*
X010116Y011428D02*
X010009Y011428D01*
X010013Y011419D02*
X010120Y011419D01*
X010125Y011411D02*
X010016Y011411D01*
X010020Y011402D02*
X010132Y011402D01*
X010139Y011394D02*
X010025Y011394D01*
X010031Y011385D02*
X010146Y011385D01*
X010156Y011377D02*
X010039Y011377D01*
X010048Y011368D02*
X010165Y011368D01*
X010176Y011359D02*
X010057Y011359D01*
X010066Y011351D02*
X010191Y011351D01*
X010209Y011342D02*
X010075Y011342D01*
X010085Y011334D02*
X010238Y011334D01*
X010415Y011342D02*
X010428Y011342D01*
X010438Y011351D02*
X010557Y011351D01*
X010569Y011359D02*
X010453Y011359D01*
X010467Y011368D02*
X010580Y011368D01*
X010588Y011377D02*
X010477Y011377D01*
X010486Y011385D02*
X010595Y011385D01*
X010614Y011641D02*
X010019Y011641D01*
X010024Y011650D02*
X010609Y011650D01*
X010605Y011658D02*
X010029Y011658D01*
X010034Y011667D02*
X010600Y011667D01*
X010594Y011676D02*
X010040Y011676D01*
X010047Y011684D02*
X010588Y011684D01*
X010581Y011693D02*
X010054Y011693D01*
X010134Y011069D02*
X010153Y011069D01*
X010149Y011069D02*
X010180Y011069D01*
X010180Y011060D02*
X010143Y011060D01*
X010138Y011052D02*
X010180Y011052D01*
X010180Y011043D02*
X010132Y011043D01*
X010127Y011035D02*
X010180Y011035D01*
X010180Y011026D02*
X010122Y011026D01*
X010116Y011018D02*
X010180Y011018D01*
X010180Y011009D02*
X010111Y011009D01*
X010106Y011001D02*
X010180Y011001D01*
X010180Y010992D02*
X010100Y010992D01*
X010098Y010984D02*
X010180Y010984D01*
X010180Y010975D02*
X010096Y010975D01*
X010105Y010975D02*
X010026Y010975D01*
X010030Y010984D02*
X010110Y010984D01*
X010116Y010992D02*
X010035Y010992D01*
X010042Y011001D02*
X010122Y011001D01*
X010129Y011009D02*
X010049Y011009D01*
X010055Y011018D02*
X010135Y011018D01*
X010141Y011026D02*
X010062Y011026D01*
X010071Y011035D02*
X010148Y011035D01*
X010154Y011043D02*
X010082Y011043D01*
X010095Y011052D02*
X010160Y011052D01*
X010159Y011060D02*
X010114Y011060D01*
X010102Y010966D02*
X010022Y010966D01*
X010018Y010958D02*
X010099Y010958D01*
X010091Y010958D02*
X010180Y010958D01*
X010180Y010966D02*
X010093Y010966D01*
X010097Y010949D02*
X010013Y010949D01*
X010010Y010941D02*
X010094Y010941D01*
X010086Y010941D02*
X010180Y010941D01*
X010180Y010949D02*
X010088Y010949D01*
X010091Y010932D02*
X010008Y010932D01*
X010006Y010924D02*
X010088Y010924D01*
X010081Y010924D02*
X010172Y010924D01*
X010180Y010932D02*
X010083Y010932D01*
X010086Y010915D02*
X010003Y010915D01*
X010001Y010907D02*
X010083Y010907D01*
X010076Y010907D02*
X010132Y010907D01*
X010124Y010898D02*
X010073Y010898D01*
X010080Y010898D02*
X009999Y010898D01*
X009997Y010890D02*
X010077Y010890D01*
X010071Y010890D02*
X010117Y010890D01*
X010111Y010881D02*
X010068Y010881D01*
X010075Y010881D02*
X009996Y010881D01*
X009995Y010872D02*
X010072Y010872D01*
X010066Y010872D02*
X010107Y010872D01*
X010103Y010864D02*
X010063Y010864D01*
X010069Y010864D02*
X009994Y010864D01*
X009994Y010855D02*
X010067Y010855D01*
X010061Y010855D02*
X010100Y010855D01*
X010099Y010847D02*
X010058Y010847D01*
X010064Y010847D02*
X009993Y010847D01*
X009992Y010838D02*
X010061Y010838D01*
X010056Y010838D02*
X010097Y010838D01*
X010096Y010830D02*
X010053Y010830D01*
X010058Y010830D02*
X009992Y010830D01*
X009992Y010821D02*
X010056Y010821D01*
X010051Y010821D02*
X010096Y010821D01*
X010096Y010813D02*
X010049Y010813D01*
X010053Y010813D02*
X009992Y010813D01*
X009992Y010804D02*
X010055Y010804D01*
X010051Y010804D02*
X010095Y010804D01*
X010095Y010796D02*
X010054Y010796D01*
X010058Y010796D02*
X009992Y010796D01*
X009992Y010787D02*
X010060Y010787D01*
X010056Y010787D02*
X010096Y010787D01*
X010096Y010779D02*
X010058Y010779D01*
X010063Y010779D02*
X009992Y010779D01*
X009992Y010770D02*
X010066Y010770D01*
X010060Y010770D02*
X010097Y010770D01*
X010098Y010761D02*
X010063Y010761D01*
X010068Y010761D02*
X009992Y010761D01*
X009993Y010753D02*
X010071Y010753D01*
X010065Y010753D02*
X010100Y010753D01*
X010103Y010744D02*
X010067Y010744D01*
X010073Y010744D02*
X009994Y010744D01*
X009995Y010736D02*
X010076Y010736D01*
X010069Y010736D02*
X010106Y010736D01*
X010111Y010727D02*
X010071Y010727D01*
X010078Y010727D02*
X009996Y010727D01*
X010017Y010650D02*
X010322Y010650D01*
X010319Y010642D02*
X010022Y010642D01*
X010026Y010633D02*
X010316Y010633D01*
X010312Y010625D02*
X010030Y010625D01*
X010035Y010616D02*
X010307Y010616D01*
X010302Y010608D02*
X010039Y010608D01*
X010045Y010599D02*
X010297Y010599D01*
X010290Y010591D02*
X010052Y010591D01*
X010061Y010582D02*
X010283Y010582D01*
X010276Y010573D02*
X010071Y010573D01*
X010085Y010565D02*
X010266Y010565D01*
X010253Y010556D02*
X010104Y010556D01*
X010130Y010548D02*
X010233Y010548D01*
X010215Y010676D02*
X010085Y010676D01*
X010091Y010650D02*
X010098Y010650D01*
X010127Y010710D02*
X010115Y010720D01*
X010170Y010676D02*
X010330Y010676D01*
X010145Y010915D02*
X010078Y010915D01*
X010118Y015018D02*
X010116Y015062D01*
D16*
X010530Y015512D03*
M02*
